<svg width="103" height="92" viewBox="0 0 103 92" fill="none" xmlns="http://www.w3.org/2000/svg">
<path d="M57.1604 61.1721C58.4994 56.491 59.1599 52.8129 59.3386 48.7356C59.5878 43.8603 58.9377 38.4652 57.6035 34.1137C57.253 32.9251 56.9784 31.9335 57.0246 31.8986C57.2329 31.7413 61.9554 34.351 64.1664 35.842C70.0277 39.7716 74.286 44.5123 77.8212 51.0164C78.4962 52.2506 79.0723 53.3051 79.1246 53.3746C79.2962 53.6266 78.1687 49.7184 77.7431 48.6228C75.6388 43.2725 72.0348 38.2919 67.6284 34.6077C65.8693 33.1387 62.1376 30.5436 60.429 29.5996C59.7763 29.2388 59.2482 28.8747 59.2596 28.7934C59.2739 28.6918 59.607 28.6763 59.9924 28.7304C61.8587 28.9921 69.1782 28.423 72.2272 27.7732C73.8256 27.4379 73.4778 27.4099 69.321 27.5522C64.7323 27.6754 60.2648 27.5255 57.445 27.1301C55.4976 26.857 54.9207 26.6933 52.821 25.7359C51.4957 25.1564 46.7688 23.1676 42.306 21.3609C33.1484 17.6321 31.4548 16.8767 27.4956 14.8712C20.9086 11.5443 16.1431 7.91334 12.4852 3.46394C10.4718 1.00618 9.83333 0.543729 9.17097 0.989536C8.11816 1.71209 8.25983 5.27482 9.54425 9.39143C10.3821 12.1194 10.5301 13.4247 10.248 15.4363C10.1398 16.2084 10.1586 16.8119 10.2835 16.9537C10.6262 17.3126 14.2309 18.8954 16.9883 19.8828C21.2622 21.4144 25.5584 22.6384 33.7791 24.6405C39.0983 25.9457 43.1536 26.9702 43.722 27.1949C44.1569 27.3387 44.1658 27.4229 43.876 28.6046C42.45 34.4959 40.9895 37.979 38.3534 41.7324C37.1638 43.4302 34.6153 46.2635 34.0423 46.5147C33.9092 46.5789 33.6693 46.8146 33.4931 47.0385C33.1033 47.6054 35.5186 46.0173 37.5687 44.3779C42.3196 40.5896 44.8824 36.4737 46.429 30.1643C46.696 29.1451 46.946 28.2478 47.0154 28.1953C47.1773 28.073 51.8974 29.6672 52.3473 29.9996C53.1946 30.5949 54.9962 34.1211 56.0988 37.3213C58.0853 43.0695 58.346 47.9956 57.2308 57.867L56.6403 62.9638L57.1604 61.1721Z" fill="#331900"/>
<path d="M14.4819 65.1706C16.5388 62.5573 17.8365 61.8904 23.6922 60.4108C25.9135 59.8531 27.4346 59.2463 28.6589 58.4169C30.8478 56.9496 32.6461 54.3483 33.9038 50.8265C34.4077 49.4211 35.131 46.8813 35.0291 46.8928C34.9951 46.8966 34.6597 47.1734 34.2787 47.5151C32.7976 48.8429 30.9596 49.8781 27.8704 51.1141C25.8949 51.9001 23.8831 52.9378 22.9513 53.6403C21.9529 54.393 20.7709 55.6957 20.1425 56.7225L19.6757 57.475L19.8775 56.8548C20.0116 56.4641 20.3792 55.8081 20.8943 55.0757C22.1879 53.2143 23.1954 52.4264 27.5673 49.9447C30.3621 48.3493 31.6935 47.4566 32.8366 46.4315C34.0423 45.3396 33.9876 45.4397 33.4855 45.0866C32.7743 44.5864 31.0752 43.7793 29.9422 43.4119C27.0868 42.4706 23.8554 42.7751 21.5254 44.1986C19.7866 45.2482 19.2347 45.7884 17.7285 47.9299C16.5613 49.5894 16.2902 50.0638 15.8629 51.0935C14.2374 55.0495 13.4682 59.6771 13.5542 64.9338L13.5845 66.3131L14.4819 65.1706Z" fill="#328C50"/>
<path d="M57.8361 86.3972C57.2827 83.1179 57.6607 81.7086 60.4995 76.3777C61.5791 74.3578 62.1518 72.8235 62.3602 71.3595C62.7442 68.7524 62.0261 65.6727 60.2628 62.3748C59.5605 61.0573 58.1655 58.8151 58.1056 58.8982C58.0856 58.926 58.0653 59.3604 58.0623 59.8722C58.0505 61.8612 57.5821 63.9181 56.4217 67.0365C55.6765 69.0277 55.0933 71.2149 54.9874 72.3771C54.874 73.6223 55.0446 75.373 55.3828 76.5283L55.6265 77.3797L55.3027 76.8135C55.1035 76.4517 54.8646 75.7387 54.6683 74.865C54.1589 72.6562 54.2524 71.3806 55.352 66.4753C56.0484 63.3333 56.2819 61.7475 56.2908 60.2121C56.2922 58.5854 56.3296 58.6932 55.7307 58.8278C54.8823 59.0184 53.1429 59.7345 52.1095 60.3268C49.4938 61.809 47.548 64.4068 47.0367 67.089C46.6457 69.082 46.6749 69.8537 47.2489 72.4082C47.6936 74.3876 47.8628 74.9072 48.3383 75.9156C50.1759 79.7776 53.0864 83.4567 57.0373 86.9252L58.0792 87.8295L57.8361 86.3972Z" fill="#328C50"/>
<path d="M93.1591 73.5653C90.9371 71.0909 90.5025 69.6981 90.0487 63.6755C89.8801 61.3914 89.543 59.7888 88.9358 58.4404C87.8654 56.0323 85.611 53.8147 82.3569 51.9719C81.0586 51.2346 78.6805 50.0866 78.6743 50.1889C78.6723 50.2231 78.8875 50.6009 79.1588 51.0349C80.213 52.7217 80.9178 54.7099 81.6059 57.9653C82.0416 60.0463 82.719 62.2062 83.2514 63.2447C83.8219 64.3574 84.9026 65.7451 85.8065 66.5403L86.4678 67.1291L85.8914 66.824C85.5295 66.625 84.9462 66.1504 84.313 65.5173C82.7008 63.9237 82.0973 62.7961 80.4019 58.0635C79.3092 55.0365 78.658 53.5718 77.844 52.2699C76.975 50.8949 77.0642 50.966 76.6302 51.4C76.0155 52.015 74.929 53.5506 74.3729 54.6038C72.956 57.2556 72.7021 60.4913 73.7051 63.0309C74.441 64.9238 74.8786 65.5602 76.7302 67.4112C78.165 68.8456 78.5859 69.1941 79.5272 69.7915C83.1459 72.0712 87.5731 73.6222 92.7668 74.4387L94.1309 74.6453L93.1591 73.5653Z" fill="#237E45"/>
<path d="M99.4916 27.1812C96.2095 27.7177 94.8022 27.3325 89.486 24.4663C87.4716 23.3763 85.9403 22.7958 84.4774 22.5799C81.8723 22.1824 78.789 22.8847 75.482 24.631C74.1609 25.3265 71.9116 26.7099 71.9944 26.7703C72.022 26.7904 72.4563 26.813 72.9681 26.8186C74.9571 26.8406 77.0115 27.3196 80.1239 28.496C82.1113 29.2514 84.2954 29.8459 85.4571 29.9577C86.7017 30.0775 88.4532 29.916 89.6103 29.5837L90.4628 29.3444L89.895 29.6653C89.5322 29.8627 88.8179 30.0978 87.9433 30.2896C85.7319 30.7876 84.4568 30.6876 79.5572 29.5628C76.4189 28.8502 74.8342 28.6086 73.2989 28.5918C71.6723 28.582 71.7803 28.5452 71.9117 29.1448C72.098 29.9941 72.8051 31.7372 73.3921 32.7736C74.8608 35.397 77.4486 37.356 80.1281 37.8812C82.1191 38.2824 82.8909 38.2571 85.4483 37.6963C87.43 37.2618 87.9505 37.0953 88.9613 36.6249C92.8327 34.8072 96.5267 31.9158 100.015 27.9827L100.925 26.9454L99.4916 27.1812Z" fill="#237E45"/>
</svg>
