<svg width="103" height="73" viewBox="0 0 103 73" fill="none" xmlns="http://www.w3.org/2000/svg">
<path d="M56.4219 44.1401C57.7609 39.459 58.4214 35.7809 58.6001 31.7037C58.8493 26.8284 58.1992 21.4333 56.865 17.0818C56.5145 15.8931 56.2399 14.9016 56.2861 14.8666C56.4943 14.7093 61.2169 17.319 63.4279 18.81C69.2892 22.7396 73.5474 27.4804 77.0827 33.9845C77.7577 35.2186 78.3338 36.2732 78.3861 36.3427C78.5576 36.5946 77.4302 32.6865 77.0046 31.5909C74.9003 26.2405 71.2962 21.26 66.8898 17.5758C65.1308 16.1068 61.3991 13.5117 59.6905 12.5677C59.0378 12.2068 58.5097 11.8427 58.5211 11.7614C58.5353 11.6598 58.8685 11.6444 59.2539 11.6984C61.1202 11.9601 68.4396 11.3911 71.4887 10.7412C73.087 10.406 72.7393 10.3779 68.5824 10.5202C63.9938 10.6434 59.5263 10.4935 56.7065 10.0981C54.7591 9.82507 54.1822 9.66131 52.0825 8.70391C50.7572 8.12443 46.0303 6.13567 41.5675 4.32896C32.4099 0.600142 30.7162 -0.155297 26.7571 -2.16073C20.1701 -5.48767 15.4046 -9.11861 11.7467 -13.568C9.73325 -16.0258 9.09481 -16.4882 8.43244 -16.0424C7.37963 -15.3199 7.52131 -11.7571 8.80573 -7.64052C9.64361 -4.91251 9.79155 -3.60722 9.50949 -1.59564C9.40123 -0.823514 9.42004 -0.22004 9.54494 -0.0782159C9.88764 0.280613 13.4924 1.86342 16.2498 2.85088C20.5236 4.38247 24.8199 5.60643 33.0406 7.60856C38.3597 8.91378 42.4151 9.93821 42.9834 10.1629C43.4183 10.3068 43.4272 10.3909 43.1374 11.5727C41.7115 17.464 40.2509 20.9471 37.6148 24.7004C36.4253 26.3983 33.8768 29.2316 33.3038 29.4827C33.1706 29.547 32.9307 29.7827 32.7546 30.0066C32.3648 30.5735 34.7801 28.9853 36.8302 27.346C41.5811 23.5576 44.1439 19.4418 45.6905 13.1323C45.9575 12.1131 46.2074 11.2158 46.2768 11.1634C46.4388 11.0411 51.1589 12.6352 51.6087 12.9677C52.4561 13.563 54.2577 17.0891 55.3603 20.2893C57.3467 26.0376 57.6075 30.9637 56.4923 40.8351L55.9018 45.9319L56.4219 44.1401Z" fill="#331900"/>
<path d="M13.7434 48.1387C15.8004 45.5254 17.098 44.8584 22.9537 43.3789C25.175 42.8211 26.6961 42.2144 27.9205 41.385C30.1094 39.9176 31.9077 37.3164 33.1654 33.7945C33.6692 32.3891 34.3925 29.8494 34.2906 29.8609C34.2567 29.8647 33.9213 30.1415 33.5403 30.4832C32.0592 31.811 30.2212 32.8461 27.1319 34.0821C25.1564 34.8682 23.1447 35.9058 22.2128 36.6084C21.2144 37.3611 20.0324 38.6637 19.404 39.6905L18.9373 40.4431L19.139 39.8228C19.2731 39.4322 19.6407 38.7762 20.1558 38.0438C21.4494 36.1823 22.457 35.3944 26.8288 32.9128C29.6237 31.3174 30.955 30.4247 32.0981 29.3996C33.3038 28.3077 33.2491 28.4077 32.7471 28.0546C32.0358 27.5544 30.3367 26.7473 29.2037 26.38C26.3483 25.4386 23.1169 25.7432 20.7869 27.1667C19.0482 28.2163 18.4962 28.7565 16.99 30.898C15.8229 32.5574 15.5517 33.0318 15.1245 34.0616C13.4989 38.0175 12.7298 42.6451 12.8157 47.9018L12.8461 49.2812L13.7434 48.1387Z" fill="#328C50"/>
<path d="M57.0976 69.3652C56.5443 66.0859 56.9223 64.6767 59.7611 59.3458C60.8406 57.3259 61.4133 55.7916 61.6217 54.3275C62.0058 51.7204 61.2876 48.6408 59.5244 45.3429C58.8221 44.0253 57.4271 41.7831 57.3671 41.8663C57.3471 41.894 57.3268 42.3284 57.3238 42.8402C57.312 44.8293 56.8437 46.8861 55.6833 50.0045C54.938 51.9958 54.3548 54.1829 54.249 55.3451C54.1356 56.5904 54.3061 58.341 54.6443 59.4964L54.888 60.3477L54.5642 59.7815C54.365 59.4197 54.1262 58.7067 53.9299 57.8331C53.4205 55.6242 53.5139 54.3486 54.6136 49.4433C55.31 46.3014 55.5434 44.7155 55.5523 43.1802C55.5538 41.5535 55.5911 41.6613 54.9922 41.7958C54.1439 41.9864 52.4044 42.7025 51.3711 43.2948C48.7553 44.777 46.8096 47.3749 46.2982 50.057C45.9072 52.05 45.9365 52.8218 46.5104 55.3762C46.9551 57.3557 47.1243 57.8753 47.5999 58.8836C49.4374 62.7456 52.3479 66.4247 56.2988 69.8932L57.3408 70.7975L57.0976 69.3652Z" fill="#328C50"/>
<path d="M92.4206 56.5334C90.1986 54.0589 89.764 52.6661 89.3102 46.6435C89.1415 44.3594 88.8045 42.7568 88.1972 41.4084C87.1269 39.0004 84.8724 36.7828 81.6183 34.94C80.3201 34.2026 77.9419 33.0547 77.9358 33.157C77.9337 33.1911 78.149 33.569 78.4203 34.003C79.4745 35.6897 80.1793 37.678 80.8673 40.9334C81.3031 43.0144 81.9805 45.1742 82.5129 46.2127C83.0833 47.3254 84.164 48.7132 85.0679 49.5083L85.7293 50.0972L85.1528 49.7921C84.7909 49.593 84.2077 49.1184 83.5744 48.4854C81.9623 46.8918 81.3588 45.7641 79.6633 41.0316C78.5707 38.0046 77.9194 36.5399 77.1055 35.238C76.2364 33.8629 76.3256 33.934 75.8917 34.3681C75.2769 34.983 74.1905 36.5186 73.6344 37.5719C72.2175 40.2236 71.9636 43.4594 72.9666 45.999C73.7025 47.8919 74.1401 48.5282 75.9917 50.3793C77.4265 51.8137 77.8474 52.1621 78.7887 52.7596C82.4074 55.0392 86.8346 56.5903 92.0282 57.4068L93.3924 57.6133L92.4206 56.5334Z" fill="#237E45"/>
<path d="M98.7531 10.1493C95.471 10.6857 94.0637 10.3005 88.7474 7.43431C86.7331 6.34439 85.2018 5.76382 83.7388 5.5479C81.1338 5.15043 78.0504 5.85275 74.7435 7.599C73.4224 8.29452 71.173 9.67795 71.2559 9.73832C71.2835 9.75845 71.7178 9.78104 72.2296 9.78663C74.2186 9.80865 76.273 10.2876 79.3853 11.464C81.3727 12.2195 83.5569 12.814 84.7185 12.9258C85.9632 13.0456 87.7146 12.884 88.8717 12.5518L89.7243 12.3124L89.1565 12.6333C88.7937 12.8307 88.0794 13.0659 87.2048 13.2577C84.9933 13.7557 83.7183 13.6557 78.8186 12.5308C75.6803 11.8183 74.0957 11.5767 72.5604 11.5599C70.9338 11.55 71.0417 11.5133 71.1732 12.1128C71.3595 12.9622 72.0666 14.7053 72.6536 15.7416C74.1223 18.365 76.7101 20.3241 79.3896 20.8492C81.3805 21.2505 82.1524 21.2252 84.7098 20.6644C86.6915 20.2298 87.212 20.0633 88.2227 19.593C92.0942 17.7753 95.7882 14.8838 99.277 10.9508L100.187 9.91348L98.7531 10.1493Z" fill="#237E45"/>
</svg>
