<svg width="66" height="79" viewBox="0 0 66 79" fill="none" xmlns="http://www.w3.org/2000/svg">
<path d="M37.7255 59.9604C35.0321 56.2963 33.1261 53.3479 31.3107 49.9816C29.1208 45.9626 27.1949 41.3513 26.0767 37.4886C25.7637 36.4359 25.4931 35.5609 25.4535 35.54C25.2753 35.4458 23.8387 38.4568 23.2795 40.0909C21.7877 44.4036 21.4992 49.1084 22.3427 55.1548C22.5005 56.3029 22.6357 57.2837 22.6369 57.3509C22.651 57.5913 21.6087 54.1346 21.3753 53.1462C20.2495 48.3147 20.0854 43.5258 20.8991 39.6752C21.2247 38.1395 22.1351 35.316 22.655 34.2268C22.8535 33.8105 22.9837 33.4136 22.9433 33.3478C22.8928 33.2657 22.7073 33.3118 22.523 33.4251C21.6307 33.9736 17.4583 34.7953 15.5462 34.7936C14.5461 34.7972 14.721 34.7123 17.0144 34.0948C19.5315 33.3851 21.8685 32.4691 23.2167 31.6404C24.1478 31.068 24.3887 30.8294 25.113 29.6597C25.5807 28.9422 27.2815 26.4478 28.9172 24.152C32.2647 19.423 32.856 18.4935 34.1374 16.1212C36.2733 12.1823 37.3023 8.31254 37.3912 3.95679C37.4364 1.55202 37.5844 1.05357 38.1283 1.30783C38.9986 1.7236 40.4249 4.71784 41.4709 8.37601C42.1712 10.7979 42.6421 11.9119 43.642 13.5384C44.0258 14.1627 44.2701 14.669 44.2628 14.8093C44.2301 15.169 42.9609 17.1263 41.8959 18.4375C40.2457 20.4706 38.4536 22.2513 34.8814 25.3754C32.5741 27.405 30.8273 28.9767 30.6168 29.2646C30.4438 29.4615 30.4745 29.5332 31.1285 30.4668C34.379 35.1241 36.6326 37.7683 39.6317 40.4296C40.9868 41.6339 43.5508 43.544 43.9646 43.6518C44.0632 43.6818 44.2915 43.8357 44.4805 43.9911C44.929 44.3946 42.9617 43.4987 41.1689 42.4954C37.0189 40.1794 33.9063 37.203 30.4146 32.2186C29.8414 31.4165 29.3287 30.7129 29.2693 30.6815C29.1307 30.6083 27.2671 32.7726 27.1656 33.1292C26.9614 33.7754 27.4805 37.0331 28.2377 39.8953C29.5946 45.0376 31.5319 49.1891 36.2939 57.2184L38.7606 61.3615L37.7255 59.9604Z" fill="#4B0101"/>
<path d="M28.2384 74.2943C26.951 71.2279 26.9972 69.7696 28.5438 63.9313C29.1336 61.7183 29.3409 60.0938 29.2095 58.6208C28.9881 55.9949 27.5857 53.1606 25.1161 50.3524C24.1315 49.23 22.2614 47.3655 22.222 47.4602C22.2089 47.4918 22.2883 47.9193 22.4022 48.4183C22.8449 50.3575 22.8585 52.4669 22.4408 55.7679C22.17 57.8767 22.1015 60.1393 22.2638 61.295C22.4378 62.5332 23.0035 64.1986 23.5966 65.2463L24.0283 66.0195L23.5838 65.5422C23.3072 65.2354 22.9118 64.5958 22.5213 63.7901C21.521 61.7558 21.3207 60.4926 21.2713 55.4658C21.2318 52.2478 21.097 50.6506 20.7551 49.1537C20.3851 47.5697 20.4461 47.6661 19.8938 47.9339C19.1113 48.3131 17.5813 49.4075 16.7105 50.2201C14.5023 52.2604 13.2011 55.2339 13.3157 57.962C13.3901 59.9915 13.5948 60.7362 14.7368 63.0922C15.6218 64.9178 15.9051 65.385 16.5983 66.2581C19.2692 69.5986 22.9428 72.5159 27.5813 74.9907L28.8022 75.6332L28.2384 74.2943Z" fill="#007C37"/>
<path d="M47.5145 64.2708C44.8612 62.2658 44.1688 60.9816 42.574 55.1562C41.9726 52.9463 41.336 51.4374 40.4826 50.2297C38.9724 48.0702 36.3362 46.3235 32.7903 45.1355C31.3752 44.6594 28.8217 43.9864 28.8351 44.088C28.8396 44.1219 29.123 44.4517 29.4722 44.826C30.8289 46.2806 31.9001 48.0978 33.1967 51.1621C34.0216 53.1217 35.0987 55.1126 35.8195 56.0304C36.5917 57.0138 37.9174 58.1698 38.9564 58.7779L39.718 59.2297L39.0939 59.0403C38.7007 58.9139 38.0376 58.5593 37.2952 58.0587C35.4085 56.802 34.6009 55.8103 32.0336 51.4882C30.3834 48.7253 29.4646 47.4118 28.4172 46.2892C27.3017 45.1052 27.4029 45.158 27.0597 45.6669C26.5736 46.3878 25.8002 48.1025 25.4552 49.2425C24.5704 52.1159 24.9386 55.3407 26.4077 57.6422C27.4914 59.3599 28.0424 59.9011 30.2132 61.3648C31.8953 62.499 32.375 62.7608 33.4129 63.1676C37.4002 64.7149 42.042 65.3926 47.296 65.2031L48.6745 65.1455L47.5145 64.2708Z" fill="#328C50"/>
<path d="M8.15557 55.3165C9.20606 52.1611 10.2012 51.0941 15.2099 47.7191C17.1112 46.4422 18.337 45.3561 19.2081 44.1611C20.7708 42.0393 21.5821 38.9828 21.5729 35.2431C21.5711 33.7501 21.3916 31.1155 21.2996 31.1608C21.269 31.1759 21.0471 31.5499 20.8043 32.0004C19.8604 33.7513 18.4815 35.3477 15.9933 37.5567C14.4007 38.9653 12.8591 40.6229 12.2202 41.5995C11.5357 42.6458 10.8646 44.2717 10.621 45.4507L10.4367 46.3168L10.4165 45.6649C10.4103 45.2519 10.5341 44.5102 10.7708 43.6466C11.3576 41.4571 12.0389 40.3746 15.3121 36.5591C17.4016 34.1116 18.352 32.8208 19.0805 31.4692C19.8452 30.0335 19.8276 30.1462 19.2356 29.984C18.3971 29.7541 16.525 29.5701 15.3346 29.6081C12.3291 29.6892 9.39174 31.07 7.68138 33.1984C6.40077 34.7748 6.06438 35.47 5.37229 37.995C4.836 39.9516 4.74152 40.4898 4.68821 41.6034C4.49826 45.8761 5.34155 50.4907 7.20243 55.4078L7.69808 56.6954L8.15557 55.3165Z" fill="#328C50"/>
</svg>
