<svg width="70" height="61" viewBox="0 0 70 61" fill="none" xmlns="http://www.w3.org/2000/svg">
<path d="M36.511 33.935C33.8175 30.2708 31.9116 27.3224 30.0962 23.9561C27.9063 19.9372 25.9804 15.3259 24.8621 11.4631C24.5491 10.4105 24.2785 9.53546 24.2389 9.51453C24.0608 9.42032 22.6241 12.4314 22.065 14.0654C20.5732 18.3781 20.2847 23.083 21.1282 29.1294C21.286 30.2774 21.4212 31.2583 21.4224 31.3255C21.4365 31.5658 20.3941 28.1092 20.1607 27.1208C19.0349 22.2892 18.8709 17.5003 19.6846 13.6498C20.0101 12.1141 20.9206 9.29061 21.4405 8.20137C21.6389 7.78508 21.7691 7.38812 21.7287 7.3224C21.6782 7.24026 21.4927 7.28637 21.3085 7.39965C20.4161 7.94817 16.2438 8.7699 14.3316 8.76817C13.3315 8.77175 13.5065 8.68682 15.7998 8.0694C18.317 7.35963 20.654 6.4437 22.0022 5.61495C22.9333 5.04258 23.1742 4.80395 23.8985 3.63429C24.3661 2.91671 26.067 0.422372 27.7027 -1.87349C31.0502 -6.60247 31.6415 -7.53192 32.9229 -9.90423C35.0587 -13.8431 36.0878 -17.7129 36.1766 -22.0687C36.2219 -24.4734 36.3699 -24.9719 36.9137 -24.7176C37.7841 -24.3018 39.2104 -21.3076 40.2563 -17.6494C40.9566 -15.2276 41.4276 -14.1136 42.4274 -12.4871C42.8112 -11.8627 43.0556 -11.3565 43.0483 -11.2162C43.0155 -10.8564 41.7463 -8.89911 40.6814 -7.58795C39.0311 -5.55483 37.2391 -3.77411 33.6668 -0.65003C31.3595 1.37952 29.6128 2.9513 29.4022 3.23921C29.2292 3.43609 29.2599 3.50777 29.914 4.44133C33.1645 9.09864 35.4181 11.7428 38.4171 14.4041C39.7723 15.6085 42.3363 17.5185 42.75 17.6264C42.8486 17.6563 43.0769 17.8103 43.266 17.9657C43.7145 18.3691 41.7471 17.4732 39.9544 16.47C35.8044 14.154 32.6918 11.1776 29.2001 6.19317C28.6268 5.39104 28.1142 4.6875 28.0548 4.6561C27.9162 4.58283 26.0526 6.74712 25.9511 7.10379C25.7469 7.74997 26.266 11.0076 27.0232 13.8699C28.38 19.0121 30.3173 23.1637 35.0794 31.193L37.546 35.3361L36.511 33.935Z" fill="#4B0101"/>
<path d="M65.0257 29.1797C61.8878 28.0778 60.8373 27.0653 57.5445 22.0022C56.2988 20.0803 55.2329 18.837 54.0523 17.9465C51.9562 16.3493 48.9134 15.4883 45.1741 15.4364C43.6812 15.4138 41.044 15.5503 41.0878 15.6429C41.1024 15.6738 41.4728 15.9018 41.9193 16.1519C43.6545 17.1243 45.2282 18.5291 47.3963 21.053C48.7786 22.6684 50.4108 24.2368 51.3769 24.8916C52.4119 25.5932 54.0266 26.2906 55.2014 26.5534L56.0644 26.7519L55.4123 26.7615C54.9992 26.7609 54.2596 26.625 53.4001 26.3743C51.2204 25.7517 50.1492 25.0529 46.3877 21.7179C43.9746 19.5887 42.6995 18.6173 41.3599 17.8669C39.9369 17.0788 40.0493 17.0982 39.8774 17.6875C39.6339 18.5222 39.4193 20.391 39.4379 21.5819C39.47 24.5883 40.8026 27.5478 42.9028 29.2927C44.458 30.5988 45.1477 30.9465 47.661 31.6798C49.6087 32.2479 50.1452 32.3512 51.2578 32.4227C55.5268 32.6824 60.1546 31.9145 65.1014 30.1342L66.3969 29.6596L65.0257 29.1797Z" fill="#007C37"/>
<path d="M55.2317 52.4525C52.5783 50.4475 51.8859 49.1632 50.2912 43.3379C49.6898 41.1279 49.0531 39.6191 48.1998 38.4114C46.6895 36.2518 44.0534 34.5052 40.5074 33.3171C39.0924 32.8411 36.5388 32.168 36.5523 32.2696C36.5568 32.3035 36.8402 32.6334 37.1893 33.0076C38.5461 34.4622 39.6173 36.2795 40.9139 39.3437C41.7387 41.3033 42.8159 43.2942 43.5366 44.2121C44.3089 45.1955 45.6346 46.3515 46.6736 46.9595L47.4352 47.4114L46.8111 47.2219C46.4178 47.0955 45.7547 46.741 45.0123 46.2404C43.1257 44.9837 42.3181 43.9919 39.7508 39.6699C38.1006 36.907 37.1818 35.5935 36.1344 34.4708C35.0189 33.2869 35.12 33.3396 34.7769 33.8485C34.2908 34.5695 33.5173 36.2842 33.1724 37.4242C32.2875 40.2976 32.6557 43.5223 34.1249 45.8239C35.2086 47.5416 35.7595 48.0827 37.9303 49.5464C39.6125 50.6807 40.0921 50.9424 41.1301 51.3493C45.1173 52.8965 49.7592 53.5743 55.0132 53.3847L56.3916 53.3271L55.2317 52.4525Z" fill="#328C50"/>
<path d="M27.0738 56.6773C26.0087 53.5268 26.1589 52.0755 28.1187 46.3626C28.8651 44.1974 29.1878 42.5918 29.162 41.1133C29.1287 38.4782 27.9324 35.551 25.6696 32.5735C24.7677 31.3837 23.0356 29.3904 22.9896 29.482C22.9742 29.5126 23.0228 29.9447 23.1009 30.4505C23.4039 32.4164 23.2668 34.5214 22.6144 37.7841C22.1936 39.8682 21.9637 42.1201 22.043 43.2844C22.1281 44.5319 22.5734 46.2335 23.0902 47.3208L23.4655 48.1229L23.0562 47.6151C22.8022 47.2894 22.4536 46.6231 22.1216 45.7915C21.2691 43.6911 21.1596 42.4168 21.4694 37.3992C21.6599 34.1867 21.6396 32.5839 21.4054 31.0664C21.1496 29.46 21.2035 29.5606 20.6334 29.7882C19.8259 30.1106 18.2217 31.0928 17.295 31.8411C14.9467 33.7185 13.4364 36.5915 13.3558 39.3207C13.2851 41.3505 13.436 42.1079 14.4069 44.5394C15.1592 46.4235 15.4084 46.9098 16.0375 47.8302C18.4629 51.3529 21.9187 54.5252 26.3686 57.325L27.5405 58.0531L27.0738 56.6773Z" fill="#328C50"/>
</svg>
