<svg width="129" height="89" viewBox="0 0 129 89" fill="none" xmlns="http://www.w3.org/2000/svg">
<path d="M62.3162 57.6179C62.5168 52.7532 62.2939 49.0229 61.5087 45.018C60.6044 40.2208 58.7038 35.1299 56.3837 31.2142C55.7636 30.1413 55.2634 29.2421 55.3002 29.1973C55.4656 28.9954 60.6694 30.4214 63.1691 31.3506C69.7901 33.7916 75.0437 37.3981 80.0094 42.8884C80.9557 43.9292 81.7636 44.8187 81.8308 44.8739C82.0568 45.0785 80.0419 41.5451 79.3706 40.5803C76.0671 35.8748 71.3929 31.8815 66.2436 29.3369C64.1884 28.3227 59.9511 26.6779 58.0685 26.1622C57.3492 25.965 56.7503 25.7353 56.7423 25.6536C56.7322 25.5515 57.0524 25.4581 57.4397 25.42C59.3152 25.2355 66.2956 22.9611 69.1063 21.6125C70.581 20.9107 70.2364 20.9653 66.2295 22.0811C61.7986 23.2799 57.4211 24.1848 54.5874 24.4637C52.6304 24.6562 52.0312 24.6327 49.7652 24.196C48.3408 23.9444 43.2788 23.123 38.5163 22.4164C28.7386 20.9457 26.9148 20.6098 22.595 19.5916C15.4104 17.907 9.92467 15.4986 5.32304 12.0342C2.78809 10.1188 2.0588 9.81947 1.51985 10.4085C0.666486 11.3584 1.64201 14.7879 3.85849 18.487C5.31441 20.9415 5.76515 22.1754 5.96406 24.1969C6.04041 24.9728 6.20061 25.5549 6.35536 25.6634C6.77283 25.9316 10.6487 26.6223 13.561 26.9336C18.0751 27.4172 22.5388 27.5965 30.9998 27.6093C36.4767 27.627 40.6592 27.6691 41.2645 27.7538C41.721 27.7914 41.7494 27.871 41.7456 29.0878C41.7451 35.1492 41.1446 38.8781 39.4651 43.1461C38.7082 45.0761 36.8974 48.4293 36.3995 48.8081C36.2853 48.9018 36.1075 49.1874 35.9889 49.4464C35.7434 50.0891 37.7175 47.9775 39.3246 45.902C43.0513 41.1027 44.5744 36.4996 44.5939 30.0033C44.6137 28.9499 44.6456 28.019 44.7008 27.9517C44.8294 27.7948 49.792 28.2342 50.3074 28.4515C51.271 28.8309 53.8513 31.8345 55.6756 34.6857C58.9581 39.8055 60.37 44.5322 61.6074 54.389L62.2321 59.4817L62.3162 57.6179Z" fill="#331900"/>
<path d="M61.5251 85.4694C61.1904 82.1606 61.6609 80.7796 64.8469 75.6486C66.058 73.7047 66.7311 72.2117 67.0361 70.7647C67.5922 68.1888 67.0797 65.0683 65.539 61.6608C64.9256 60.2996 63.6823 57.9698 63.617 58.0488C63.5952 58.0752 63.5461 58.5073 63.5092 59.0177C63.3656 61.0017 62.7619 63.0229 61.3973 66.0575C60.5217 67.995 59.7948 70.1387 59.6121 71.2913C59.4164 72.5263 59.4705 74.2844 59.7314 75.4596L59.9182 76.3253L59.6326 75.7389C59.4578 75.3647 59.2667 74.6374 59.1288 73.7527C58.767 71.5149 58.9448 70.2483 60.3672 65.4267C61.2703 62.3378 61.6084 60.7709 61.719 59.2395C61.8283 57.6165 61.8584 57.7265 61.252 57.8211C60.3929 57.9551 58.6098 58.5543 57.5394 59.0767C54.8311 60.3823 52.7175 62.8454 52.0294 65.4878C51.5072 67.4505 51.4852 68.2224 51.8885 70.8093C52.2011 72.8139 52.3354 73.3436 52.7431 74.3812C54.3206 78.3566 56.9808 82.2205 60.6931 85.9433L61.6728 86.9147L61.5251 85.4694Z" fill="#007C37"/>
<path d="M101.883 64.0619C98.9618 61.9556 98.1771 60.5887 96.2857 54.3614C95.572 51.9989 94.8409 50.3898 93.8848 49.108C92.1921 46.8156 89.2968 44.9865 85.4363 43.7733C83.8956 43.287 81.1209 42.6093 81.1385 42.7182C81.1443 42.7545 81.4597 43.1037 81.8474 43.4994C83.3538 45.0375 84.5628 46.9701 86.0516 50.2377C86.999 52.3275 88.2195 54.4464 89.024 55.4193C89.886 56.4617 91.3502 57.6797 92.489 58.3143L93.3239 58.7861L92.645 58.5936C92.217 58.4649 91.4912 58.0958 90.6756 57.5713C88.6033 56.2551 87.7029 55.2044 84.8063 50.6084C82.9449 47.6707 81.9151 46.2764 80.7521 45.0893C79.5139 43.8376 79.6246 43.8925 79.2693 44.445C78.766 45.2277 77.9819 47.0827 77.6432 48.313C76.7728 51.4142 77.2647 54.8706 78.9172 57.3161C80.1367 59.1416 80.7471 59.713 83.132 61.2465C84.9801 62.4348 85.5053 62.7074 86.637 63.126C90.9841 64.7171 96.012 65.363 101.675 65.0668L103.16 64.9807L101.883 64.0619Z" fill="#005E2D"/>
<path d="M48.2993 29.7146C45.3779 27.6084 44.5932 26.2415 42.7018 20.0141C41.9882 17.6516 41.257 16.0426 40.3009 14.7607C38.6082 12.4684 35.7129 10.6392 31.8524 9.42604C30.3117 8.93979 27.5371 8.26207 27.5546 8.37096C27.5605 8.40726 27.8758 8.75649 28.2635 9.15218C29.7699 10.6903 30.9789 12.6228 32.4677 15.8905C33.4151 17.9802 34.6356 20.0992 35.4402 21.0721C36.3022 22.1144 37.7663 23.3325 38.9051 23.9671L39.74 24.4388L39.0612 24.2464C38.6332 24.1176 37.9074 23.7486 37.0917 23.2241C35.0194 21.9079 34.1191 20.8571 31.2224 16.2612C29.361 13.3234 28.3312 11.9291 27.1683 10.7421C25.9301 9.49035 26.0407 9.54522 25.6855 10.0978C25.1822 10.8805 24.398 12.7355 24.0593 13.9658C23.189 17.0669 23.6808 20.5233 25.3334 22.9689C26.5529 24.7943 27.1632 25.3657 29.5481 26.8992C31.3962 28.0875 31.9214 28.3601 33.0532 28.7787C37.4003 30.3699 42.4281 31.0158 48.091 30.7196L49.5765 30.6334L48.2993 29.7146Z" fill="#005E2D"/>
<path d="M95.1758 8.44152C92.2262 10.5081 90.6774 10.7999 84.1743 10.5388C81.7085 10.4361 79.9486 10.5977 78.4236 11.0792C75.7022 11.9242 73.0229 14.0573 70.608 17.3043C69.6423 18.5995 68.09 20.9971 68.1986 21.0164C68.2348 21.0228 68.6683 20.8397 69.1695 20.6037C71.1173 19.6867 73.3399 19.1802 76.9154 18.8484C79.2004 18.6407 81.6028 18.1847 82.7861 17.7447C84.054 17.2732 85.6856 16.2909 86.6594 15.4241L87.3794 14.7906L86.9744 15.3685C86.7121 15.7304 86.125 16.2945 85.3615 16.8924C83.4372 18.4168 82.1488 18.9217 76.8561 20.1464C73.4697 20.9385 71.8143 21.4527 70.3109 22.1607C68.7217 22.9186 68.8099 22.8321 69.2149 23.3493C69.7887 24.082 71.2828 25.4324 72.3334 26.1567C74.976 27.9982 78.402 28.67 81.2549 27.9133C83.3798 27.3617 84.1201 26.9731 86.3524 25.2249C88.0822 23.8702 88.5123 23.4638 89.2797 22.5326C92.2116 18.9502 94.4745 14.4141 96.0564 8.96869L96.4634 7.53745L95.1758 8.44152Z" fill="#005E2D"/>
<path d="M29.1391 76.2954C29.8623 72.3889 30.746 70.9527 35.3997 66.0741C37.1666 64.2271 38.2786 62.7268 39.0252 61.1621C40.3667 58.3809 40.8612 54.6341 40.4657 50.2305C40.3097 48.4721 39.8583 45.4008 39.7711 45.4708C39.7421 45.4941 39.5592 45.9747 39.3632 46.5492C38.6013 48.7818 37.3891 50.9109 35.1323 53.9617C33.6872 55.908 32.3189 58.1385 31.7816 59.4041C31.2061 60.7601 30.7038 62.7963 30.5823 64.229L30.4877 65.2826L30.4002 64.5183C30.3514 64.0329 30.3984 63.1368 30.5455 62.0769C30.9055 59.3918 31.474 57.9939 34.3489 52.9093C36.1829 49.6494 36.9988 47.9576 37.5867 46.2341C38.2021 44.405 38.1962 44.541 37.5882 44.4565C36.727 44.3369 34.8383 44.4576 33.6533 44.717C30.6601 45.3543 27.8692 47.5103 26.3808 50.3259C25.2647 52.4137 25.0006 53.2932 24.5702 56.3924C24.2367 58.794 24.1979 59.445 24.2597 60.7664C24.5114 65.8339 25.8303 71.1179 28.1967 76.5747L28.8247 78.0021L29.1391 76.2954Z" fill="#328C50"/>
<path d="M118.493 45.5145C117.672 42.0076 117.978 40.4614 120.64 34.5226C121.653 32.2721 122.158 30.5784 122.279 28.9838C122.507 26.1434 121.524 22.8627 119.409 19.4129C118.566 18.0346 116.919 15.7016 116.86 15.7952C116.841 15.8265 116.85 16.2969 116.882 16.8499C117.008 18.9991 116.651 21.2506 115.629 24.6927C114.971 26.891 114.501 29.2905 114.469 30.5526C114.434 31.9048 114.739 33.7848 115.181 35.0112L115.501 35.9152L115.116 35.3243C114.877 34.9462 114.572 34.1913 114.301 33.2602C113.602 30.9068 113.613 29.523 114.446 24.1547C114.971 20.7167 115.11 18.9889 115.012 17.33C114.9 15.5729 114.948 15.6869 114.317 15.8704C113.423 16.1303 111.614 17.0146 110.551 17.7201C107.858 19.4877 105.959 22.4176 105.6 25.3472C105.321 27.5248 105.407 28.3565 106.199 31.0791C106.812 33.1888 107.029 33.7392 107.608 34.798C109.842 38.8524 113.21 42.6409 117.676 46.1356L118.853 47.046L118.493 45.5145Z" fill="#005E2D"/>
<path d="M100.57 61.4679C100.56 58.1422 101.164 56.8138 104.836 52.019C106.232 50.2029 107.048 48.783 107.493 47.3728C108.298 44.8636 108.093 41.7079 106.893 38.166C106.416 36.7514 105.407 34.3112 105.334 34.3834C105.31 34.4075 105.218 34.8327 105.132 35.3371C104.795 37.2975 103.996 39.25 102.342 42.1366C101.281 43.9791 100.347 46.0414 100.053 47.1707C99.7373 48.3806 99.6192 50.1355 99.7639 51.3307L99.8651 52.2104L99.6383 51.5989C99.5009 51.2094 99.3819 50.4669 99.3311 49.5729C99.1899 47.3105 99.4908 46.0674 101.378 41.408C102.579 38.4223 103.069 36.896 103.329 35.3827C103.596 33.7782 103.615 33.8907 103.003 33.9254C102.134 33.9747 100.301 34.3966 99.1849 34.8119C96.3619 35.8463 94.0174 38.0909 93.0742 40.6533C92.3625 42.5554 92.2651 43.3216 92.4135 45.9355C92.5285 47.961 92.6104 48.5013 92.9146 49.5739C94.0957 53.6845 96.3651 57.79 99.6955 61.8581L100.575 62.9207L100.57 61.4679Z" fill="#328C50"/>
</svg>
