<svg width="100" height="76" viewBox="0 0 100 76" fill="none" xmlns="http://www.w3.org/2000/svg">
<path d="M34.1458 44.493C34.3464 39.6283 34.1234 35.898 33.3382 31.8931C32.434 27.0959 30.5334 22.0049 28.2133 18.0892C27.5931 17.0163 27.093 16.1172 27.1297 16.0723C27.2951 15.8705 32.4989 17.2965 34.9986 18.2257C41.6196 20.6667 46.8733 24.2731 51.8389 29.7634C52.7852 30.8042 53.5932 31.6937 53.6603 31.749C53.8863 31.9535 51.8714 28.4201 51.2001 27.4553C47.8966 22.7499 43.2224 18.7566 38.0732 16.2119C36.018 15.1978 31.7807 13.553 29.898 13.0373C29.1788 12.84 28.5798 12.6103 28.5718 12.5286C28.5617 12.4266 28.8819 12.3332 29.2692 12.2951C31.1447 12.1105 38.1251 9.83621 40.9358 8.48757C42.4105 7.78581 42.0659 7.84033 38.0591 8.95618C33.6281 10.155 29.2506 11.0599 26.417 11.3387C24.4599 11.5313 23.8607 11.5078 21.5947 11.071C20.1703 10.8194 15.1083 9.99805 10.3458 9.2915C0.568129 7.82079 -1.25568 7.48483 -5.57543 6.46669C-12.7601 4.78208 -18.2458 2.37364 -22.8474 -1.09079C-25.3824 -3.00613 -26.1117 -3.30547 -26.6506 -2.7164C-27.504 -1.76653 -26.5285 1.66297 -24.312 5.36208C-22.8561 7.81655 -22.4053 9.05045 -22.2064 11.0719C-22.1301 11.8479 -21.9699 12.43 -21.8151 12.5385C-21.3976 12.8066 -17.5218 13.4974 -14.6095 13.8087C-10.0953 14.2923 -5.6317 14.4716 2.82929 14.4843C8.30618 14.5021 12.4887 14.5441 13.094 14.6289C13.5505 14.6664 13.5789 14.7461 13.5752 15.9629C13.5747 22.0243 12.9742 25.7532 11.2946 30.0212C10.5377 31.9512 8.72696 35.3043 8.22908 35.6832C8.1148 35.7769 7.93706 36.0624 7.81847 36.3215C7.57295 36.9642 9.54701 34.8525 11.1541 32.777C14.8809 27.9777 16.4039 23.3746 16.4234 16.8784C16.4432 15.825 16.4752 14.8941 16.5303 14.8268C16.6589 14.6698 21.6216 15.1093 22.1369 15.3266C23.1005 15.706 25.6808 18.7095 27.5051 21.5607C30.7876 26.6806 32.1995 31.4072 33.437 41.264L34.0616 46.3568L34.1458 44.493Z" fill="#331900"/>
<path d="M33.3545 72.3445C33.0198 69.0357 33.4904 67.6546 36.6764 62.5236C37.8875 60.5797 38.5606 59.0868 38.8656 57.6397C39.4216 55.0639 38.9092 51.9433 37.3685 48.5358C36.7551 47.1746 35.5118 44.8449 35.4464 44.9239C35.4247 44.9502 35.3756 45.3823 35.3387 45.8928C35.1951 47.8767 34.5914 49.898 33.2268 52.9326C32.3512 54.87 31.6242 57.0137 31.4416 58.1664C31.2459 59.4013 31.3 61.1594 31.5609 62.3347L31.7476 63.2003L31.4621 62.6139C31.2873 62.2397 31.0962 61.5124 30.9583 60.6277C30.5964 58.3899 30.7742 57.1233 32.1967 52.3017C33.0998 49.2128 33.4379 47.646 33.5485 46.1145C33.6578 44.4916 33.6879 44.6016 33.0815 44.6961C32.2223 44.8301 30.4392 45.4293 29.3689 45.9518C26.6606 47.2573 24.5469 49.7205 23.8589 52.3628C23.3366 54.3255 23.3147 55.0975 23.718 57.6844C24.0305 59.689 24.1649 60.2186 24.5726 61.2563C26.1501 65.2316 28.8102 69.0955 32.5225 72.8183L33.5022 73.7897L33.3545 72.3445Z" fill="#007C37"/>
<path d="M73.7127 50.9369C70.7912 48.8307 70.0065 47.4638 68.1151 41.2364C67.4015 38.8739 66.6703 37.2649 65.7142 35.983C64.0215 33.6907 61.1262 31.8615 57.2657 30.6483C55.7251 30.1621 52.9504 29.4844 52.9679 29.5933C52.9738 29.6296 53.2892 29.9788 53.6768 30.3745C55.1833 31.9126 56.3923 33.8451 57.881 37.1128C58.8284 39.2025 60.0489 41.3215 60.8535 42.2943C61.7155 43.3367 63.1796 44.5547 64.3184 45.1894L65.1533 45.6611L64.4745 45.4687C64.0465 45.3399 63.3207 44.9708 62.5051 44.4464C60.4328 43.1302 59.5324 42.0794 56.6357 37.4835C54.7743 34.5457 53.7446 33.1514 52.5816 31.9643C51.3434 30.7126 51.4541 30.7675 51.0988 31.32C50.5955 32.1028 49.8113 33.9578 49.4727 35.1881C48.6023 38.2892 49.0941 41.7456 50.7467 44.1912C51.9662 46.0166 52.5765 46.588 54.9615 48.1215C56.8095 49.3098 57.3347 49.5824 58.4665 50.001C62.8136 51.5922 67.8415 52.2381 73.5043 51.9419L74.9898 51.8557L73.7127 50.9369Z" fill="#005E2D"/>
<path d="M20.1289 16.5897C17.2074 14.4835 16.4227 13.1166 14.5313 6.88919C13.8177 4.5267 13.0865 2.91766 12.1304 1.6358C10.4377 -0.656578 7.54242 -2.48571 3.68193 -3.6989C2.14128 -4.18515 -0.633402 -4.86287 -0.615865 -4.75398C-0.610019 -4.71768 -0.294629 -4.36845 0.0930321 -3.97275C1.59946 -2.43468 2.80845 -0.502116 4.29724 2.76554C5.24463 4.8553 6.46513 6.97423 7.26968 7.94712C8.1317 8.98949 9.59584 10.2075 10.7346 10.8421L11.5695 11.3139L10.8907 11.1214C10.4627 10.9927 9.73689 10.6236 8.92126 10.0992C6.84897 8.78298 5.94858 7.73219 3.05194 3.13628C1.19053 0.198488 0.160775 -1.1958 -1.00221 -2.38288C-2.24039 -3.63459 -2.12974 -3.57972 -2.48501 -3.02718C-2.98832 -2.24443 -3.77246 -0.389443 -4.11114 0.840838C-4.98151 3.942 -4.48966 7.39841 -2.83709 9.84397C-1.61759 11.6694 -1.00727 12.2408 1.37767 13.7743C3.22575 14.9626 3.75093 15.2352 4.8827 15.6538C9.22981 17.245 14.2577 17.8909 19.9205 17.5946L21.406 17.5085L20.1289 16.5897Z" fill="#005E2D"/>
<path d="M67.0053 -4.68342C64.0557 -2.6168 62.5068 -2.32509 56.0038 -2.5861C53.538 -2.68879 51.778 -2.52726 50.2531 -2.04571C47.5317 -1.20074 44.8523 0.932313 42.4374 4.17938C41.4717 5.47454 39.9195 7.87218 40.0281 7.89142C40.0643 7.89783 40.4978 7.71478 40.9989 7.47876C42.9468 6.56172 45.1694 6.05526 48.7448 5.72348C51.0299 5.51576 53.4323 5.05971 54.6156 4.61972C55.8834 4.1483 57.5151 3.16598 58.4888 2.29912L59.2088 1.66571L58.8039 2.24357C58.5416 2.60542 57.9544 3.16956 57.191 3.76744C55.2667 5.29184 53.9783 5.79674 48.6856 7.02144C45.2991 7.81358 43.6438 8.32772 42.1404 9.0358C40.5512 9.79365 40.6394 9.70719 41.0444 10.2244C41.6182 10.957 43.1123 12.3074 44.1628 13.0317C46.8055 14.8732 50.2315 15.545 53.0844 14.7883C55.2093 14.2367 55.9495 13.8482 58.1819 12.0999C59.9117 10.7452 60.3418 10.3389 61.1092 9.40762C64.041 5.82525 66.304 1.28921 67.8859 -4.15625L68.2929 -5.58749L67.0053 -4.68342Z" fill="#005E2D"/>
<path d="M0.968678 63.1704C1.69187 59.264 2.57553 57.8277 7.22919 52.9491C8.9961 51.1022 10.1081 49.6019 10.8547 48.0372C12.1962 45.2559 12.6907 41.5092 12.2952 37.1055C12.1392 35.3471 11.6878 32.2759 11.6007 32.3458C11.5716 32.3691 11.3887 32.8497 11.1927 33.4242C10.4308 35.6569 9.2186 37.786 6.96178 40.8367C5.51672 42.7831 4.14839 45.0136 3.61117 46.2792C3.03558 47.6351 2.53336 49.6714 2.41187 51.1041L2.31721 52.1576L2.2297 51.3933C2.18091 50.9079 2.22788 50.0119 2.37507 48.952C2.73501 46.2669 3.30352 44.8689 6.17842 39.7844C8.01243 36.5245 8.82831 34.8327 9.4162 33.1092C10.0317 31.2801 10.0257 31.416 9.41775 31.3316C8.5565 31.212 6.66783 31.3326 5.48285 31.592C2.48965 32.2294 -0.30132 34.3854 -1.78963 37.201C-2.90576 39.2887 -3.16991 40.1683 -3.60027 43.2675C-3.93376 45.6691 -3.97253 46.3201 -3.91074 47.6415C-3.6591 52.7089 -2.3402 57.993 0.0262001 63.4498L0.654213 64.8772L0.968678 63.1704Z" fill="#328C50"/>
<path d="M90.3224 32.3895C89.5019 28.8827 89.8075 27.3365 92.4698 21.3977C93.4827 19.1472 93.9877 17.4535 94.1082 15.8589C94.3367 13.0185 93.3539 9.7378 91.2387 6.28799C90.396 4.90966 88.7482 2.57665 88.6899 2.6703C88.6705 2.70152 88.679 3.17201 88.7116 3.72499C88.838 5.87419 88.4809 8.12563 87.4583 11.5678C86.8008 13.766 86.3301 16.1656 86.2981 17.4276C86.2638 18.7798 86.5684 20.6599 87.0107 21.8863L87.3306 22.7903L86.945 22.1994C86.7067 21.8213 86.4016 21.0663 86.1308 20.1352C85.432 17.7818 85.4428 16.3981 86.2756 11.0297C86.8006 7.59174 86.9394 5.86398 86.8417 4.20502C86.7296 2.44795 86.777 2.56199 86.1463 2.74546C85.2527 3.00538 83.4433 3.88964 82.3801 4.5952C79.6874 6.36276 77.7889 9.29268 77.4296 12.2223C77.1509 14.3998 77.236 15.2315 78.028 17.9541C78.6417 20.0638 78.8588 20.6143 79.4376 21.6731C81.6716 25.7275 85.0398 29.5159 89.5054 33.0107L90.6824 33.9211L90.3224 32.3895Z" fill="#005E2D"/>
<path d="M72.3993 48.343C72.3898 45.0173 72.9933 43.6889 76.6658 38.8941C78.0613 37.078 78.8772 35.6581 79.3223 34.2478C80.1276 31.7387 79.9229 28.583 78.7228 25.0411C78.2455 23.6265 77.2361 21.1862 77.1633 21.2585C77.1391 21.2826 77.048 21.7078 76.9613 22.2122C76.6243 24.1726 75.8258 26.1251 74.171 29.0117C73.1101 30.8542 72.1769 32.9165 71.8824 34.0457C71.5668 35.2556 71.4487 37.0106 71.5934 38.2057L71.6945 39.0855L71.4677 38.474C71.3303 38.0844 71.2114 37.3419 71.1606 36.448C71.0194 34.1855 71.3202 32.9424 73.2075 28.283C74.4084 25.2973 74.8981 23.771 75.158 22.2578C75.4256 20.6533 75.4448 20.7657 74.832 20.8005C73.9639 20.8498 72.1307 21.2717 71.0144 21.687C68.1914 22.7213 65.8469 24.9659 64.9037 27.5283C64.192 29.4305 64.0946 30.1966 64.243 32.8106C64.3579 34.8361 64.4398 35.3764 64.744 36.4489C65.9251 40.5595 68.1946 44.6651 71.5249 48.7332L72.4049 49.7957L72.3993 48.343Z" fill="#328C50"/>
</svg>
