<svg width="85" height="69" viewBox="0 0 85 69" fill="none" xmlns="http://www.w3.org/2000/svg">
<path d="M36.5871 32.971C36.9048 28.1422 37.3803 24.4373 38.2266 20.4568C39.218 15.689 40.849 10.6242 42.6316 6.724C43.1105 5.65542 43.4998 4.75999 43.4812 4.71566C43.3978 4.51616 40.0667 5.95995 38.4444 6.89598C34.1493 9.35525 30.5898 12.9642 27.0367 18.442C26.3601 19.4805 25.7823 20.368 25.736 20.4232C25.5784 20.6275 27.1385 17.1085 27.639 16.147C30.0983 11.4573 33.3364 7.46738 36.7353 4.9132C38.0918 3.89521 40.8481 2.23939 42.0532 1.71721C42.5136 1.51749 42.903 1.28621 42.9153 1.20507C42.9308 1.10365 42.7423 1.01269 42.5074 0.976934C41.3702 0.803811 37.2816 -1.41668 35.6745 -2.74055C34.8308 -3.42935 35.0379 -3.37708 37.402 -2.29078C40.0195 -1.1244 42.6309 -0.249519 44.349 0.0120468C45.5357 0.192697 45.9065 0.166131 47.3403 -0.279728C48.2396 -0.537167 51.4285 -1.37996 54.4229 -2.10711C60.5722 -3.61996 61.7248 -3.96335 64.475 -4.99747C69.0483 -6.70875 72.6419 -9.12952 75.7874 -12.594C77.5207 -14.5093 77.9966 -14.8104 78.2748 -14.2285C78.7137 -13.29 77.8025 -9.87972 76.1033 -6.1951C74.9849 -3.75033 74.5957 -2.52282 74.29 -0.514699C74.1726 0.256096 74.0213 0.834926 73.9162 0.943458C73.635 1.21197 71.1877 1.91861 69.3676 2.2434C66.5463 2.74784 63.7837 2.9499 58.5767 3.00814C55.2053 3.05526 52.628 3.11952 52.248 3.20693C51.9637 3.24667 51.939 3.32592 51.8309 4.53398C51.2816 10.5521 51.3129 14.2511 51.9592 18.4796C52.2499 20.3917 53.0599 23.7111 53.3319 24.0846C53.3937 24.177 53.4772 24.4595 53.5266 24.7161C53.6194 25.3529 52.5963 23.267 51.7957 21.215C49.938 16.47 49.4183 11.908 49.9955 5.4583C50.0788 4.41252 50.1436 3.48844 50.1157 3.42194C50.0508 3.26678 46.9576 3.72983 46.6208 3.94836C45.9935 4.33021 44.1336 7.32622 42.7526 10.1668C40.2686 15.2678 38.9712 19.9683 37.316 29.7613L36.4698 34.8211L36.5871 32.971Z" fill="#4B0101"/>
<path d="M41.2102 58.9523C40.3027 55.7528 40.5248 54.3108 42.7656 48.7022C43.6185 46.5766 44.0206 44.9891 44.0681 43.511C44.1657 40.8776 43.1161 37.8946 41.0039 34.8085C40.1622 33.5754 38.5311 31.4986 38.4806 31.5878C38.4637 31.6176 38.4908 32.0516 38.5437 32.5606C38.7488 34.5392 38.5074 36.6348 37.6939 39.8611C37.1701 41.9217 36.8288 44.1594 36.8502 45.3262C36.8733 46.5764 37.2336 48.298 37.6958 49.4096L38.0308 50.2293L37.6472 49.7018C37.4097 49.3639 37.0946 48.6812 36.8042 47.8342C36.0571 45.694 36.011 44.4158 36.5694 39.4198C36.9191 36.2207 36.9783 34.6189 36.8198 33.0917C36.6439 31.4745 36.6928 31.5776 36.1122 31.7766C35.2896 32.0586 33.6386 32.96 32.676 33.6614C30.2373 35.4199 28.5864 38.2144 28.3704 40.9363C28.199 42.96 28.3122 43.724 29.1612 46.2007C29.819 48.1199 30.0438 48.6179 30.6265 49.5684C32.8741 53.2071 36.1682 56.547 40.4737 59.5642L41.608 60.3495L41.2102 58.9523Z" fill="#007C37"/>
<path d="M69.717 43.6901C67.3316 41.3728 66.803 40.0129 65.9399 34.0352C65.616 31.7679 65.1706 30.192 64.4729 28.8881C63.2409 26.5586 60.8406 24.4998 57.4685 22.8829C56.123 22.2358 53.6722 21.2525 53.673 21.355C53.6733 21.3892 53.9138 21.7515 54.214 22.166C55.3807 23.777 56.2193 25.7127 57.1276 28.9136C57.7042 30.9601 58.5272 33.0687 59.1291 34.0686C59.774 35.1398 60.9468 36.4507 61.9027 37.1824L62.6027 37.7248L62.0068 37.4597C61.6322 37.2858 61.0179 36.852 60.343 36.2636C58.626 34.7835 57.9471 33.6996 55.9331 29.0936C54.6367 26.1481 53.8872 24.7312 52.9864 23.4877C52.0257 22.1751 52.1195 22.24 51.7162 22.7026C51.1448 23.358 50.1655 24.9641 49.6824 26.0528C48.4495 28.7949 48.4167 32.0404 49.5904 34.5058C50.4536 36.3441 50.9335 36.9492 52.907 38.6698C54.4361 40.003 54.8798 40.322 55.8596 40.8539C59.6252 42.8817 64.1479 44.1275 69.3851 44.5882L70.7601 44.7013L69.717 43.6901Z" fill="#007C37"/>
<path d="M11.7704 34.9092C12.8731 31.0925 13.8933 29.7497 19.0027 25.3508C20.9422 23.686 22.1959 22.3019 23.0923 20.8179C24.7 18.1816 25.5594 14.5014 25.5975 10.0802C25.6146 8.3149 25.4664 5.21421 25.3728 5.27527C25.3416 5.29563 25.1125 5.75597 24.8611 6.30849C23.8841 8.45573 22.4689 10.4557 19.9239 13.2706C18.2951 15.0659 16.7147 17.1515 16.056 18.3583C15.3502 19.6514 14.6508 21.6286 14.3895 23.0425L14.192 24.0816L14.1798 23.3125C14.1789 22.8246 14.3134 21.9375 14.5638 20.8971C15.1852 18.2602 15.888 16.9247 19.2475 12.1465C21.3923 9.08208 22.37 7.47836 23.124 5.82079C23.9158 4.06086 23.8966 4.19554 23.2998 4.05194C22.4545 3.84849 20.5631 3.78341 19.3584 3.92539C16.3171 4.26626 13.3282 6.13832 11.5711 8.79443C10.2557 10.7627 9.90658 11.6122 9.17448 14.6543C8.60719 17.0116 8.50479 17.6557 8.43675 18.9768C8.19044 24.0445 8.98501 29.4323 10.8051 35.0948L11.2902 36.5769L11.7704 34.9092Z" fill="#328C50"/>
<path d="M21.1627 47.3688C21.3029 43.77 22.0081 42.3605 26.1519 37.3418C27.7261 35.4411 28.6628 33.9424 29.2024 32.437C30.177 29.7593 30.1007 26.3354 28.9776 22.4478C28.5311 20.8951 27.562 18.2083 27.481 18.2831C27.454 18.308 27.3373 18.7639 27.2219 19.3057C26.7729 21.4113 25.8308 23.4871 23.9308 26.5341C22.7131 28.4787 21.6221 30.6671 21.2561 31.8754C20.864 33.17 20.6584 35.0634 20.7591 36.3632L20.8275 37.3197L20.6126 36.6476C20.4833 36.2198 20.3896 35.4109 20.3758 34.4413C20.327 31.9869 20.7049 30.6557 22.9335 25.7013C24.3526 22.5261 24.9452 20.8973 25.2915 19.2719C25.6501 17.5482 25.6656 17.6707 25.0088 17.6801C24.0783 17.6934 22.099 18.0654 20.8866 18.4633C17.8212 19.4523 15.2128 21.7728 14.0884 24.5019C13.2414 26.5272 13.1026 27.3516 13.1431 30.1868C13.1745 32.3837 13.2377 32.972 13.5145 34.1465C14.5916 38.6486 16.8328 43.1955 20.21 47.7507L21.103 48.9409L21.1627 47.3688Z" fill="#005E2D"/>
</svg>
