<svg width="273" height="83" viewBox="0 0 273 83" fill="none" xmlns="http://www.w3.org/2000/svg">
<path d="M105.836 53.2414C105.423 48.4197 105.336 44.6854 105.573 40.6229C105.836 35.7602 106.686 30.5077 107.862 26.3836C108.174 25.2551 108.424 24.3113 108.399 24.2702C108.287 24.0856 105.211 26.0143 103.748 27.1838C99.8719 30.2614 96.8961 34.365 94.2079 40.3152C93.6952 41.4436 93.2576 42.408 93.2201 42.4695C93.0951 42.6952 94.1078 38.9815 94.4579 37.9556C96.1834 32.9493 98.7841 28.5174 101.76 25.4808C102.948 24.2702 105.423 22.2185 106.536 21.5209C106.961 21.2541 107.311 20.9669 107.311 20.8848C107.311 20.7822 107.111 20.7207 106.874 20.7207C105.724 20.7207 101.347 19.1408 99.5593 18.0739C98.6216 17.5199 98.8341 17.5404 101.335 18.2585C104.098 19.0177 106.811 19.4896 108.549 19.4896C109.75 19.4896 110.112 19.4075 111.463 18.751C112.313 18.3611 115.339 17.048 118.189 15.8785C124.041 13.4574 125.129 12.9444 127.692 11.5082C131.956 9.12812 135.144 6.19408 137.732 2.2957C139.158 0.141332 139.583 -0.227988 139.945 0.305474C140.521 1.16722 140.133 4.67576 139.008 8.57414C138.27 11.1594 138.07 12.4315 138.07 14.4627C138.07 15.2424 138.007 15.8374 137.92 15.9605C137.682 16.2683 135.369 17.3352 133.619 17.9303C130.905 18.8535 128.205 19.4691 123.066 20.3103C119.74 20.8643 117.202 21.3157 116.839 21.4593C116.564 21.5414 116.552 21.6235 116.627 22.834C116.989 28.8662 117.577 32.5184 118.852 36.6014C119.427 38.448 120.728 41.6078 121.053 41.9361C121.128 42.0181 121.253 42.2849 121.34 42.5311C121.528 43.1466 120.203 41.2385 119.102 39.3303C116.552 34.919 115.351 30.4871 114.951 24.024C114.876 22.9776 114.801 22.0543 114.764 21.9928C114.676 21.8491 111.688 22.7724 111.388 23.0392C110.825 23.5111 109.437 26.7529 108.499 29.769C106.811 35.1857 106.236 40.0279 106.074 49.9585L105.999 55.088L105.836 53.2414Z" fill="#4B0101"/>
<path d="M114.317 78.2309C112.938 75.2045 112.941 73.7454 114.312 67.8635C114.835 65.6338 114.994 64.0038 114.818 62.5354C114.518 59.9173 113.032 57.1262 110.479 54.3932C109.461 53.3008 107.536 51.4931 107.5 51.5889C107.488 51.6209 107.58 52.0459 107.709 52.5412C108.209 54.4663 108.286 56.5744 107.967 59.8864C107.76 62.0023 107.759 64.266 107.956 65.4162C108.167 66.6487 108.782 68.2965 109.406 69.3259L109.861 70.0858L109.402 69.6221C109.117 69.3237 108.702 68.6962 108.288 67.9025C107.227 65.8992 106.989 64.6425 106.789 59.6194C106.653 56.4041 106.471 54.8116 106.084 53.3256C105.667 51.7534 105.731 51.8479 105.187 52.1321C104.416 52.5346 102.92 53.6742 102.073 54.5125C99.9272 56.618 98.7157 59.6291 98.9118 62.3525C99.0469 64.379 99.2738 65.1172 100.486 67.4379C101.425 69.2362 101.722 69.6948 102.441 70.5468C105.211 73.8058 108.97 76.6118 113.681 78.9467L114.92 79.5524L114.317 78.2309Z" fill="#007C37"/>
<path d="M140.202 58.8523C137.495 56.9204 136.768 55.6555 135.015 49.8758C134.353 47.6831 133.676 46.1921 132.79 45.0081C131.221 42.8905 128.538 41.2164 124.961 40.1255C123.534 39.6882 120.963 39.085 120.979 39.1862C120.985 39.22 121.277 39.542 121.636 39.9065C123.032 41.3236 124.152 43.111 125.532 46.1388C126.41 48.0752 127.541 50.036 128.287 50.9338C129.085 51.8958 130.442 53.0152 131.497 53.5947L132.271 54.0256L131.642 53.8532C131.245 53.7377 130.573 53.4013 129.817 52.9211C127.897 51.7163 127.062 50.7469 124.378 46.4965C122.653 43.7796 121.699 42.4917 120.621 41.398C119.474 40.2449 119.577 40.2949 119.247 40.8129C118.781 41.5469 118.055 43.282 117.741 44.431C116.935 47.3274 117.391 50.541 118.922 52.8016C120.052 54.4891 120.618 55.0151 122.828 56.419C124.54 57.507 125.027 57.7555 126.075 58.1339C130.103 59.5719 134.762 60.1229 140.009 59.7901L141.385 59.695L140.202 58.8523Z" fill="#007C37"/>
<path d="M81.5938 58.8923C82.1095 54.9531 82.916 53.4722 87.3052 48.3544C88.972 46.4166 90.0032 44.8596 90.666 43.2576C91.8586 40.4094 92.1543 36.6417 91.5266 32.2651C91.2778 30.5174 90.6647 27.4743 90.5814 27.5488C90.5536 27.5736 90.3963 28.0632 90.231 28.6472C89.5882 30.9171 88.4902 33.1073 86.3979 36.2731C85.0577 38.2931 83.8092 40.5928 83.3396 41.885C82.8365 43.2695 82.4427 45.3295 82.3971 46.7666L82.3583 47.8237L82.2305 47.0651C82.1561 46.5829 82.1556 45.6856 82.2466 44.6194C82.4641 41.9191 82.9579 40.493 85.5599 35.2636C87.2191 31.9113 87.9444 30.1787 88.4403 28.4265C88.9582 26.5675 88.9594 26.7035 88.3479 26.6514C87.4815 26.5775 85.6019 26.7978 84.4323 27.1195C81.4769 27.9142 78.8038 30.2147 77.4665 33.105C76.4623 35.2489 76.245 36.1412 75.9791 39.2588C75.773 41.6746 75.7687 42.3268 75.9003 43.6431C76.4195 48.6902 78.0159 53.8971 80.6674 59.2212L81.37 60.6133L81.5938 58.8923Z" fill="#328C50"/>
<path d="M92.7542 69.7965C92.3512 66.2176 92.8363 64.718 96.1776 59.1329C97.4478 57.0169 98.1482 55.3943 98.4552 53.8248C99.0156 51.0309 98.4249 47.6575 96.7295 43.9832C96.0545 42.5154 94.692 40.005 94.6232 40.0912C94.6002 40.1199 94.5535 40.5882 94.5209 41.1411C94.394 43.2903 93.775 45.4842 92.3552 48.7825C91.4441 50.8883 90.6948 53.2159 90.5148 54.4655C90.322 55.8043 90.4037 57.7071 90.6989 58.977L90.9105 59.9123L90.5969 59.2802C90.4047 58.8767 90.1903 58.0912 90.0307 57.1347C89.6131 54.7156 89.7863 53.3427 91.2439 48.1093C92.169 44.7567 92.5097 43.0572 92.6075 41.3982C92.7026 39.6402 92.7363 39.759 92.0884 39.8671C91.1704 40.0203 89.2697 40.6859 88.131 41.2618C85.2494 42.7009 83.0199 45.3875 82.3191 48.2547C81.7865 50.3844 81.7734 51.2204 82.2401 54.0171C82.6018 56.1843 82.7528 56.7564 83.2032 57.8759C84.9457 62.1646 87.8456 66.3224 91.8699 70.3174L92.9318 71.3597L92.7542 69.7965Z" fill="#005E2D"/>
</svg>
