<svg width="19" height="31" viewBox="0 0 19 31" fill="none" xmlns="http://www.w3.org/2000/svg">
<path d="M8.06513 0.461914C7.25159 1.0832 6.8508 1.8131 6.86926 2.65487C7.38084 3.25118 7.98149 3.32395 8.62341 3.16102C8.00864 2.35183 7.77512 1.46227 8.06513 0.461914Z" fill="#410D08"/>
<path d="M3.20221 10.751C2.61785 11.3571 2.2453 12.1054 2.00635 12.9439C2.5125 13.3447 3.11315 13.4653 3.7605 13.4501C3.33581 12.7202 3.09359 11.861 3.20221 10.751Z" fill="#410D08"/>
<path d="M10.6958 0.461914C11.0944 1.46444 11.0151 2.34314 10.6958 3.16102C11.2508 3.2099 11.7613 3.13278 12.1306 2.65487C11.997 1.5307 11.4844 0.839898 10.6958 0.461914Z" fill="#410D08"/>
<path d="M16.7542 10.751C17.03 11.7589 17.0637 12.6713 16.7542 13.4501C17.4069 13.4523 17.9652 13.3621 18.189 12.9439C18.1292 12.3389 17.5384 11.5743 16.7542 10.751Z" fill="#410D08"/>
<path d="M7.74562 4.7632C7.28075 4.62309 6.24346 5.04017 5.24094 5.91345C4.24493 6.7802 3.7605 7.79685 3.7605 8.22045C4.24493 10.4742 6.96358 12.6998 7.74671 12.6053C8.52983 12.5119 10.0048 9.81819 9.11201 6.95833C8.78834 5.92539 8.2105 4.90332 7.74562 4.7632Z" fill="#410D08"/>
<path d="M12.1305 4.76311C12.6464 4.40033 14.0019 5.31271 15.1131 6.44883C15.7691 7.11899 16.3556 7.85541 16.3556 8.30508C16.3556 8.75475 15.3966 9.85612 14.5276 10.7403C13.662 11.6211 12.6051 12.6063 12.1305 12.6063C9.80391 9.24026 11.6135 5.1248 12.1305 4.76311Z" fill="#410D08"/>
<path d="M2.8829 14.2083C3.68883 14.4397 6.86911 18.83 6.86911 19.8586C6.86911 20.8872 3.8246 25.3372 2.8829 25.3404C1.9412 25.3437 0.179444 23.1029 0.331506 19.7749C0.483569 17.419 2.07697 13.977 2.8829 14.2083Z" fill="#410D08"/>
<path d="M17.4711 14.7147C16.7228 14.6202 15.2336 15.6618 13.9465 17.1325C12.9961 18.2186 12.2771 19.2136 12.2771 20.0293C12.2771 20.845 12.7376 21.9637 13.6033 23.2215C14.3299 24.2762 14.9469 25.4123 15.717 25.3406C16.4871 25.2689 17.7926 22.7621 18.5866 19.7751C18.9548 18.0644 18.2195 14.8092 17.4711 14.7147Z" fill="#410D08"/>
<path d="M9.63463 21.9246C8.55715 21.9246 7.36347 22.9314 6.0188 24.4097C4.36783 26.2258 3.48478 28.5914 3.601 29.1345C3.71722 29.6776 4.02895 31.4752 9.20125 29.9404C11.744 31.0961 14.8373 30.2554 14.921 29.1345C15.0046 28.0136 14.518 26.6016 13.3037 24.8843C11.9873 23.0248 10.7121 21.9246 9.63463 21.9246Z" fill="#410D08"/>
</svg>
