<svg width="1231" height="416" viewBox="0 0 1231 416" fill="none" xmlns="http://www.w3.org/2000/svg">
<mask id="mask0_712_483" style="mask-type:alpha" maskUnits="userSpaceOnUse" x="0" y="0" width="1231" height="416">
<rect width="1231" height="416" fill="#C4C4C4"/>
</mask>
<g mask="url(#mask0_712_483)">
<path fill-rule="evenodd" clip-rule="evenodd" d="M1069.09 26.1103C1072.27 17.2967 1084.73 17.2968 1087.91 26.1103L1257.71 497.36C1260.05 503.877 1255.23 510.75 1248.3 510.75H1083.16C1077.92 513.873 1071.8 515.667 1065.26 515.667H890.262C884.09 515.667 878.291 514.07 873.256 511.266V520.944C873.256 540.273 857.586 555.944 838.256 555.944H663.256C643.926 555.944 628.256 540.273 628.256 520.943V489.579H474.261C457.384 489.579 443.297 477.633 439.993 461.736C439.419 461.764 438.841 461.778 438.26 461.778H328V507.558C328 526.888 312.33 542.558 293 542.558H118C98.67 542.558 83 526.888 83 507.558V425.5H7.48691C4.1105 425.5 1.70476 422.222 2.71681 419.001L97.2299 118.182C98.6966 113.514 105.303 113.514 106.77 118.182L121.48 165H155.362L174.301 112.921C175.897 108.533 182.103 108.533 183.699 112.921L196.737 148.773L258.69 33.4057C262.463 26.3805 272.537 26.3805 276.31 33.4057L303.598 84.2194H417.451L442.432 30.499C446.018 22.7879 456.982 22.7879 460.567 30.499L494.881 104.288L513.612 72.012C517.466 65.3712 527.056 65.3712 530.91 72.012L554.129 112.021H649.261C651.304 112.021 653.306 112.196 655.253 112.531L677.607 74.012C681.461 67.3712 691.052 67.3712 694.905 74.012L755.047 177.643L772.619 133.714C774.295 129.523 780.227 129.523 781.904 133.714L799.773 178.385H801.445L819.358 133.605C821.034 129.415 826.966 129.415 828.643 133.605L843.1 169.746L874.358 91.6052C876.034 87.4146 881.966 87.4146 883.643 91.6052L902.245 138.109H903.66L922.619 90.7139C924.295 86.5233 930.227 86.5233 931.904 90.7139L949.372 134.383L996.886 29.1791C1000.43 21.3338 1011.57 21.3338 1015.11 29.1791L1028.62 59.0797C1029.41 59.0268 1030.2 58.9999 1031 58.9999H1057.24L1069.09 26.1103Z" fill="url(#paint0_linear_712_483)"/>
<circle cx="104" cy="209" r="13" fill="white"/>
<circle cx="172" cy="208" r="13" fill="white"/>
<circle cx="299.262" cy="143.109" r="13" fill="white"/>
<circle cx="426.262" cy="143.109" r="13" fill="white"/>
<circle cx="536.261" cy="156.109" r="13" fill="white"/>
<circle cx="621.261" cy="156.109" r="13" fill="white"/>
<circle cx="1019.26" cy="117.109" r="13" fill="white"/>
<circle cx="786.261" cy="203.109" r="7" fill="white"/>
<circle cx="882" cy="171" r="8" fill="white"/>
<circle cx="927" cy="171" r="8" fill="white"/>
<circle cx="823.261" cy="203.109" r="7" fill="white"/>
<circle cx="1079" cy="116" r="13" fill="white"/>
</g>
<defs>
<linearGradient id="paint0_linear_712_483" x1="596.669" y1="649.506" x2="451.806" y2="-21.5829" gradientUnits="userSpaceOnUse">
<stop stop-color="#FFA756"/>
<stop offset="1" stop-color="#4B0101"/>
</linearGradient>
</defs>
</svg>
