<svg width="36" height="28" viewBox="0 0 36 28" fill="none" xmlns="http://www.w3.org/2000/svg">
<path d="M3.68267 9.8883C3.97809 10.8469 4.52008 11.4612 5.31396 11.7265C6.05141 11.4546 6.33044 10.9251 6.40349 10.2785C5.43066 10.5741 4.51655 10.4912 3.68267 9.8883Z" fill="#E3CEC0"/>
<path d="M11.6609 17.8353C12.0226 18.5773 12.5917 19.1718 13.2921 19.6732C13.8447 19.3409 14.1684 18.8274 14.3815 18.2254C13.5497 18.3723 12.6611 18.3076 11.6609 17.8353Z" fill="#E3CEC0"/>
<path d="M4.58521 7.48633C5.66351 7.45485 6.458 7.82291 7.11122 8.39212C7.35199 7.89625 7.4592 7.39919 7.14171 6.89796C6.04268 6.644 5.21604 6.88536 4.58521 7.48633Z" fill="#E3CEC0"/>
<path d="M16.3381 5.43213C17.3784 5.51575 18.2441 5.79085 18.8641 6.33791C19.0955 5.73614 19.2073 5.19062 18.8946 4.84377C18.3074 4.69588 17.3842 4.98463 16.3381 5.43213Z" fill="#E3CEC0"/>
<path d="M7.62469 11.6479C7.33046 12.0294 7.35629 13.1252 7.82086 14.3419C8.28164 15.5504 9.06217 16.3376 9.45826 16.4795C11.7357 16.7884 14.7712 15.0284 14.9577 14.2749C15.1453 13.5218 13.1445 11.2596 10.1569 11.1241C9.07746 11.0763 7.91891 11.2663 7.62469 11.6479Z" fill="#E3CEC0"/>
<path d="M9.12449 7.64871C8.96638 7.05147 10.2956 6.10763 11.7483 5.46409C12.6054 5.08392 13.5 4.79004 13.9205 4.94077C14.3411 5.0915 15.0343 6.34487 15.556 7.44231C16.0758 8.53565 16.626 9.84018 16.4594 10.2778C12.4946 11.2943 9.2812 8.24659 9.12449 7.64871Z" fill="#E3CEC0"/>
<path d="M14.8034 19.3256C15.303 18.6597 20.5277 17.1984 21.4901 17.5434C22.4524 17.8884 25.5464 22.1897 25.2186 23.0596C24.8908 23.9294 22.1755 24.803 19.1153 23.5465C16.9645 22.6159 14.3039 19.9914 14.8034 19.3256Z" fill="#E3CEC0"/>
<path d="M20.3357 6.11965C19.9844 6.77826 20.4358 8.5012 21.3595 10.1817C22.0418 11.4226 22.72 12.4195 23.4831 12.6931C24.2463 12.9667 25.4546 12.9171 26.9354 12.5404C28.1773 12.2239 29.4569 12.0359 29.6603 11.3015C29.8638 10.5671 27.9771 8.52206 25.4617 6.7879C23.9906 5.87452 20.6869 5.46104 20.3357 6.11965Z" fill="#E3CEC0"/>
<path d="M24.3941 15.756C24.0167 16.7468 24.5378 18.1811 25.4459 19.9118C26.5618 22.037 28.4594 23.64 29.0067 23.7147C29.5541 23.7894 31.3402 24.1037 31.7202 18.8346C33.6889 16.8829 33.9882 13.7573 32.9718 13.3057C31.9554 12.854 30.4677 12.8293 28.4404 13.3718C26.2446 13.9606 24.7715 14.7653 24.3941 15.756Z" fill="#E3CEC0"/>
</svg>
