<svg width="36" height="34" viewBox="0 0 36 34" fill="none" xmlns="http://www.w3.org/2000/svg">
<path d="M4.77551 8.35945C4.76283 9.38301 5.09019 10.1487 5.76419 10.6533C6.5491 10.6183 6.97682 10.1904 7.24448 9.58464C6.22836 9.5695 5.3841 9.20469 4.77551 8.35945Z" fill="white"/>
<path d="M9.87523 18.533C9.99192 19.3668 10.3512 20.1216 10.8639 20.8269C11.4916 20.6756 11.9569 20.2772 12.3442 19.7582C11.5077 19.6424 10.682 19.3031 9.87523 18.533Z" fill="white"/>
<path d="M6.39795 6.2887C7.43295 6.59322 8.07573 7.19756 8.52259 7.95335C8.90338 7.5466 9.15752 7.09719 9.00908 6.51175C8.04177 5.92359 7.18182 5.90109 6.39795 6.2887Z" fill="white"/>
<path d="M18.2334 7.86536C19.197 8.26984 19.9359 8.80604 20.358 9.53001C20.7624 9.0175 21.0357 8.52244 20.8445 8.08841C20.3315 7.76231 19.3651 7.75583 18.2334 7.86536Z" fill="white"/>
<path d="M7.96411 11.2635C7.56711 11.543 7.25568 12.6168 7.32479 13.9445C7.39279 15.2631 7.89429 16.2714 8.22774 16.5327C10.3006 17.5414 13.7292 16.7739 14.1378 16.0992C14.5472 15.4251 13.3366 12.6028 10.5348 11.5418C9.52203 11.1595 8.36111 10.984 7.96411 11.2635Z" fill="white"/>
<path d="M10.6684 7.81195C10.701 7.18209 12.2552 6.67777 13.8348 6.50381C14.7669 6.40072 15.7084 6.3932 16.0623 6.67054C16.4163 6.94787 16.6917 8.38208 16.8518 9.61135C17.0113 10.8361 17.135 12.2755 16.8422 12.6492C12.7577 12.4046 10.6342 8.442 10.6684 7.81195Z" fill="white"/>
<path d="M12.4 20.9166C13.0791 20.4249 18.4964 20.6292 19.3061 21.2635C20.1158 21.8979 21.741 27.0389 21.1628 27.7822C20.5845 28.5255 17.7341 28.5303 15.2082 26.3581C13.4476 24.7854 11.7208 21.4083 12.4 20.9166Z" fill="white"/>
<path d="M21.7959 9.74544C21.26 10.2762 21.1615 12.0908 21.5254 14.011C21.7942 15.429 22.1339 16.6086 22.776 17.1117C23.4181 17.6148 24.5828 17.9423 26.1068 18.0366C27.3851 18.115 28.6599 18.3301 29.0784 17.6797C29.4969 17.0293 28.3288 14.4555 26.4673 11.9883C25.3478 10.6434 22.3319 9.21463 21.7959 9.74544Z" fill="white"/>
<path d="M22.6381 20.3608C21.9736 21.209 22.03 22.7696 22.3643 24.7398C22.7756 27.1594 24.0932 29.3135 24.5923 29.5569C25.0915 29.8004 26.6988 30.6637 28.6806 25.6457C31.1585 24.3569 32.4046 21.4034 31.5738 20.6463C30.7431 19.8891 29.3315 19.4013 27.2308 19.2981C24.9552 19.1875 23.3026 19.5127 22.6381 20.3608Z" fill="white"/>
</svg>
