<svg width="512" height="453" viewBox="0 0 512 453" fill="none" xmlns="http://www.w3.org/2000/svg">
<path d="M493.351 244.149C471.753 229.934 457.061 205.811 441.504 180.273C439.679 177.276 437.846 174.27 435.994 171.26C465.603 87.6298 425.445 20.395 423.671 17.496L412.97 0.000999449L343.55 80.6859C318.523 69.7559 289.558 64.3919 256 64.3919C222.442 64.3919 193.476 69.7569 168.449 80.6859L99.0278 0L88.3268 17.495C86.5548 20.394 46.3949 87.6308 76.0039 171.259C74.1519 174.269 72.3189 177.276 70.4939 180.272C54.9379 205.811 40.2439 229.933 18.647 244.148L0 256.422L18.454 268.984C19.722 269.848 145.601 355.635 174.313 384.346C183.396 393.43 190.626 402.854 197.62 411.968C213.424 432.566 228.352 452.023 256 452.023C283.647 452.023 298.575 432.566 314.379 411.968C321.372 402.854 328.602 393.43 337.686 384.346C366.397 355.635 492.276 269.847 493.545 268.984L512 256.422L493.351 244.149ZM407.027 52.7329C413.837 71.5509 420.988 102.363 414.038 138.397C404.369 125.555 393.33 113.32 379.739 102.476C376.658 100.017 373.497 97.6818 370.26 95.4648L407.027 52.7329ZM99.0478 73.1669C100.78 65.3939 102.902 58.5179 104.99 52.7539L141.739 95.4668C138.502 97.6838 135.342 100.019 132.261 102.477C118.651 113.335 107.6 125.59 97.9208 138.451C93.7598 117.099 94.1268 95.2428 99.0478 73.1669ZM209.857 379.197C205.529 373.944 200.787 368.552 195.446 363.211C172.665 340.43 98.3348 287.902 59.3939 260.881C81.8658 254.102 116.836 246.129 157.031 246.129C168.897 246.129 178.301 249.907 185.781 257.677C209.174 281.982 210.824 338.337 209.857 379.197ZM256 422.135C249.52 422.135 244.226 419.447 238.589 414.197C238.685 410.412 238.852 406.017 239.037 401.184C239.081 400.048 239.125 398.89 239.169 397.718H272.831C272.875 398.89 272.92 400.048 272.963 401.184C273.147 406.017 273.315 410.412 273.411 414.197C267.773 419.446 262.479 422.135 256 422.135ZM272.042 367.832H239.958C240.363 322.523 236.177 266.94 207.315 236.953C194.088 223.21 177.171 216.242 157.032 216.242C126.813 216.242 99.4468 220.31 77.2909 225.275C83.9078 215.688 90.0048 205.697 96.0198 195.821C111.282 170.765 127.064 144.857 150.901 125.839C177.521 104.602 211.899 94.2778 256.001 94.2778C300.102 94.2778 334.48 104.601 361.1 125.839C384.937 144.857 400.719 170.766 415.981 195.821C421.996 205.696 428.093 215.688 434.71 225.275C412.554 220.31 385.188 216.242 354.969 216.242C334.831 216.242 317.913 223.21 304.686 236.953C275.822 266.939 271.637 322.522 272.042 367.832ZM316.553 363.212C311.212 368.553 306.471 373.945 302.141 379.198C301.174 338.338 302.824 281.982 326.217 257.678C333.697 249.907 343.1 246.13 354.967 246.13C394.999 246.13 430.034 254.119 452.57 260.905C413.62 287.933 339.327 340.437 316.553 363.212Z" fill="white"/>
<path d="M362.023 262.296C352.58 262.296 344.918 270.049 344.918 279.615C344.918 289.18 352.578 296.934 362.023 296.934C371.455 296.934 379.116 289.18 379.116 279.615C379.116 270.049 371.456 262.296 362.023 262.296Z" fill="white"/>
<path d="M149.986 262.296C140.543 262.296 132.881 270.049 132.881 279.615C132.881 289.18 140.541 296.934 149.986 296.934C159.418 296.934 167.079 289.18 167.079 279.615C167.078 270.049 159.418 262.296 149.986 262.296Z" fill="white"/>
</svg>
