<svg width="93" height="68" viewBox="0 0 93 68" fill="none" xmlns="http://www.w3.org/2000/svg">
<mask id="mask0_429_445" style="mask-type:alpha" maskUnits="userSpaceOnUse" x="0" y="0" width="93" height="68">
<path fill-rule="evenodd" clip-rule="evenodd" d="M64.9998 36.3884C65.0023 35.2917 64.9873 34.1546 64.9543 32.9756C64.9543 14.7637 58.5 6.5 32.4772 0C14.5405 0 0 14.7637 0 32.9756C0 51.1875 14.5405 65.9511 32.4772 65.9511C33.6882 65.9511 34.8882 65.9637 36.073 65.976C46.0714 66.0804 54.9818 66.1734 60.1884 58.6313L75.6595 67.9018C75.6595 67.9018 91.5001 48.5001 92.4998 47C88.6901 46.9253 85.4048 46.9599 82.5708 46.9897C69.6859 47.1253 66.1272 47.1627 64.9998 36.3884Z" fill="white"/>
</mask>
<g mask="url(#mask0_429_445)">
<rect x="40" y="3" width="50" height="45" fill="white"/>
</g>
</svg>
