<svg width="29" height="23" viewBox="0 0 29 23" fill="none" xmlns="http://www.w3.org/2000/svg">
<path d="M10.9038 21.6172C10.0372 21.6172 10.1928 21.3019 9.88168 20.5241L7.34869 12.6199L23.0799 3.32837L24.9241 3.79084L23.391 7.74292L10.9038 21.6172Z" fill="#C8DAEA"/>
<path d="M10.9038 21.6169C11.5704 21.6169 11.8592 21.3226 12.237 20.9863C12.8147 20.4608 20.2359 13.6287 20.2359 13.6287L15.6809 12.5776L11.4593 15.1002L10.9038 21.4067V21.6169Z" fill="#A9C9DD"/>
<path d="M11.3481 15.1845L22.1022 22.6892C23.3243 23.3198 24.2131 23.0045 24.5241 21.6171L28.9013 2.10899C29.3457 0.406237 28.2125 -0.350542 27.0349 0.153978L1.34951 9.52964C-0.405812 10.2023 -0.383593 11.1273 1.03844 11.5267L7.63754 13.4817L22.9021 4.37933C23.6132 3.9589 24.2797 4.19014 23.7465 4.65261L11.3481 15.1845Z" fill="url(#paint0_linear_734_445)"/>
<defs>
<linearGradient id="paint0_linear_734_445" x1="17.7897" y1="10.8445" x2="22.9128" y2="19.5085" gradientUnits="userSpaceOnUse">
<stop stop-color="#EFF7FC"/>
<stop offset="1" stop-color="white"/>
</linearGradient>
</defs>
</svg>
