<svg width="1220" height="105" viewBox="0 0 1220 105" fill="none" xmlns="http://www.w3.org/2000/svg">
<g clip-path="url(#clip0_507_448)">
<rect width="1218.95" height="104.827" transform="translate(0.988281 0.122559)" fill="white"/>
<path d="M1188.4 80.8867C1188.86 81.7813 1189.5 82.2971 1190.33 82.4283C1191.01 82.0406 1191.19 81.4743 1191.15 80.8264C1190.24 81.2759 1189.33 81.3435 1188.4 80.8867Z" fill="#E3CEC0"/>
<path d="M1197.64 87.4089C1198.13 88.0797 1198.79 88.5715 1199.57 88.9504C1200.06 88.5333 1200.29 87.9755 1200.39 87.3486C1199.6 87.6288 1198.71 87.7102 1197.64 87.4089Z" fill="#E3CEC0"/>
<path d="M1188.87 78.3682C1189.93 78.1612 1190.78 78.3935 1191.52 78.8466C1191.67 78.3196 1191.69 77.8133 1191.29 77.3721C1190.16 77.3018 1189.39 77.6741 1188.87 78.3682Z" fill="#E3CEC0"/>
<path d="M1200.1 74.4131C1201.14 74.3255 1202.04 74.4547 1202.75 74.8916C1202.87 74.2619 1202.89 73.7071 1202.52 73.4171C1201.92 73.3675 1201.05 73.8022 1200.1 74.4131Z" fill="#E3CEC0"/>
<path d="M1192.58 81.9746C1192.36 82.3978 1192.58 83.4715 1193.25 84.5924C1193.91 85.7059 1194.82 86.3528 1195.24 86.4278C1197.54 86.3599 1200.23 84.1334 1200.28 83.3618C1200.34 82.5905 1197.97 80.6919 1194.99 81.0461C1193.92 81.1753 1192.81 81.5513 1192.58 81.9746Z" fill="#E3CEC0"/>
<path d="M1193.37 77.7804C1193.11 77.2188 1194.26 76.0735 1195.58 75.2035C1196.36 74.6896 1197.19 74.2546 1197.63 74.3342C1198.07 74.4138 1198.98 75.5335 1199.68 76.5278C1200.39 77.5183 1201.16 78.7116 1201.07 79.1692C1197.33 80.8162 1193.63 78.3429 1193.37 77.7804Z" fill="#E3CEC0"/>
<path d="M1200.99 88.3589C1201.37 87.6225 1206.27 85.3324 1207.28 85.5146C1208.29 85.6969 1212.09 89.4223 1211.92 90.3313C1211.75 91.2403 1209.22 92.5428 1205.98 91.8065C1203.7 91.2424 1200.61 89.0954 1200.99 88.3589Z" fill="#E3CEC0"/>
<path d="M1204.15 74.4398C1203.92 75.1449 1204.67 76.7658 1205.87 78.2678C1206.76 79.377 1207.6 80.2468 1208.4 80.3913C1209.21 80.5358 1210.39 80.2898 1211.79 79.6776C1212.96 79.1636 1214.19 78.7698 1214.26 78.0143C1214.33 77.2588 1212.11 75.5554 1209.33 74.2603C1207.72 73.6021 1204.38 73.7347 1204.15 74.4398Z" fill="#E3CEC0"/>
<path d="M1209.82 83.2674C1209.62 84.3039 1210.39 85.6302 1211.59 87.1849C1213.06 89.094 1215.21 90.3615 1215.77 90.3457C1216.32 90.3298 1218.14 90.3476 1217.6 85.1006C1219.2 82.8587 1218.95 79.7344 1217.87 79.4558C1216.79 79.1773 1215.31 79.396 1213.4 80.2607C1211.34 81.1986 1210.02 82.2309 1209.82 83.2674Z" fill="#E3CEC0"/>
<path d="M1132.51 82.4218C1133.27 81.755 1134.06 81.5016 1134.89 81.6683C1135.38 82.2624 1135.34 82.8489 1135.06 83.433C1134.38 82.7027 1133.55 82.3221 1132.51 82.4218Z" fill="#E3CEC0"/>
<path d="M1143.51 79.6594C1144.22 79.2088 1145.02 78.9856 1145.89 78.906C1146.19 79.4602 1146.2 80.0551 1146.06 80.6705C1145.42 80.1357 1144.62 79.7523 1143.51 79.6594Z" fill="#E3CEC0"/>
<path d="M1132.04 84.9146C1132.95 85.4732 1133.83 85.5532 1134.69 85.393C1134.64 85.9321 1134.47 86.4064 1133.93 86.6746C1132.85 86.3476 1132.27 85.7352 1132.04 84.9146Z" fill="#E3CEC0"/>
<path d="M1141.08 92.5269C1142.02 92.9692 1142.91 93.1631 1143.73 93.0053C1143.61 93.6295 1143.42 94.1471 1142.97 94.2868C1142.38 94.1225 1141.74 93.4222 1141.08 92.5269Z" fill="#E3CEC0"/>
<path d="M1136.81 82.907C1136.75 82.4384 1137.35 81.5223 1138.4 80.72C1139.43 79.9228 1140.52 79.6404 1140.93 79.7154C1143.06 80.5768 1144.74 83.5656 1144.5 84.2964C1144.27 85.0273 1141.35 85.9582 1138.71 84.5997C1137.76 84.1079 1136.86 83.3755 1136.81 82.907Z" fill="#E3CEC0"/>
<path d="M1136.03 87.0595C1135.58 87.4878 1136.22 88.9434 1137.13 90.2054C1137.67 90.9504 1138.28 91.6407 1138.73 91.7203C1139.17 91.8 1140.43 91.0794 1141.45 90.4064C1142.48 89.736 1143.64 88.9015 1143.73 88.4484C1140.85 85.6313 1136.48 86.63 1136.03 87.0595Z" fill="#E3CEC0"/>
<path d="M1146.99 79.989C1147.07 80.7998 1150.79 84.6157 1151.8 84.7979C1152.81 84.9802 1157.74 82.8604 1157.92 81.9614C1158.1 81.0625 1156.22 78.9825 1152.92 78.5381C1150.58 78.2659 1146.91 79.1781 1146.99 79.989Z" fill="#E3CEC0"/>
<path d="M1144.85 93.9518C1144.89 93.2203 1146.19 91.9825 1147.87 91.0137C1149.11 90.2984 1150.22 89.7879 1151.02 89.9324C1151.82 90.0769 1152.84 90.715 1153.91 91.7647C1154.82 92.6455 1155.82 93.4361 1155.61 94.1589C1155.39 94.8818 1152.69 95.6846 1149.61 95.9138C1147.86 95.9624 1144.8 94.6833 1144.85 93.9518Z" fill="#E3CEC0"/>
<path d="M1153.37 87.7982C1153.57 86.7719 1154.77 85.8127 1156.47 84.793C1158.55 83.5412 1161.03 83.118 1161.54 83.3247C1162.05 83.5314 1163.76 84.1459 1161.3 88.8018C1161.97 91.4282 1160.58 94.2263 1159.46 94.1079C1158.35 93.9895 1157.05 93.2765 1155.59 91.8163C1154.01 90.2337 1153.17 88.8246 1153.37 87.7982Z" fill="#E3CEC0"/>
<path d="M1044.48 69.0146C1044.94 69.9092 1045.58 70.425 1046.41 70.5563C1047.09 70.1686 1047.28 69.6022 1047.24 68.9543C1046.33 69.4038 1045.41 69.4715 1044.48 69.0146Z" fill="#E3CEC0"/>
<path d="M1053.73 75.5368C1054.21 76.2076 1054.88 76.6994 1055.66 77.0783C1056.14 76.6612 1056.37 76.1034 1056.48 75.4765C1055.68 75.7568 1054.79 75.8382 1053.73 75.5368Z" fill="#E3CEC0"/>
<path d="M1044.96 66.4961C1046.02 66.2891 1046.86 66.5214 1047.61 66.9745C1047.76 66.4475 1047.78 65.9412 1047.38 65.5C1046.25 65.4297 1045.47 65.802 1044.96 66.4961Z" fill="#E3CEC0"/>
<path d="M1056.19 62.541C1057.23 62.4534 1058.13 62.5827 1058.84 63.0195C1058.96 62.3898 1058.98 61.835 1058.61 61.545C1058 61.4954 1057.14 61.9301 1056.19 62.541Z" fill="#E3CEC0"/>
<path d="M1048.67 70.1025C1048.44 70.5258 1048.66 71.5994 1049.33 72.7203C1050 73.8338 1050.91 74.4807 1051.32 74.5557C1053.62 74.4878 1056.31 72.2613 1056.37 71.4898C1056.42 70.7184 1054.05 68.8198 1051.08 69.1741C1050 69.3032 1048.89 69.6792 1048.67 70.1025Z" fill="#E3CEC0"/>
<path d="M1049.45 65.9084C1049.19 65.3467 1050.34 64.2014 1051.66 63.3314C1052.44 62.8176 1053.28 62.3825 1053.72 62.4621C1054.16 62.5418 1055.06 63.6614 1055.77 64.6557C1056.47 65.6462 1057.24 66.8396 1057.15 67.2972C1053.42 68.9441 1049.71 66.4708 1049.45 65.9084Z" fill="#E3CEC0"/>
<path d="M1057.07 76.4869C1057.45 75.7504 1062.35 73.4603 1063.36 73.6426C1064.37 73.8248 1068.18 77.5502 1068.01 78.4593C1067.84 79.3683 1065.31 80.6708 1062.07 79.9344C1059.78 79.3703 1056.7 77.2233 1057.07 76.4869Z" fill="#E3CEC0"/>
<path d="M1060.24 62.5677C1060 63.2728 1060.75 64.8937 1061.96 66.3958C1062.85 67.5049 1063.69 68.3747 1064.49 68.5192C1065.29 68.6638 1066.48 68.4177 1067.87 67.8056C1069.04 67.2915 1070.27 66.8977 1070.35 66.1422C1070.42 65.3867 1068.2 63.6833 1065.41 62.3883C1063.8 61.73 1060.47 61.8626 1060.24 62.5677Z" fill="#E3CEC0"/>
<path d="M1065.91 71.3953C1065.71 72.4318 1066.47 73.7581 1067.67 75.3129C1069.15 77.222 1071.3 78.4895 1071.85 78.4736C1072.41 78.4578 1074.23 78.4755 1073.68 73.2286C1075.29 70.9867 1075.04 67.8623 1073.95 67.5838C1072.87 67.3052 1071.4 67.5239 1069.49 68.3886C1067.42 69.3265 1066.11 70.3588 1065.91 71.3953Z" fill="#E3CEC0"/>
<path d="M1089.66 67.0449C1090.12 67.9395 1090.76 68.4553 1091.59 68.5865C1092.27 68.1988 1092.45 67.6325 1092.41 66.9846C1091.5 67.4341 1090.59 67.5017 1089.66 67.0449Z" fill="#E3CEC0"/>
<path d="M1098.9 73.5671C1099.39 74.2379 1100.05 74.7297 1100.83 75.1086C1101.32 74.6915 1101.55 74.1337 1101.65 73.5068C1100.86 73.787 1099.97 73.8684 1098.9 73.5671Z" fill="#E3CEC0"/>
<path d="M1090.13 64.5264C1091.19 64.3194 1092.04 64.5517 1092.78 65.0048C1092.93 64.4778 1092.95 63.9715 1092.55 63.5303C1091.42 63.46 1090.65 63.8323 1090.13 64.5264Z" fill="#E3CEC0"/>
<path d="M1101.36 60.5713C1102.4 60.4837 1103.3 60.6129 1104.01 61.0498C1104.13 60.4201 1104.15 59.8653 1103.78 59.5753C1103.18 59.5257 1102.31 59.9604 1101.36 60.5713Z" fill="#E3CEC0"/>
<path d="M1093.84 68.1328C1093.62 68.556 1093.84 69.6297 1094.51 70.7506C1095.17 71.8641 1096.08 72.511 1096.5 72.586C1098.8 72.5181 1101.49 70.2916 1101.54 69.52C1101.6 68.7487 1099.23 66.8501 1096.25 67.2043C1095.18 67.3335 1094.07 67.7095 1093.84 68.1328Z" fill="#E3CEC0"/>
<path d="M1094.63 63.9386C1094.37 63.377 1095.52 62.2317 1096.84 61.3617C1097.62 60.8479 1098.45 60.4128 1098.89 60.4924C1099.33 60.572 1100.24 61.6917 1100.94 62.686C1101.65 63.6765 1102.42 64.8698 1102.33 65.3274C1098.59 66.9744 1094.89 64.5011 1094.63 63.9386Z" fill="#E3CEC0"/>
<path d="M1102.25 74.5171C1102.63 73.7807 1107.53 71.4906 1108.54 71.6728C1109.55 71.8551 1113.35 75.5805 1113.18 76.4895C1113.01 77.3985 1110.48 78.701 1107.24 77.9647C1104.96 77.4006 1101.87 75.2536 1102.25 74.5171Z" fill="#E3CEC0"/>
<path d="M1105.41 60.598C1105.18 61.3031 1105.93 62.924 1107.13 64.426C1108.02 65.5352 1108.86 66.405 1109.66 66.5495C1110.47 66.694 1111.65 66.448 1113.05 65.8358C1114.22 65.3218 1115.45 64.928 1115.52 64.1725C1115.59 63.417 1113.37 61.7136 1110.59 60.4185C1108.98 59.7603 1105.64 59.8929 1105.41 60.598Z" fill="#E3CEC0"/>
<path d="M1111.08 69.4256C1110.88 70.4621 1111.65 71.7884 1112.85 73.3431C1114.32 75.2522 1116.47 76.5197 1117.03 76.5039C1117.58 76.488 1119.4 76.5058 1118.86 71.2588C1120.46 69.0169 1120.21 65.8926 1119.13 65.614C1118.04 65.3355 1116.57 65.5542 1114.66 66.4189C1112.6 67.3568 1111.28 68.3891 1111.08 69.4256Z" fill="#E3CEC0"/>
<path d="M980.172 51.8004C980.608 52.706 981.236 53.2371 982.063 53.388C982.753 53.0162 982.95 52.4541 982.926 51.8051C982.006 52.2333 981.088 52.2793 980.172 51.8004Z" fill="#E3CEC0"/>
<path d="M989.247 58.5419C989.716 59.2243 990.369 59.7319 991.138 60.1292C991.635 59.7236 991.88 59.1711 992.001 58.5466C991.199 58.8081 990.309 58.8685 989.247 58.5419Z" fill="#E3CEC0"/>
<path d="M980.709 49.2949C981.773 49.1129 982.615 49.3653 983.347 49.8361C983.512 49.3126 983.544 48.8066 983.154 48.3559C982.028 48.2588 981.245 48.613 980.709 49.2949Z" fill="#E3CEC0"/>
<path d="M992.034 45.6094C993.077 45.5464 993.976 45.697 994.672 46.1506C994.811 45.5237 994.841 44.9692 994.479 44.6703C993.875 44.6064 993.004 45.0209 992.034 45.6094Z" fill="#E3CEC0"/>
<path d="M984.33 52.9887C984.096 53.4067 984.285 54.4857 984.926 55.6226C985.563 56.752 986.454 57.4204 986.868 57.5052C989.17 57.4916 991.916 55.3283 991.988 54.5579C992.062 53.7877 989.741 51.8328 986.761 52.117C985.684 52.2208 984.565 52.5706 984.33 52.9887Z" fill="#E3CEC0"/>
<path d="M985.221 48.8155C984.975 48.2477 986.152 47.1293 987.495 46.2903C988.287 45.7948 989.13 45.3794 989.569 45.4694C990.008 45.5595 990.882 46.7006 991.563 47.7117C992.241 48.7191 992.981 49.9308 992.881 50.3864C989.104 51.9454 985.466 49.3842 985.221 48.8155Z" fill="#E3CEC0"/>
<path d="M992.572 59.5731C992.968 58.8454 997.926 56.6707 998.931 56.8768C999.936 57.083 1003.64 60.899 1003.45 61.8041C1003.25 62.7092 1000.69 63.9523 997.474 63.1392C995.204 62.521 992.177 60.3008 992.572 59.5731Z" fill="#E3CEC0"/>
<path d="M996.085 45.7323C995.835 46.4321 996.54 48.0709 997.705 49.6017C998.566 50.732 999.387 51.6219 1000.18 51.7854C1000.98 51.9489 1002.17 51.7308 1003.58 51.1515C1004.76 50.665 1006 50.3002 1006.1 49.5462C1006.19 48.7923 1004.01 47.0362 1001.26 45.6751C999.67 44.9787 996.335 45.0326 996.085 45.7323Z" fill="#E3CEC0"/>
<path d="M1001.53 54.6937C1001.31 55.7255 1002.04 57.0698 1003.2 58.6529C1004.62 60.5968 1006.74 61.9152 1007.29 61.9124C1007.85 61.9096 1009.66 61.9703 1009.25 56.7104C1010.91 54.5064 1010.74 51.376 1009.67 51.072C1008.59 50.7679 1007.12 50.9517 1005.19 51.7715C1003.1 52.6606 1001.76 53.6618 1001.53 54.6937Z" fill="#E3CEC0"/>
<path d="M924.264 52.0003C925.04 51.3513 925.837 51.1165 926.655 51.3027C927.131 51.9086 927.077 52.4942 926.784 53.0719C926.122 52.3253 925.301 51.925 924.264 52.0003Z" fill="#E3CEC0"/>
<path d="M935.332 49.5016C936.046 49.0675 936.855 48.8632 937.724 48.8041C938.01 49.3655 938.002 49.9607 937.852 50.573C937.228 50.0231 936.439 49.6207 935.332 49.5016Z" fill="#E3CEC0"/>
<path d="M923.731 54.4805C924.628 55.0608 925.503 55.1616 926.369 55.0217C926.301 55.5596 926.119 56.0299 925.575 56.2855C924.505 55.933 923.936 55.3066 923.731 54.4805Z" fill="#E3CEC0"/>
<path d="M932.572 62.3066C933.499 62.7713 934.384 62.9862 935.209 62.8478C935.075 63.4694 934.871 63.9826 934.416 64.1116C933.837 63.9335 933.213 63.2179 932.572 62.3066Z" fill="#E3CEC0"/>
<path d="M928.545 52.5891C928.505 52.1193 929.128 51.2171 930.19 50.4393C931.244 49.6664 932.337 49.4097 932.751 49.4945C934.851 50.4061 936.458 53.4352 936.203 54.1605C935.948 54.8859 933.011 55.7481 930.404 54.3271C929.463 53.8127 928.585 53.0589 928.545 52.5891Z" fill="#E3CEC0"/>
<path d="M927.662 56.7206C927.2 57.1383 927.809 58.6094 928.687 59.8931C929.205 60.6509 929.802 61.3559 930.241 61.4459C930.68 61.536 931.955 60.845 933 60.1962C934.04 59.5499 935.223 58.7427 935.322 58.2915C932.519 55.406 928.123 56.3016 927.662 56.7206Z" fill="#E3CEC0"/>
<path d="M938.797 49.9141C938.856 50.727 942.482 54.6316 943.487 54.8377C944.492 55.0439 949.474 53.0402 949.673 52.1452C949.873 51.2502 948.051 49.1256 944.768 48.6032C942.434 48.2757 938.739 49.1013 938.797 49.9141Z" fill="#E3CEC0"/>
<path d="M936.305 63.8234C936.369 63.0928 937.697 61.8854 939.402 60.9561C940.661 60.27 941.783 59.7856 942.58 59.949C943.376 60.1125 944.373 60.7746 945.422 61.8499C946.301 62.7523 947.282 63.5667 947.051 64.2846C946.821 65.0026 944.1 65.7418 941.016 65.8983C939.269 65.9056 936.242 64.554 936.305 63.8234Z" fill="#E3CEC0"/>
<path d="M944.98 57.8742C945.204 56.8525 946.433 55.9217 948.154 54.942C950.267 53.7394 952.756 53.3748 953.261 53.5935C953.766 53.8122 955.453 54.467 952.882 59.0651C953.48 61.7071 952.017 64.4725 950.908 64.3278C949.798 64.1831 948.523 63.4395 947.102 61.9449C945.563 60.325 944.756 58.8959 944.98 57.8742Z" fill="#E3CEC0"/>
<path d="M836.6 36.4913C837.036 37.3969 837.665 37.928 838.491 38.0789C839.181 37.7072 839.378 37.145 839.354 36.4961C838.435 36.9242 837.517 36.9702 836.6 36.4913Z" fill="#E3CEC0"/>
<path d="M845.675 43.2328C846.144 43.9152 846.797 44.4228 847.566 44.8202C848.064 44.4145 848.308 43.862 848.429 43.2375C847.627 43.499 846.737 43.5594 845.675 43.2328Z" fill="#E3CEC0"/>
<path d="M837.138 33.9858C838.201 33.8038 839.043 34.0562 839.775 34.527C839.94 34.0035 839.972 33.4975 839.583 33.0468C838.456 32.9497 837.673 33.3039 837.138 33.9858Z" fill="#E3CEC0"/>
<path d="M848.462 30.3003C849.505 30.2373 850.404 30.3879 851.099 30.8415C851.239 30.2146 851.268 29.6601 850.907 29.3612C850.303 29.2973 849.432 29.7118 848.462 30.3003Z" fill="#E3CEC0"/>
<path d="M840.758 37.6796C840.524 38.0976 840.713 39.1766 841.355 40.3135C841.992 41.4429 842.882 42.1113 843.296 42.1961C845.599 42.1826 848.344 40.0193 848.416 39.2488C848.49 38.4786 846.17 36.5238 843.189 36.8079C842.113 36.9117 840.993 37.2615 840.758 37.6796Z" fill="#E3CEC0"/>
<path d="M841.649 33.5064C841.404 32.9386 842.58 31.8202 843.923 30.9812C844.716 30.4858 845.558 30.0703 845.997 30.1603C846.437 30.2504 847.31 31.3915 847.991 32.4027C848.669 33.41 849.409 34.6217 849.309 35.0773C845.532 36.6363 841.894 34.0751 841.649 33.5064Z" fill="#E3CEC0"/>
<path d="M849 44.264C849.396 43.5363 854.354 41.3616 855.359 41.5677C856.364 41.7739 860.071 45.5899 859.876 46.495C859.681 47.4001 857.121 48.6432 853.902 47.8301C851.632 47.2119 848.605 44.9917 849 44.264Z" fill="#E3CEC0"/>
<path d="M852.513 30.4232C852.264 31.123 852.968 32.7618 854.134 34.2926C854.995 35.423 855.815 36.3129 856.612 36.4763C857.409 36.6398 858.599 36.4217 860.01 35.8424C861.193 35.3559 862.433 34.9911 862.525 34.2371C862.617 33.4832 860.443 31.7271 857.692 30.366C856.098 29.6696 852.763 29.7235 852.513 30.4232Z" fill="#E3CEC0"/>
<path d="M857.961 39.3846C857.734 40.4164 858.465 41.7607 859.623 43.3438C861.047 45.2877 863.167 46.6061 863.72 46.6033C864.274 46.6005 866.091 46.6612 865.681 41.4014C867.341 39.1973 867.172 36.0669 866.097 35.7629C865.022 35.4588 863.544 35.6426 861.615 36.4624C859.527 37.3515 858.187 38.3527 857.961 39.3846Z" fill="#E3CEC0"/>
<path d="M881.811 35.6027C882.247 36.5083 882.876 37.0393 883.702 37.1902C884.392 36.8185 884.589 36.2564 884.565 35.6074C883.646 36.0355 882.727 36.0815 881.811 35.6027Z" fill="#E3CEC0"/>
<path d="M890.886 42.3441C891.355 43.0265 892.008 43.5341 892.777 43.9315C893.275 43.5258 893.519 42.9734 893.64 42.3488C892.838 42.6103 891.948 42.6708 890.886 42.3441Z" fill="#E3CEC0"/>
<path d="M882.349 33.0972C883.412 32.9151 884.254 33.1675 884.986 33.6384C885.151 33.1148 885.183 32.6088 884.794 32.1581C883.667 32.0611 882.884 32.4152 882.349 33.0972Z" fill="#E3CEC0"/>
<path d="M893.673 29.4116C894.716 29.3486 895.615 29.4992 896.31 29.9528C896.45 29.326 896.479 28.7714 896.118 28.4726C895.514 28.4087 894.642 28.8231 893.673 29.4116Z" fill="#E3CEC0"/>
<path d="M885.969 36.7909C885.735 37.209 885.924 38.2879 886.566 39.4248C887.202 40.5542 888.093 41.2226 888.507 41.3075C890.81 41.2939 893.555 39.1306 893.627 38.3602C893.701 37.5899 891.381 35.6351 888.4 35.9192C887.323 36.023 886.204 36.3729 885.969 36.7909Z" fill="#E3CEC0"/>
<path d="M886.86 32.6178C886.614 32.0499 887.791 30.9315 889.134 30.0926C889.927 29.5971 890.769 29.1816 891.208 29.2717C891.647 29.3617 892.521 30.5029 893.202 31.514C893.88 32.5213 894.62 33.733 894.52 34.1886C890.743 35.7476 887.105 33.1865 886.86 32.6178Z" fill="#E3CEC0"/>
<path d="M894.211 43.3753C894.607 42.6476 899.565 40.4729 900.57 40.6791C901.575 40.8852 905.282 44.7012 905.087 45.6063C904.892 46.5114 902.332 47.7545 899.113 46.9415C896.843 46.3233 893.816 44.103 894.211 43.3753Z" fill="#E3CEC0"/>
<path d="M897.724 29.5346C897.475 30.2343 898.179 31.8731 899.345 33.4039C900.206 34.5343 901.026 35.4242 901.823 35.5877C902.62 35.7511 903.81 35.533 905.221 34.9537C906.404 34.4672 907.644 34.1024 907.736 33.3485C907.828 32.5945 905.654 30.8384 902.903 29.4773C901.309 28.7809 897.974 28.8348 897.724 29.5346Z" fill="#E3CEC0"/>
<path d="M903.171 38.4959C902.945 39.5277 903.676 40.8721 904.834 42.4552C906.257 44.3991 908.377 45.7174 908.931 45.7146C909.484 45.7119 911.302 45.7725 910.892 40.5127C912.552 38.3086 912.382 35.1783 911.307 34.8742C910.232 34.5701 908.754 34.754 906.826 35.5737C904.737 36.4628 903.397 37.4641 903.171 38.4959Z" fill="#E3CEC0"/>
<path d="M749.731 34.9682C750.467 35.6733 751.249 35.9638 752.079 35.8329C752.593 35.2569 752.576 34.665 752.32 34.0646C751.61 34.7692 750.764 35.115 749.731 34.9682Z" fill="#E3CEC0"/>
<path d="M760.638 38.2511C761.325 38.7361 762.121 38.9967 762.986 39.1158C763.307 38.5714 763.338 37.973 763.227 37.3476C762.567 37.8572 761.753 38.2073 760.638 38.2511Z" fill="#E3CEC0"/>
<path d="M749.353 32.4336C750.287 31.9122 751.168 31.8711 752.025 32.071C751.991 31.526 751.839 31.0412 751.311 30.7472C750.218 31.0278 749.61 31.6179 749.353 32.4336Z" fill="#E3CEC0"/>
<path d="M758.677 25.1738C759.634 24.7708 760.532 24.6156 761.349 24.8112C761.255 24.1777 761.082 23.6483 760.635 23.4875C760.045 23.6267 759.376 24.3025 758.677 25.1738Z" fill="#E3CEC0"/>
<path d="M754.045 34.6758C753.976 35.145 754.542 36.094 755.555 36.9482C756.56 37.7969 757.638 38.1298 758.057 38.073C760.215 37.3011 762.014 34.3683 761.804 33.6223C761.596 32.876 758.712 31.8084 756.014 33.0573C755.04 33.5095 754.115 34.2065 754.045 34.6758Z" fill="#E3CEC0"/>
<path d="M753.418 30.4536C752.983 30.0023 753.685 28.5663 754.644 27.337C755.21 26.6113 755.852 25.944 756.296 25.8837C756.741 25.8233 757.974 26.6049 758.978 27.3283C759.978 28.0489 761.109 28.9409 761.18 29.4008C758.194 32.1073 753.853 30.9061 753.418 30.4536Z" fill="#E3CEC0"/>
<path d="M764.123 38.0773C764.233 37.2648 768.106 33.5916 769.124 33.4534C770.143 33.3153 774.999 35.6696 775.142 36.5822C775.285 37.4949 773.329 39.504 770.012 39.8035C767.658 39.9724 764.014 38.8898 764.123 38.0773Z" fill="#E3CEC0"/>
<path d="M762.501 23.9153C762.519 24.6535 763.771 25.9573 765.418 27.0077C766.634 27.7832 767.725 28.3467 768.533 28.2372C769.34 28.1276 770.379 27.5309 771.495 26.5227C772.431 25.6766 773.464 24.926 773.279 24.189C773.094 23.452 770.419 22.5229 767.345 22.1543C765.597 22.027 762.484 23.177 762.501 23.9153Z" fill="#E3CEC0"/>
<path d="M770.798 30.4998C770.958 31.5421 772.129 32.5619 773.789 33.6646C775.828 35.0183 778.295 35.5555 778.815 35.3703C779.334 35.1851 781.063 34.6427 778.781 29.845C779.546 27.2306 778.257 24.3509 777.138 24.4202C776.018 24.4894 774.695 25.1493 773.179 26.5541C771.537 28.0766 770.639 29.4576 770.798 30.4998Z" fill="#E3CEC0"/>
<path d="M697.327 53.9155C697.822 53.0512 698.486 52.5685 699.321 52.4732C699.987 52.8842 700.147 53.4509 700.08 54.0889C699.189 53.6075 698.274 53.5028 697.327 53.9155Z" fill="#E3CEC0"/>
<path d="M706.831 47.8562C707.345 47.214 708.031 46.756 708.825 46.4141C709.296 46.846 709.504 47.4063 709.584 48.0297C708.799 47.7201 707.913 47.6029 706.831 47.8562Z" fill="#E3CEC0"/>
<path d="M697.7 56.4253C698.751 56.6735 699.61 56.4793 700.372 56.0626C700.502 56.5892 700.501 57.0899 700.082 57.5088C698.95 57.5315 698.19 57.1319 697.7 56.4253Z" fill="#E3CEC0"/>
<path d="M708.772 60.8047C709.81 60.9342 710.718 60.844 711.444 60.442C711.542 61.0687 711.535 61.6171 711.154 61.8882C710.546 61.9121 709.702 61.4473 708.772 60.8047Z" fill="#E3CEC0"/>
<path d="M701.554 53.0156C701.347 52.5884 701.607 51.5373 702.324 50.4582C703.035 49.3863 703.97 48.7851 704.389 48.7282C706.691 48.8905 709.292 51.2002 709.314 51.9642C709.336 52.7281 706.888 54.5047 703.927 54.032C702.857 53.8601 701.761 53.4428 701.554 53.0156Z" fill="#E3CEC0"/>
<path d="M702.174 57.1968C701.89 57.7406 702.992 58.9189 704.28 59.8327C705.04 60.3722 705.854 60.8362 706.299 60.7759C706.744 60.7155 707.693 59.6473 708.441 58.6948C709.185 57.7459 710.005 56.5995 709.935 56.1441C706.262 54.3633 702.455 56.6522 702.174 57.1968Z" fill="#E3CEC0"/>
<path d="M710.217 47.0605C710.564 47.8032 715.377 50.267 716.395 50.1288C717.413 49.9907 721.371 46.4699 721.236 45.5654C721.1 44.6608 718.624 43.2703 715.352 43.8633C713.042 44.3257 709.869 46.3178 710.217 47.0605Z" fill="#E3CEC0"/>
<path d="M712.821 60.947C712.618 60.2412 713.43 58.6718 714.697 57.2386C715.632 56.1804 716.511 55.3565 717.319 55.2469C718.126 55.1374 719.301 55.4293 720.673 56.0914C721.824 56.6474 723.039 57.0871 723.081 57.836C723.124 58.5849 720.834 60.1749 717.994 61.3383C716.355 61.9215 713.025 61.6527 712.821 60.947Z" fill="#E3CEC0"/>
<path d="M718.847 52.4615C718.688 51.4294 719.508 50.1511 720.771 48.665C722.323 46.8403 724.531 45.6775 725.084 45.7161C725.638 45.7546 727.459 45.8124 726.702 50.9723C728.217 53.253 727.84 56.3287 726.745 56.559C725.65 56.7893 724.183 56.5124 722.309 55.5793C720.279 54.5675 719.005 53.4935 718.847 52.4615Z" fill="#E3CEC0"/>
<path d="M609.541 68.7782C610.277 69.4834 611.058 69.7739 611.889 69.643C612.403 69.067 612.386 68.475 612.129 67.8747C611.42 68.5792 610.574 68.925 609.541 68.7782Z" fill="#E3CEC0"/>
<path d="M620.448 72.0612C621.134 72.5462 621.93 72.8068 622.796 72.9258C623.117 72.3814 623.147 71.7831 623.036 71.1577C622.377 71.6673 621.562 72.0174 620.448 72.0612Z" fill="#E3CEC0"/>
<path d="M609.163 66.2437C610.096 65.7223 610.978 65.6811 611.835 65.881C611.801 65.3361 611.649 64.8512 611.121 64.5572C610.028 64.8379 609.42 65.428 609.163 66.2437Z" fill="#E3CEC0"/>
<path d="M618.487 58.9839C619.444 58.5809 620.342 58.4256 621.159 58.6212C621.064 57.9878 620.892 57.4584 620.445 57.2975C619.855 57.4367 619.185 58.1126 618.487 58.9839Z" fill="#E3CEC0"/>
<path d="M613.855 68.4858C613.785 68.955 614.352 69.9041 615.364 70.7582C616.37 71.607 617.448 71.9399 617.867 71.883C620.025 71.1112 621.824 68.1784 621.614 67.4323C621.405 66.6861 618.521 65.6185 615.824 66.8673C614.85 67.3196 613.924 68.0166 613.855 68.4858Z" fill="#E3CEC0"/>
<path d="M613.228 64.2637C612.792 63.8124 613.494 62.3763 614.454 61.147C615.019 60.4213 615.661 59.7541 616.106 59.6937C616.551 59.6334 617.783 60.415 618.787 61.1383C619.787 61.859 620.919 62.7509 620.989 63.2109C618.004 65.9173 613.663 64.7161 613.228 64.2637Z" fill="#E3CEC0"/>
<path d="M623.933 71.8873C624.042 71.0748 627.916 67.4016 628.934 67.2635C629.952 67.1254 634.809 69.4797 634.952 70.3923C635.095 71.3049 633.138 73.314 629.822 73.6135C627.467 73.7825 623.824 72.6998 623.933 71.8873Z" fill="#E3CEC0"/>
<path d="M622.311 57.7253C622.328 58.4636 623.58 59.7674 625.227 60.8177C626.443 61.5933 627.535 62.1568 628.342 62.0472C629.149 61.9377 630.188 61.341 631.305 60.3328C632.241 59.4867 633.274 58.736 633.089 57.999C632.903 57.2621 630.228 56.333 627.154 55.9643C625.406 55.8371 622.293 56.9871 622.311 57.7253Z" fill="#E3CEC0"/>
<path d="M630.608 64.3099C630.768 65.3521 631.939 66.3719 633.599 67.4746C635.637 68.8283 638.105 69.3656 638.624 69.1804C639.144 68.9952 640.873 68.4528 638.591 63.6551C639.356 61.0406 638.067 58.1609 636.948 58.2302C635.828 58.2995 634.505 58.9594 632.988 60.3641C631.347 61.8867 630.448 63.2676 630.608 64.3099Z" fill="#E3CEC0"/>
<path d="M651.664 52.7719C652.399 53.477 653.181 53.7675 654.012 53.6366C654.526 53.0607 654.509 52.4687 654.252 51.8683C653.543 52.5729 652.697 52.9187 651.664 52.7719Z" fill="#E3CEC0"/>
<path d="M662.571 56.0548C663.257 56.5398 664.053 56.8004 664.918 56.9195C665.24 56.3751 665.27 55.7767 665.159 55.1513C664.5 55.6609 663.685 56.0111 662.571 56.0548Z" fill="#E3CEC0"/>
<path d="M651.286 50.2373C652.219 49.7159 653.101 49.6748 653.958 49.8747C653.924 49.3297 653.772 48.8449 653.244 48.5509C652.151 48.8315 651.543 49.4216 651.286 50.2373Z" fill="#E3CEC0"/>
<path d="M660.61 42.978C661.567 42.575 662.465 42.4198 663.282 42.6154C663.187 41.9819 663.015 41.4525 662.568 41.2917C661.978 41.4309 661.308 42.1067 660.61 42.978Z" fill="#E3CEC0"/>
<path d="M655.978 52.4795C655.908 52.9487 656.474 53.8977 657.487 54.7519C658.493 55.6006 659.571 55.9335 659.99 55.8767C662.148 55.1048 663.947 52.172 663.737 51.426C663.528 50.6797 660.644 49.6121 657.947 50.861C656.973 51.3132 656.047 52.0102 655.978 52.4795Z" fill="#E3CEC0"/>
<path d="M655.351 48.2573C654.915 47.806 655.617 46.37 656.576 45.1407C657.142 44.415 657.784 43.7477 658.229 43.6874C658.674 43.627 659.906 44.4086 660.91 45.132C661.91 45.8527 663.042 46.7446 663.112 47.2045C660.127 49.911 655.785 48.7098 655.351 48.2573Z" fill="#E3CEC0"/>
<path d="M666.056 55.881C666.165 55.0685 670.039 51.3953 671.057 51.2572C672.075 51.119 676.932 53.4733 677.075 54.3859C677.218 55.2985 675.261 57.3077 671.944 57.6072C669.59 57.7761 665.946 56.6935 666.056 55.881Z" fill="#E3CEC0"/>
<path d="M664.434 41.719C664.451 42.4572 665.703 43.761 667.35 44.8114C668.566 45.5869 669.658 46.1504 670.465 46.0409C671.272 45.9313 672.311 45.3346 673.428 44.3265C674.364 43.4803 675.397 42.7297 675.211 41.9927C675.026 41.2557 672.351 40.3266 669.277 39.958C667.529 39.8307 664.416 40.9808 664.434 41.719Z" fill="#E3CEC0"/>
<path d="M672.731 48.3035C672.89 49.3458 674.062 50.3656 675.721 51.4683C677.76 52.822 680.228 53.3592 680.747 53.174C681.266 52.9888 682.996 52.4464 680.714 47.6487C681.479 45.0343 680.19 42.1546 679.07 42.2239C677.95 42.2932 676.628 42.953 675.111 44.3578C673.469 45.8804 672.571 47.2613 672.731 48.3035Z" fill="#E3CEC0"/>
<path d="M536.451 68.1146C537.162 68.8419 537.934 69.1566 538.769 69.0519C539.303 68.493 539.306 67.9013 539.07 67.2938C538.337 67.975 537.479 68.2937 536.451 68.1146Z" fill="#E3CEC0"/>
<path d="M547.241 71.7452C547.911 72.2511 548.698 72.5364 549.559 72.6825C549.899 72.149 549.95 71.5524 549.86 70.9244C549.184 71.4126 548.357 71.7366 547.241 71.7452Z" fill="#E3CEC0"/>
<path d="M536.158 65.5684C537.11 65.0772 537.993 65.0638 538.843 65.2903C538.827 64.7452 538.692 64.2563 538.174 63.9461C537.072 64.192 536.444 64.762 536.158 65.5684Z" fill="#E3CEC0"/>
<path d="M545.723 58.6113C546.694 58.239 547.597 58.1123 548.407 58.3333C548.334 57.6978 548.181 57.1638 547.739 56.9891C547.144 57.1096 546.452 57.7634 545.723 58.6113Z" fill="#E3CEC0"/>
<path d="M540.771 67.9626C540.686 68.429 541.219 69.3946 542.203 70.2794C543.179 71.1585 544.245 71.5249 544.666 71.4813C546.851 70.7784 548.751 67.9061 548.567 67.1545C548.384 66.4027 545.536 65.2459 542.796 66.4082C541.807 66.8292 540.857 67.4962 540.771 67.9626Z" fill="#E3CEC0"/>
<path d="M540.286 63.7199C539.866 63.2555 540.618 61.8435 541.619 60.6461C542.21 59.9392 542.875 59.2931 543.322 59.2468C543.769 59.2005 544.974 60.0198 545.953 60.7737C546.928 61.5248 548.029 62.4511 548.084 62.9126C545.005 65.5214 540.705 64.1854 540.286 63.7199Z" fill="#E3CEC0"/>
<path d="M550.727 71.6836C550.865 70.8757 554.864 67.3298 555.887 67.2239C556.91 67.118 561.685 69.6215 561.797 70.5373C561.908 71.4531 559.883 73.3977 556.556 73.5924C554.196 73.6871 550.59 72.4914 550.727 71.6836Z" fill="#E3CEC0"/>
<path d="M549.587 57.4801C549.579 58.2178 550.786 59.5591 552.396 60.6597C553.586 61.4724 554.658 62.0694 555.469 61.9854C556.28 61.9014 557.339 61.3382 558.49 60.3666C559.455 59.5512 560.514 58.8341 560.354 58.0924C560.194 57.3506 557.552 56.3388 554.49 55.874C552.747 55.692 549.595 56.7425 549.587 57.4801Z" fill="#E3CEC0"/>
<path d="M557.655 64.3251C557.779 65.3712 558.915 66.4268 560.537 67.5805C562.53 68.9968 564.979 69.6111 565.505 69.4425C566.031 69.2738 567.78 68.7864 565.662 63.922C566.518 61.3344 565.328 58.4172 564.205 58.4512C563.083 58.4852 561.737 59.1028 560.172 60.4584C558.477 61.9277 557.531 63.2789 557.655 64.3251Z" fill="#E3CEC0"/>
<path d="M483.434 85.372C483.959 84.5246 484.639 84.0634 485.478 83.9945C486.129 84.4258 486.27 84.9968 486.181 85.6318C485.306 85.123 484.395 84.9897 483.434 85.372Z" fill="#E3CEC0"/>
<path d="M493.138 79.6204C493.674 78.9952 494.375 78.5594 495.182 78.243C495.638 78.6892 495.826 79.2552 495.885 79.8801C495.111 79.5463 494.229 79.4015 493.138 79.6204Z" fill="#E3CEC0"/>
<path d="M483.723 87.8936C484.765 88.1744 485.63 88.0075 486.407 87.6155C486.519 88.1453 486.5 88.6452 486.067 89.0503C484.934 89.0374 484.189 88.6145 483.723 87.8936Z" fill="#E3CEC0"/>
<path d="M494.64 92.6255C495.674 92.7875 496.585 92.726 497.324 92.3474C497.401 92.9762 497.375 93.5235 496.984 93.7822C496.376 93.787 495.548 93.2964 494.64 92.6255Z" fill="#E3CEC0"/>
<path d="M487.687 84.6087C487.495 84.1756 487.792 83.1341 488.545 82.079C489.294 81.0309 490.249 80.4599 490.67 80.4163C492.966 80.6508 495.488 83.039 495.483 83.8027C495.479 84.5662 492.969 86.2635 490.025 85.6983C488.961 85.493 487.879 85.0419 487.687 84.6087Z" fill="#E3CEC0"/>
<path d="M488.167 88.8101C487.865 89.3442 488.926 90.5555 490.182 91.5084C490.923 92.0711 491.722 92.5601 492.169 92.5138C492.616 92.4675 493.602 91.4307 494.382 90.503C495.159 89.5788 496.018 88.4598 495.964 88.0028C492.353 86.1091 488.467 88.275 488.167 88.8101Z" fill="#E3CEC0"/>
<path d="M496.547 78.9367C496.869 79.6892 501.597 82.3007 502.619 82.1948C503.642 82.0888 507.72 78.6978 507.616 77.7903C507.512 76.8828 505.083 75.4165 501.792 75.9057C499.466 76.2948 496.225 78.1842 496.547 78.9367Z" fill="#E3CEC0"/>
<path d="M498.679 92.8964C498.5 92.1853 499.366 90.6437 500.682 89.2525C501.654 88.2252 502.561 87.4302 503.372 87.3462C504.183 87.2622 505.348 87.5906 506.697 88.2949C507.829 88.8862 509.029 89.3635 509.045 90.1126C509.062 90.8618 506.718 92.3775 503.838 93.4498C502.179 93.9806 498.859 93.6075 498.679 92.8964Z" fill="#E3CEC0"/>
<path d="M504.988 84.6101C504.866 83.5742 505.729 82.323 507.044 80.8783C508.659 79.1043 510.907 78.0122 511.46 78.0681C512.012 78.124 513.832 78.239 512.897 83.3696C514.333 85.6955 513.85 88.756 512.747 88.9516C511.644 89.1473 510.187 88.8245 508.344 87.8335C506.348 86.7589 505.111 85.646 504.988 84.6101Z" fill="#E3CEC0"/>
<path d="M395.193 97.4159C395.904 98.1432 396.676 98.4579 397.511 98.3532C398.045 97.7943 398.048 97.2026 397.813 96.5951C397.079 97.2763 396.221 97.595 395.193 97.4159Z" fill="#E3CEC0"/>
<path d="M405.983 101.046C406.653 101.552 407.44 101.838 408.301 101.984C408.641 101.45 408.692 100.854 408.603 100.226C407.926 100.714 407.099 101.038 405.983 101.046Z" fill="#E3CEC0"/>
<path d="M394.901 94.8696C395.852 94.3784 396.735 94.3651 397.585 94.5916C397.57 94.0464 397.434 93.5576 396.916 93.2474C395.814 93.4932 395.186 94.0633 394.901 94.8696Z" fill="#E3CEC0"/>
<path d="M404.465 87.9126C405.436 87.5403 406.339 87.4135 407.15 87.6346C407.077 86.9991 406.923 86.4651 406.481 86.2904C405.886 86.4109 405.194 87.0646 404.465 87.9126Z" fill="#E3CEC0"/>
<path d="M399.514 97.2639C399.428 97.7303 399.962 98.6958 400.945 99.5807C401.921 100.46 402.987 100.826 403.408 100.783C405.593 100.08 407.493 97.2074 407.309 96.4557C407.126 95.704 404.279 94.5471 401.538 95.7095C400.549 96.1305 399.599 96.7975 399.514 97.2639Z" fill="#E3CEC0"/>
<path d="M399.029 93.0212C398.609 92.5568 399.36 91.1448 400.361 89.9474C400.952 89.2405 401.617 88.5944 402.064 88.5481C402.511 88.5018 403.716 89.321 404.695 90.075C405.67 90.8261 406.771 91.7523 406.826 92.2139C403.747 94.8226 399.448 93.4867 399.029 93.0212Z" fill="#E3CEC0"/>
<path d="M409.47 100.985C409.607 100.177 413.607 96.6311 414.629 96.5252C415.652 96.4192 420.427 98.9228 420.539 99.8385C420.65 100.754 418.625 102.699 415.298 102.894C412.938 102.988 409.332 101.793 409.47 100.985Z" fill="#E3CEC0"/>
<path d="M408.329 86.7814C408.321 87.5191 409.528 88.8604 411.139 89.961C412.328 90.7736 413.4 91.3706 414.211 91.2866C415.022 91.2026 416.081 90.6395 417.232 89.6679C418.198 88.8525 419.256 88.1353 419.096 87.3936C418.937 86.6519 416.294 85.6401 413.232 85.1753C411.489 84.9933 408.337 86.0437 408.329 86.7814Z" fill="#E3CEC0"/>
<path d="M416.397 93.6263C416.521 94.6725 417.657 95.7281 419.279 96.8817C421.272 98.2981 423.722 98.9124 424.247 98.7437C424.773 98.5751 426.522 98.0877 424.404 93.2233C425.26 90.6356 424.07 87.7185 422.948 87.7525C421.825 87.7865 420.479 88.4041 418.914 89.7596C417.219 91.2289 416.273 92.5801 416.397 93.6263Z" fill="#E3CEC0"/>
<path d="M437.835 82.7675C438.546 83.4947 439.318 83.8094 440.153 83.7048C440.687 83.1458 440.69 82.5541 440.454 81.9466C439.72 82.6278 438.863 82.9465 437.835 82.7675Z" fill="#E3CEC0"/>
<path d="M448.625 86.398C449.295 86.9039 450.082 87.1892 450.943 87.3353C451.283 86.8018 451.334 86.2052 451.244 85.5772C450.567 86.0654 449.741 86.3894 448.625 86.398Z" fill="#E3CEC0"/>
<path d="M437.542 80.2212C438.493 79.73 439.376 79.7167 440.226 79.9432C440.211 79.398 440.076 78.9091 439.558 78.599C438.455 78.8448 437.827 79.4149 437.542 80.2212Z" fill="#E3CEC0"/>
<path d="M447.107 73.2642C448.078 72.8919 448.981 72.7651 449.791 72.9862C449.718 72.3507 449.564 71.8167 449.123 71.642C448.528 71.7624 447.835 72.4162 447.107 73.2642Z" fill="#E3CEC0"/>
<path d="M442.155 82.6154C442.069 83.0818 442.603 84.0474 443.587 84.9322C444.563 85.8114 445.629 86.1777 446.05 86.1341C448.235 85.4312 450.134 82.559 449.95 81.8073C449.768 81.0555 446.92 79.8987 444.18 81.0611C443.191 81.482 442.241 82.149 442.155 82.6154Z" fill="#E3CEC0"/>
<path d="M441.67 78.3727C441.25 77.9084 442.001 76.4964 443.003 75.299C443.594 74.5921 444.258 73.9459 444.705 73.8996C445.152 73.8534 446.358 74.6726 447.337 75.4265C448.312 76.1776 449.413 77.1039 449.467 77.5654C446.389 80.1742 442.089 78.8382 441.67 78.3727Z" fill="#E3CEC0"/>
<path d="M452.111 86.3364C452.249 85.5286 456.248 81.9826 457.271 81.8767C458.294 81.7708 463.069 84.2743 463.18 85.1901C463.292 86.1059 461.266 88.0505 457.94 88.2453C455.58 88.3399 451.974 87.1443 452.111 86.3364Z" fill="#E3CEC0"/>
<path d="M450.971 72.133C450.963 72.8707 452.17 74.212 453.78 75.3125C454.969 76.1252 456.041 76.7222 456.852 76.6382C457.664 76.5542 458.723 75.991 459.874 75.0194C460.839 74.204 461.898 73.4869 461.738 72.7452C461.578 72.0035 458.935 70.9916 455.874 70.5268C454.131 70.3448 450.979 71.3953 450.971 72.133Z" fill="#E3CEC0"/>
<path d="M459.039 78.9779C459.162 80.0241 460.299 81.0796 461.921 82.2333C463.913 83.6497 466.363 84.2639 466.889 84.0953C467.415 83.9266 469.164 83.4392 467.046 78.5748C467.901 75.9872 466.712 73.07 465.589 73.104C464.467 73.138 463.121 73.7556 461.556 75.1112C459.861 76.5805 458.915 77.9317 459.039 78.9779Z" fill="#E3CEC0"/>
<path d="M331.376 85.2256C331.847 86.114 332.496 86.6215 333.328 86.7422C334.003 86.346 334.179 85.7775 334.129 85.1304C333.226 85.5913 332.31 85.6705 331.376 85.2256Z" fill="#E3CEC0"/>
<path d="M340.705 91.6287C341.201 92.2931 341.874 92.7762 342.658 93.1451C343.14 92.722 343.362 92.1615 343.459 91.5334C342.667 91.8237 341.779 91.9163 340.705 91.6287Z" fill="#E3CEC0"/>
<path d="M331.815 82.7012C332.871 82.4808 333.723 82.7023 334.473 83.1458C334.617 82.6171 334.63 82.1107 334.223 81.6748C333.093 81.6188 332.324 82.0008 331.815 82.7012Z" fill="#E3CEC0"/>
<path d="M342.989 78.6021C344.029 78.5013 344.933 78.619 345.647 79.0467C345.762 78.4157 345.769 77.861 345.396 77.5757C344.79 77.5338 343.935 77.9793 342.989 78.6021Z" fill="#E3CEC0"/>
<path d="M335.575 86.2597C335.357 86.6856 335.588 87.7562 336.275 88.8682C336.956 89.9728 337.873 90.608 338.289 90.6777C340.591 90.5806 343.251 88.3208 343.293 87.5488C343.336 86.777 340.939 84.9092 337.971 85.301C336.898 85.4437 335.793 85.8337 335.575 86.2597Z" fill="#E3CEC0"/>
<path d="M336.304 82.0544C336.036 81.4963 337.168 80.3369 338.478 79.4504C339.251 78.9269 340.077 78.4814 340.52 78.5554C340.962 78.6294 341.881 79.7372 342.601 80.7222C343.318 81.7034 344.106 82.8865 344.024 83.3451C340.309 85.0389 336.571 82.6134 336.304 82.0544Z" fill="#E3CEC0"/>
<path d="M344.067 92.5344C344.434 91.7934 349.305 89.442 350.318 89.6114C351.331 89.7807 355.186 93.4565 355.027 94.3673C354.867 95.2782 352.357 96.6123 349.107 95.9173C346.814 95.3824 343.7 93.2753 344.067 92.5344Z" fill="#E3CEC0"/>
<path d="M347.039 78.5768C346.817 79.2846 347.585 80.8954 348.811 82.3816C349.716 83.4791 350.571 84.3379 351.375 84.4721C352.178 84.6064 353.359 84.3455 354.746 83.7159C355.91 83.1871 357.135 82.7779 357.197 82.0217C357.26 81.2656 355.017 79.591 352.214 78.3318C350.593 77.6942 347.261 77.8691 347.039 78.5768Z" fill="#E3CEC0"/>
<path d="M352.83 87.3304C352.644 88.3692 353.428 89.6854 354.648 91.2245C356.148 93.1144 358.32 94.3543 358.873 94.3314C359.427 94.3086 361.247 94.3032 360.63 89.0646C362.203 86.803 361.91 83.6826 360.823 83.4179C359.737 83.1532 358.266 83.3904 356.37 84.2792C354.316 85.2429 353.016 86.2916 352.83 87.3304Z" fill="#E3CEC0"/>
<path d="M275.515 87.4799C276.266 86.8037 277.053 86.5403 277.878 86.6965C278.378 87.2842 278.347 87.8709 278.077 88.4584C277.385 87.7369 276.55 87.367 275.515 87.4799Z" fill="#E3CEC0"/>
<path d="M286.479 84.5759C287.175 84.1165 287.976 83.8832 288.842 83.7926C289.15 84.3428 289.166 84.9374 289.04 85.5543C288.394 85.0278 287.59 84.6546 286.479 84.5759Z" fill="#E3CEC0"/>
<path d="M275.079 89.9785C275.998 90.5254 276.877 90.5942 277.737 90.4232C277.69 90.9627 277.527 91.4389 276.993 91.7139C275.909 91.4007 275.316 90.796 275.079 89.9785Z" fill="#E3CEC0"/>
<path d="M284.217 97.4741C285.162 97.9044 286.055 98.0869 286.875 97.9187C286.765 98.5442 286.581 99.064 286.131 99.2094C285.545 99.0525 284.893 98.3607 284.217 97.4741Z" fill="#E3CEC0"/>
<path d="M279.815 87.9092C279.757 87.4415 280.344 86.518 281.375 85.7029C282.398 84.8928 283.482 84.5968 283.899 84.6665C286.034 85.5006 287.76 88.467 287.533 89.2005C287.307 89.9341 284.404 90.9017 281.742 89.5772C280.781 89.0977 279.874 88.3769 279.815 87.9092Z" fill="#E3CEC0"/>
<path d="M279.092 92.0725C278.646 92.5064 279.313 93.9533 280.241 95.2032C280.789 95.9411 281.413 96.6234 281.856 96.6974C282.298 96.7714 283.546 96.0352 284.565 95.3494C285.58 94.6662 286.73 93.8173 286.812 93.3633C283.896 90.5836 279.536 91.6374 279.092 92.0725Z" fill="#E3CEC0"/>
<path d="M289.955 84.8606C290.045 85.6702 293.824 89.4373 294.837 89.6066C295.849 89.776 300.751 87.5945 300.915 86.6936C301.079 85.7927 299.174 83.7374 295.872 83.335C293.526 83.0926 289.865 84.0511 289.955 84.8606Z" fill="#E3CEC0"/>
<path d="M288.005 98.8492C288.04 98.1174 289.32 96.8636 290.988 95.8738C292.22 95.143 293.323 94.6187 294.126 94.753C294.929 94.8873 295.951 95.5122 297.042 96.5479C297.956 97.417 298.969 98.1945 298.767 98.9198C298.565 99.645 295.873 100.482 292.797 100.75C291.05 100.821 287.971 99.581 288.005 98.8492Z" fill="#E3CEC0"/>
<path d="M296.442 92.5871C296.626 91.5585 297.818 90.5843 299.5 89.5434C301.566 88.2655 304.04 87.811 304.554 88.0112C305.068 88.2113 306.781 88.8041 304.391 93.4898C305.092 96.107 303.739 98.9221 302.623 98.8179C301.508 98.7136 300.204 98.0172 298.724 96.5759C297.121 95.0138 296.258 93.6158 296.442 92.5871Z" fill="#E3CEC0"/>
<path d="M187.312 75.2051C187.783 76.0935 188.432 76.601 189.264 76.7217C189.939 76.3255 190.115 75.757 190.065 75.1099C189.162 75.5708 188.246 75.65 187.312 75.2051Z" fill="#E3CEC0"/>
<path d="M196.641 81.6082C197.137 82.2725 197.81 82.7557 198.594 83.1246C199.076 82.7015 199.298 82.141 199.395 81.5129C198.603 81.8032 197.715 81.8958 196.641 81.6082Z" fill="#E3CEC0"/>
<path d="M187.751 72.6802C188.807 72.4598 189.659 72.6812 190.409 73.1248C190.553 72.5961 190.565 72.0897 190.158 71.6538C189.028 71.5978 188.26 71.9798 187.751 72.6802Z" fill="#E3CEC0"/>
<path d="M198.925 68.5815C199.965 68.4808 200.869 68.5985 201.583 69.0262C201.698 68.3952 201.705 67.8405 201.332 67.5552C200.726 67.5133 199.871 67.9588 198.925 68.5815Z" fill="#E3CEC0"/>
<path d="M191.511 76.2391C191.293 76.6651 191.524 77.7356 192.211 78.8477C192.892 79.9523 193.809 80.5875 194.226 80.6572C196.527 80.5601 199.187 78.3003 199.229 77.5283C199.272 76.7565 196.876 74.8886 193.907 75.2805C192.834 75.4232 191.729 75.8132 191.511 76.2391Z" fill="#E3CEC0"/>
<path d="M192.24 72.0339C191.972 71.4758 193.104 70.3164 194.414 69.4299C195.187 68.9064 196.013 68.4609 196.456 68.5349C196.898 68.6089 197.817 69.7167 198.537 70.7016C199.255 71.6829 200.042 72.866 199.96 73.3246C196.245 75.0183 192.507 72.5929 192.24 72.0339Z" fill="#E3CEC0"/>
<path d="M200.003 82.5138C200.37 81.7729 205.241 79.4215 206.254 79.5908C207.267 79.7602 211.122 83.436 210.963 84.3468C210.804 85.2577 208.293 86.5917 205.043 85.8968C202.75 85.3619 199.636 83.2548 200.003 82.5138Z" fill="#E3CEC0"/>
<path d="M202.975 68.5563C202.753 69.2641 203.521 70.8749 204.747 72.3611C205.652 73.4585 206.508 74.3173 207.311 74.4516C208.114 74.5859 209.295 74.325 210.682 73.6953C211.846 73.1666 213.071 72.7574 213.133 72.0012C213.196 71.2451 210.953 69.5705 208.15 68.3113C206.529 67.6737 203.197 67.8485 202.975 68.5563Z" fill="#E3CEC0"/>
<path d="M208.766 77.3099C208.58 78.3487 209.364 79.6649 210.584 81.204C212.084 83.0939 214.256 84.3338 214.81 84.3109C215.363 84.2881 217.183 84.2827 216.566 79.0441C218.139 76.7825 217.846 73.6621 216.759 73.3974C215.673 73.1326 214.202 73.3699 212.306 74.2586C210.252 75.2224 208.952 76.2711 208.766 77.3099Z" fill="#E3CEC0"/>
<path d="M232.456 72.6548C232.927 73.5432 233.577 74.0507 234.409 74.1714C235.084 73.7752 235.259 73.2067 235.21 72.5596C234.307 73.0205 233.391 73.0997 232.456 72.6548Z" fill="#E3CEC0"/>
<path d="M241.786 79.0579C242.282 79.7223 242.954 80.2054 243.738 80.5743C244.22 80.1512 244.442 79.5907 244.539 78.9626C243.747 79.2529 242.86 79.3455 241.786 79.0579Z" fill="#E3CEC0"/>
<path d="M232.896 70.1304C233.952 69.91 234.803 70.1315 235.554 70.575C235.698 70.0463 235.71 69.5399 235.303 69.104C234.173 69.048 233.404 69.43 232.896 70.1304Z" fill="#E3CEC0"/>
<path d="M244.069 66.0312C245.11 65.9305 246.014 66.0482 246.727 66.4759C246.842 65.8449 246.85 65.2902 246.477 65.0049C245.87 64.963 245.015 65.4085 244.069 66.0312Z" fill="#E3CEC0"/>
<path d="M236.655 73.6888C236.437 74.1148 236.669 75.1853 237.355 76.2974C238.036 77.402 238.953 78.0372 239.37 78.1069C241.672 78.0098 244.331 75.75 244.373 74.978C244.416 74.2062 242.02 72.3383 239.051 72.7302C237.979 72.8729 236.873 73.2629 236.655 73.6888Z" fill="#E3CEC0"/>
<path d="M237.385 69.4836C237.117 68.9255 238.249 67.7661 239.559 66.8796C240.331 66.3561 241.158 65.9106 241.6 65.9846C242.043 66.0586 242.961 67.1664 243.681 68.1514C244.399 69.1326 245.186 70.3157 245.104 70.7743C241.39 72.4681 237.651 70.0426 237.385 69.4836Z" fill="#E3CEC0"/>
<path d="M245.147 79.9636C245.514 79.2226 250.386 76.8712 251.398 77.0406C252.411 77.2099 256.267 80.8857 256.107 81.7965C255.948 82.7073 253.438 84.0414 250.187 83.3465C247.894 82.8116 244.78 80.7045 245.147 79.9636Z" fill="#E3CEC0"/>
<path d="M248.12 66.006C247.897 66.7138 248.666 68.3246 249.891 69.8108C250.797 70.9083 251.652 71.7671 252.455 71.9013C253.258 72.0356 254.439 71.7747 255.827 71.145C256.991 70.6163 258.216 70.2071 258.278 69.4509C258.34 68.6948 256.098 67.0202 253.294 65.761C251.674 65.1234 248.342 65.2982 248.12 66.006Z" fill="#E3CEC0"/>
<path d="M253.91 74.7596C253.725 75.7984 254.508 77.1146 255.729 78.6537C257.229 80.5436 259.401 81.7835 259.954 81.7606C260.508 81.7377 262.327 81.7324 261.71 76.4938C263.284 74.2322 262.991 71.1118 261.904 70.8471C260.817 70.5824 259.346 70.8196 257.45 71.7084C255.397 72.6722 254.096 73.7208 253.91 74.7596Z" fill="#E3CEC0"/>
<path d="M143.475 45.2247C143.77 46.1833 144.312 46.7976 145.106 47.0629C145.843 46.791 146.122 46.2615 146.195 45.6149C145.223 45.9105 144.309 45.8276 143.475 45.2247Z" fill="#E3CEC0"/>
<path d="M151.453 53.1717C151.815 53.9137 152.384 54.5082 153.084 55.0096C153.637 54.6773 153.961 54.1639 154.174 53.5619C153.342 53.7087 152.453 53.644 151.453 53.1717Z" fill="#E3CEC0"/>
<path d="M144.377 42.8228C145.456 42.7913 146.25 43.1594 146.903 43.7286C147.144 43.2327 147.251 42.7356 146.934 42.2344C145.835 41.9804 145.008 42.2218 144.377 42.8228Z" fill="#E3CEC0"/>
<path d="M156.13 40.7686C157.171 40.8522 158.036 41.1273 158.656 41.6744C158.888 41.0726 159 40.5271 158.687 40.1802C158.1 40.0323 157.176 40.321 156.13 40.7686Z" fill="#E3CEC0"/>
<path d="M147.417 46.9843C147.123 47.3658 147.149 48.4616 147.613 49.6783C148.074 50.8868 148.854 51.674 149.25 51.816C151.528 52.1248 154.563 50.3648 154.75 49.6114C154.938 48.8583 152.937 46.596 149.949 46.4605C148.87 46.4127 147.711 46.6028 147.417 46.9843Z" fill="#E3CEC0"/>
<path d="M148.917 42.9851C148.759 42.3879 150.088 41.4441 151.541 40.8005C152.398 40.4203 153.292 40.1265 153.713 40.2772C154.133 40.4279 154.827 41.6813 155.348 42.7787C155.868 43.8721 156.418 45.1766 156.252 45.6142C152.287 46.6308 149.073 43.583 148.917 42.9851Z" fill="#E3CEC0"/>
<path d="M154.596 54.662C155.095 53.9961 160.32 52.5348 161.282 52.8798C162.245 53.2249 165.339 57.5261 165.011 58.396C164.683 59.2658 161.968 60.1395 158.907 58.8829C156.757 57.9524 154.096 55.3279 154.596 54.662Z" fill="#E3CEC0"/>
<path d="M160.128 41.4561C159.777 42.1147 160.228 43.8376 161.152 45.5181C161.834 46.759 162.512 47.756 163.275 48.0295C164.038 48.3031 165.247 48.2535 166.728 47.8769C167.97 47.5603 169.249 47.3723 169.453 46.6379C169.656 45.9035 167.769 43.8585 165.254 42.1243C163.783 41.2109 160.479 40.7975 160.128 41.4561Z" fill="#E3CEC0"/>
<path d="M164.186 51.0925C163.809 52.0832 164.33 53.5175 165.238 55.2482C166.354 57.3735 168.252 58.9764 168.799 59.0511C169.346 59.1258 171.132 59.4401 171.512 54.171C173.481 52.2193 173.78 49.0938 172.764 48.6421C171.748 48.1904 170.26 48.1658 168.233 48.7083C166.037 49.2971 164.564 50.1017 164.186 51.0925Z" fill="#E3CEC0"/>
<path d="M88.1234 37.5614C88.9875 37.0268 89.8097 36.9055 90.5907 37.2046C90.9706 37.8718 90.8297 38.4447 90.4541 38.9762C89.911 38.1435 89.1601 37.632 88.1234 37.5614Z" fill="#E3CEC0"/>
<path d="M99.4467 36.6456C100.217 36.3153 101.046 36.226 101.914 36.289C102.113 36.8855 102.016 37.4744 101.777 38.0604C101.242 37.4279 100.523 36.9186 99.4467 36.6456Z" fill="#E3CEC0"/>
<path d="M87.2283 39.939C88.0278 40.6397 88.8778 40.8622 89.7543 40.8448C89.607 41.3685 89.3572 41.8092 88.7814 41.9863C87.7758 41.4869 87.3076 40.7865 87.2283 39.939Z" fill="#E3CEC0"/>
<path d="M94.8137 48.9263C95.6611 49.5167 96.5032 49.8536 97.3398 49.8321C97.1147 50.4294 96.836 50.9094 96.3668 50.9735C95.8214 50.7159 95.3114 49.9193 94.8137 48.9263Z" fill="#E3CEC0"/>
<path d="M92.2757 38.7486C92.3063 38.2774 93.0569 37.4704 94.222 36.8481C95.3788 36.2296 96.4978 36.1282 96.8939 36.2701C98.8329 37.4676 99.9688 40.6947 99.6082 41.3778C99.2486 42.0612 96.2171 42.5047 93.8533 40.7314C93 40.0898 92.2451 39.2199 92.2757 38.7486Z" fill="#E3CEC0"/>
<path d="M90.7891 42.7075C90.2704 43.0569 90.6523 44.6002 91.3285 45.9954C91.7272 46.819 92.212 47.6013 92.6325 47.752C93.053 47.9028 94.4165 47.3964 95.5455 46.8995C96.6703 46.4046 97.9591 45.77 98.1242 45.3367C95.7851 42.0844 91.3071 42.3567 90.7891 42.7075Z" fill="#E3CEC0"/>
<path d="M102.82 37.5406C102.756 38.3544 105.758 42.7323 106.72 43.0773C107.683 43.4224 112.905 42.1339 113.236 41.2747C113.566 40.4156 112.083 38.0546 108.916 37.0772C106.659 36.4258 102.884 36.7268 102.82 37.5406Z" fill="#E3CEC0"/>
<path d="M98.2873 50.9576C98.4592 50.2424 99.9517 49.2316 101.775 48.5492C103.122 48.0454 104.303 47.7224 105.066 47.9959C105.829 48.2695 106.716 49.0654 107.591 50.278C108.325 51.2954 109.174 52.24 108.839 52.9194C108.504 53.5987 105.704 53.9504 102.634 53.6738C100.905 53.4364 98.1154 51.6729 98.2873 50.9576Z" fill="#E3CEC0"/>
<path d="M107.755 46.2887C108.129 45.3076 109.482 44.5574 111.328 43.8273C113.595 42.9312 116.108 42.9182 116.574 43.2056C117.041 43.493 118.61 44.3778 115.384 48.5742C115.58 51.2758 113.723 53.8114 112.648 53.5127C111.573 53.2141 110.425 52.2989 109.244 50.6191C107.966 48.7987 107.382 47.2698 107.755 46.2887Z" fill="#E3CEC0"/>
<path d="M3.68267 9.8883C3.97809 10.8469 4.52008 11.4612 5.31396 11.7265C6.05141 11.4546 6.33044 10.9251 6.40349 10.2785C5.43066 10.5741 4.51655 10.4912 3.68267 9.8883Z" fill="#E3CEC0"/>
<path d="M11.6609 17.8353C12.0226 18.5773 12.5917 19.1718 13.2921 19.6732C13.8447 19.3409 14.1684 18.8274 14.3815 18.2254C13.5497 18.3723 12.6611 18.3076 11.6609 17.8353Z" fill="#E3CEC0"/>
<path d="M4.58521 7.48633C5.66351 7.45485 6.458 7.82291 7.11122 8.39212C7.35199 7.89625 7.4592 7.39919 7.14171 6.89796C6.04268 6.644 5.21604 6.88536 4.58521 7.48633Z" fill="#E3CEC0"/>
<path d="M16.3381 5.43213C17.3784 5.51575 18.2441 5.79085 18.8641 6.33791C19.0955 5.73614 19.2073 5.19062 18.8946 4.84377C18.3074 4.69588 17.3842 4.98463 16.3381 5.43213Z" fill="#E3CEC0"/>
<path d="M7.62469 11.6479C7.33046 12.0294 7.35629 13.1252 7.82086 14.3419C8.28164 15.5504 9.06217 16.3376 9.45826 16.4795C11.7357 16.7884 14.7712 15.0284 14.9577 14.2749C15.1453 13.5218 13.1445 11.2596 10.1569 11.1241C9.07746 11.0763 7.91891 11.2663 7.62469 11.6479Z" fill="#E3CEC0"/>
<path d="M9.12449 7.64871C8.96638 7.05147 10.2956 6.10763 11.7483 5.46409C12.6054 5.08392 13.5 4.79004 13.9205 4.94077C14.3411 5.0915 15.0343 6.34487 15.556 7.44231C16.0758 8.53565 16.626 9.84018 16.4594 10.2778C12.4946 11.2943 9.2812 8.24659 9.12449 7.64871Z" fill="#E3CEC0"/>
<path d="M14.8034 19.3256C15.303 18.6597 20.5277 17.1984 21.4901 17.5434C22.4524 17.8884 25.5464 22.1897 25.2186 23.0596C24.8908 23.9294 22.1755 24.803 19.1153 23.5465C16.9645 22.6159 14.3039 19.9914 14.8034 19.3256Z" fill="#E3CEC0"/>
<path d="M20.3357 6.11965C19.9844 6.77826 20.4358 8.5012 21.3595 10.1817C22.0418 11.4226 22.72 12.4195 23.4831 12.6931C24.2463 12.9667 25.4546 12.9171 26.9354 12.5404C28.1773 12.2239 29.4569 12.0359 29.6603 11.3015C29.8638 10.5671 27.9771 8.52206 25.4617 6.7879C23.9906 5.87452 20.6869 5.46104 20.3357 6.11965Z" fill="#E3CEC0"/>
<path d="M24.3941 15.756C24.0167 16.7468 24.5378 18.1811 25.4459 19.9118C26.5618 22.037 28.4594 23.64 29.0067 23.7147C29.5541 23.7894 31.3402 24.1037 31.7202 18.8346C33.6889 16.8829 33.9882 13.7573 32.9718 13.3057C31.9554 12.854 30.4677 12.8293 28.4404 13.3718C26.2446 13.9606 24.7715 14.7653 24.3941 15.756Z" fill="#E3CEC0"/>
<path d="M48.5511 15.3659C48.8465 16.3244 49.3885 16.9388 50.1824 17.204C50.9198 16.9321 51.1988 16.4026 51.2719 15.756C50.2991 16.0516 49.385 15.9687 48.5511 15.3659Z" fill="#E3CEC0"/>
<path d="M56.5296 23.3128C56.8913 24.0549 57.4604 24.6493 58.1607 25.1508C58.7134 24.8184 59.0371 24.305 59.2502 23.703C58.4184 23.8499 57.5297 23.7852 56.5296 23.3128Z" fill="#E3CEC0"/>
<path d="M49.4539 12.9639C50.5322 12.9324 51.3267 13.3005 51.9799 13.8697C52.2206 13.3738 52.3279 12.8767 52.0104 12.3755C50.9113 12.1215 50.0847 12.3629 49.4539 12.9639Z" fill="#E3CEC0"/>
<path d="M61.2068 10.9097C62.247 10.9933 63.1127 11.2684 63.7328 11.8155C63.9642 11.2137 64.076 10.6682 63.7633 10.3213C63.1761 10.1734 62.2528 10.4622 61.2068 10.9097Z" fill="#E3CEC0"/>
<path d="M52.4933 17.1254C52.1991 17.5069 52.2249 18.6028 52.6895 19.8194C53.1503 21.0279 53.9308 21.8151 54.3269 21.9571C56.6044 22.2659 59.6398 20.5059 59.8264 19.7525C60.014 18.9994 58.0131 16.7371 55.0256 16.6017C53.9461 16.5538 52.7876 16.7439 52.4933 17.1254Z" fill="#E3CEC0"/>
<path d="M53.9929 13.1262C53.8348 12.529 55.164 11.5852 56.6167 10.9416C57.4738 10.5615 58.3684 10.2676 58.7889 10.4183C59.2095 10.569 59.9027 11.8224 60.4244 12.9198C60.9442 14.0132 61.4945 15.3177 61.3278 15.7553C57.363 16.7719 54.1496 13.7241 53.9929 13.1262Z" fill="#E3CEC0"/>
<path d="M59.6721 24.8031C60.1717 24.1372 65.3964 22.6759 66.3587 23.021C67.3211 23.366 70.415 27.6672 70.0872 28.5371C69.7595 29.4069 67.0441 30.2806 63.9839 29.024C61.8332 28.0935 59.1725 25.469 59.6721 24.8031Z" fill="#E3CEC0"/>
<path d="M65.2043 11.5972C64.853 12.2558 65.3044 13.9787 66.2282 15.6592C66.9105 16.9002 67.5887 17.8971 68.3518 18.1707C69.1149 18.4442 70.3233 18.3946 71.8041 18.018C73.046 17.7014 74.3256 17.5134 74.529 16.779C74.7324 16.0446 72.8458 13.9996 70.3303 12.2654C68.8592 11.3521 65.5556 10.9386 65.2043 11.5972Z" fill="#E3CEC0"/>
<path d="M69.2627 21.2336C68.8853 22.2244 69.4065 23.6586 70.3146 25.3893C71.4305 27.5146 73.328 29.1175 73.8754 29.1922C74.4227 29.2669 76.2089 29.5813 76.5888 24.3121C78.5576 22.3604 78.8568 19.2349 77.8404 18.7832C76.8241 18.3316 75.3364 18.3069 73.309 18.8494C71.1132 19.4382 69.6401 20.2428 69.2627 21.2336Z" fill="#E3CEC0"/>
</g>
<defs>
<clipPath id="clip0_507_448">
<rect width="1218.95" height="104.827" fill="white" transform="translate(0.988281 0.122559)"/>
</clipPath>
</defs>
</svg>
