<svg width="16" height="16" viewBox="0 0 16 16" fill="none" xmlns="http://www.w3.org/2000/svg">
<mask id="mask0_622_12893" style="mask-type:alpha" maskUnits="userSpaceOnUse" x="0" y="0" width="16" height="16">
<rect width="16" height="15.6865" fill="#C4C4C4"/>
</mask>
<g mask="url(#mask0_622_12893)">
<path d="M4.46389 35.2944C4.46389 36.2576 4.93311 36.7393 5.87161 36.7393C6.81012 36.7393 7.27934 36.2576 7.27934 35.2944V22.2911H8.7214V35.2944C8.7214 36.2576 9.19069 36.7393 10.1291 36.7393C11.0676 36.7393 11.5368 36.2576 11.5368 35.2944V13.1407H12.2235V21.1215C12.2235 21.6261 12.3952 21.993 12.7386 22.2223C13.0819 22.4516 13.4367 22.4516 13.8029 22.2223C14.1692 21.993 14.3523 21.626 14.3523 21.1215V12.5215C14.3523 11.6041 14.0433 10.8932 13.4253 10.3886C12.8072 9.88413 11.9489 9.63184 10.8502 9.63184H5.21925C4.16634 9.63184 3.30797 9.86115 2.64415 10.3198C1.98032 10.7785 1.64844 11.4895 1.64844 12.4527V21.6031C1.64844 22.0159 1.83158 22.314 2.19779 22.4975C2.56401 22.681 2.91882 22.681 3.26217 22.4975C3.60552 22.314 3.77719 22.0159 3.77719 21.6031V13.1407H4.46389V35.2944Z" fill="white"/>
<path d="M5.0127 5.46992C5.0127 6.27262 5.29884 6.96062 5.87106 7.53394C6.44329 8.10725 7.12998 8.39394 7.93115 8.39394C8.73232 8.39394 9.41901 8.10725 9.99124 7.53394C10.5635 6.96062 10.8496 6.26113 10.8496 5.43552C10.8496 4.65567 10.5635 3.97915 9.99124 3.40591C9.41901 2.83259 8.73232 2.5459 7.93115 2.5459C7.12998 2.5459 6.44329 2.83259 5.87106 3.40591C5.29884 3.97922 5.0127 4.66723 5.0127 5.46992Z" fill="white"/>
</g>
</svg>
