<svg width="283" height="83" viewBox="0 0 283 83" fill="none" xmlns="http://www.w3.org/2000/svg">
<path fill-rule="evenodd" clip-rule="evenodd" d="M139.062 5L142.451 5C144.596 8.33813 146.252 10.1765 148.448 12.0749C150.117 13.4944 150.798 13.8753 151.445 13.7714C151.842 13.6848 152.83 13.4781 153.818 13.2713C154.016 13.23 154.214 13.1886 154.407 13.1482C156.246 12.7673 156.79 12.802 158.765 13.3559C163.192 14.5677 166.154 17.3375 169.117 23.0501C170.785 26.2353 172.147 27.828 174.088 28.8666L175.45 29.5591L174.326 30.0438C168.844 32.3289 162.375 32.2942 157.574 29.9053C155.258 28.7628 151.853 25.3352 150.73 23.0501C150.049 21.596 149.912 20.7997 149.912 17.9953C149.912 14.3253 149.776 13.9791 147.597 12.5942C146.882 12.1442 145.179 10.69 143.817 9.37439L141.332 6.95084L141.093 10.1707C140.957 11.9018 140.753 14.6023 140.685 16.1257L140.514 18.8954L142.047 19.7264C144.328 20.9382 145.077 22.7385 145.247 27.2048C145.418 31.8095 144.737 34.9255 142.626 39.3225C140.855 42.9925 138.608 45.8661 136.599 47.1471L135.339 47.9088L134.726 47.0779C133.807 45.8315 132.172 42.3347 131.559 40.1881C130.197 35.5834 130.197 29.9746 131.525 25.3698C132.479 22.1153 135.441 19.0686 137.654 19.0686C139.391 19.0686 139.663 18.3761 139.833 14.1522C139.931 10.8188 139.695 7.89649 139.062 5ZM210.713 5L211.894 5C211.772 5.93595 211.643 6.9698 211.509 8.09338L210.93 12.8366L212.258 14.0138C215.22 16.5758 216.548 21.2151 215.663 25.6122C215.152 28.1049 214.165 30.3208 212.19 33.4714C210.419 36.2758 209.943 37.6607 209.943 39.9111V41.9192L208.989 41.2267C207.287 39.9803 204.018 36.1027 202.928 34.0254C198.808 26.1661 201.056 16.1257 207.593 13.2867C209.704 12.3865 209.807 12.2827 210.045 11.3132C210.261 10.5017 210.526 7.78325 210.713 5ZM220.379 5C221.05 5.56298 221.69 6.08745 222.167 6.46613L224.142 8.02414V11.3825C224.142 14.2907 224.278 14.9832 225.061 16.7143C226.9 20.7651 229.998 23.154 236.093 25.3352C239.566 26.547 241.405 27.7241 242.529 29.386C242.971 30.0092 243.414 30.39 243.516 30.1823C244.095 29.2475 244.435 23.9503 244.061 21.1459C243.039 13.0097 236.91 6.57001 230.203 6.57001C228.772 6.57001 227.274 6.77774 226.491 7.12396C226.099 7.29247 225.813 7.42009 225.52 7.44162C224.833 7.49215 224.102 6.95883 221.843 5L220.379 5Z" fill="#007C37"/>
<path fill-rule="evenodd" clip-rule="evenodd" d="M108.533 7.42292V5.03279C108.548 5.02195 108.562 5.01101 108.577 4.99997L110.562 4.99997C109.946 5.7834 109.274 6.58492 108.533 7.42292ZM125.543 4.99997H127.212L126.88 7.02916C126.593 8.73876 126.152 11.4065 125.952 12.9155L125.54 15.655L127.017 16.6163C129.219 18.0222 129.821 19.8786 129.606 24.3353C129.38 28.9297 128.421 31.9686 125.906 36.1556C123.797 39.6495 121.276 42.3094 119.134 43.4065L117.794 44.0531L117.246 43.1728C116.424 41.8523 115.074 38.2308 114.64 36.0421C113.662 31.3428 114.147 25.7648 115.889 21.3023C117.135 18.1496 120.394 15.3805 122.632 15.5753C124.388 15.7282 124.724 15.0636 125.262 10.8779C125.505 8.80098 125.601 6.87379 125.543 4.99997ZM128.41 4.99997L130.451 4.99997C131.624 6.81079 132.765 8.1662 134.153 9.57046C135.717 11.1291 136.373 11.5678 137.036 11.5214C137.446 11.4702 138.468 11.351 139.489 11.2321C139.689 11.2087 139.89 11.1853 140.085 11.1625C141.978 10.9456 142.526 11.028 144.475 11.7528C148.846 13.3476 151.602 16.363 154.103 22.305C155.514 25.6196 156.753 27.3234 158.626 28.5273L159.943 29.3358L158.765 29.7189C153.024 31.5088 146.485 30.9047 141.837 28.1062C139.594 26.7661 136.448 23.0576 135.509 20.6862C134.947 19.1801 134.878 18.3761 135.121 15.5872C135.439 11.9374 135.331 11.5811 133.247 10.012C132.563 9.50139 130.967 7.90539 129.704 6.47707L128.41 4.99997ZM198.163 4.99997H199.652C199.275 6.50918 198.805 8.59697 198.265 11.1629L197.269 15.8291L198.51 17.1167C201.284 19.9255 202.225 24.6562 200.949 28.9511C200.217 31.3852 199.026 33.5019 196.756 36.4614C194.723 39.0944 194.121 40.4297 193.926 42.6678L193.752 44.6648L192.848 43.8923C191.235 42.5028 188.265 38.3587 187.343 36.1968C183.857 28.0181 186.999 18.2308 193.856 15.9829C196.069 15.2736 196.181 15.1793 196.506 14.2362C196.902 13.154 197.703 8.50321 198.163 4.99997ZM203.69 4.99997C204.167 5.47468 204.674 5.98962 205.191 6.52734C206.335 7.73708 208.156 9.52625 209.183 10.483L211.045 12.2063L210.755 15.5462C210.503 18.4384 210.58 19.1391 211.223 20.9296C212.731 25.12 215.658 27.7686 221.632 30.4744C225.039 31.9853 226.796 33.3179 227.789 35.0696C228.182 35.7283 228.597 36.146 228.718 35.9484C229.385 35.0697 230.188 29.8316 230.052 27.0097C229.723 18.8283 224.083 11.8844 217.3 11.2938C215.854 11.1679 214.321 11.2426 213.499 11.5179C213.088 11.6508 212.789 11.7525 212.491 11.7484C211.625 11.7365 210.771 10.8294 207.215 7.18926C206.5 6.45476 205.828 5.72588 205.197 4.99997H203.69Z" fill="#005E2D"/>
<path fill-rule="evenodd" clip-rule="evenodd" d="M137.926 4.99997H140.927C143.461 9.04723 145.254 11.0678 147.717 13.1616C149.411 14.5786 150.102 14.9588 150.759 14.8551C151.163 14.7686 152.169 14.5616 153.174 14.3548C153.373 14.3139 153.572 14.273 153.766 14.233C155.632 13.8528 156.185 13.8874 158.19 14.4404C162.683 15.65 165.69 18.415 168.697 24.1177C170.39 27.2974 171.773 28.8873 173.743 29.9242L175.125 30.6154L173.985 31.0993C168.42 33.3804 161.853 33.3458 156.98 30.961C154.63 29.8205 151.174 26.3988 150.033 24.1177C149.342 22.6661 149.204 21.8712 149.204 19.0717C149.204 15.4081 149.065 15.0625 146.853 13.68C146.128 13.2307 144.399 11.7791 143.017 10.4658L140.494 8.04642L140.252 11.2607C140.114 12.9888 139.906 15.6846 139.837 17.2054L139.664 19.9703L141.22 20.7998C143.535 22.0095 144.296 23.8067 144.469 28.2652C144.641 32.8619 143.95 35.9725 141.807 40.3619C140.01 44.0255 137.729 46.8941 135.69 48.1729L134.411 48.9333L133.789 48.1038C132.856 46.8596 131.197 43.3688 130.575 41.226C129.192 36.6292 129.192 31.0302 130.54 26.4334C131.508 23.1846 134.515 20.1431 136.761 20.1431C138.524 20.1431 138.8 19.4519 138.973 15.2353C139.085 11.4859 138.767 8.25752 137.926 4.99997ZM210.988 4.99997H212.266C212.099 6.20236 211.918 7.60564 211.726 9.18698L211.139 13.922L212.487 15.0971C215.494 17.6547 216.841 22.286 215.943 26.6754C215.424 29.1638 214.422 31.3758 212.418 34.5209C210.62 37.3205 210.136 38.7029 210.136 40.9495V42.954L209.169 42.2628C207.441 41.0186 204.123 37.1476 203.017 35.0739C198.835 27.2283 201.116 17.2054 207.752 14.3713C209.894 13.4727 209.998 13.369 210.24 12.4012C210.488 11.4842 210.8 8.12806 210.988 4.99997ZM219.415 4.99997H220.935C224.262 7.86239 225.135 8.59593 225.949 8.53626C226.246 8.5145 226.536 8.38722 226.934 8.21924C227.728 7.87362 229.249 7.66623 230.701 7.66623C237.51 7.66623 243.731 14.0948 244.768 22.2168C245.148 25.0163 244.802 30.3044 244.215 31.2375C244.111 31.4449 243.662 31.0647 243.212 30.4426C242.072 28.7836 240.205 27.6085 236.68 26.3989C230.493 24.2215 227.348 21.8367 225.482 17.7929C224.687 16.0648 224.549 15.3736 224.549 12.4704V9.11786L222.544 7.56256C221.75 6.94244 220.512 5.93066 219.415 4.99997Z" fill="#328C50" fill-opacity="0.72"/>
<path fill-rule="evenodd" clip-rule="evenodd" d="M32.5284 11L35.9171 11C38.0627 14.3381 39.7181 16.1765 41.9146 18.0749C43.5831 19.4944 44.2641 19.8753 44.911 19.7714C45.3082 19.6848 46.2966 19.4781 47.2849 19.2713C47.4826 19.23 47.6804 19.1886 47.8734 19.1482C49.7121 18.7673 50.2569 18.802 52.2318 19.3559C56.6583 20.5677 59.6207 23.3375 62.583 29.0501C64.2515 32.2353 65.6135 33.828 67.5544 34.8666L68.9164 35.5591L67.7927 36.0438C62.3106 38.3289 55.8411 38.2942 51.04 35.9053C48.7246 34.7628 45.3196 31.3352 44.196 29.0501C43.515 27.596 43.3788 26.7997 43.3788 23.9953C43.3788 20.3253 43.2426 19.9791 41.0633 18.5942C40.3483 18.1442 38.6458 16.69 37.2838 15.3744L34.7981 12.9508L34.5598 16.1707C34.4236 17.9018 34.2193 20.6023 34.1512 22.1257L33.9809 24.8954L35.5132 25.7264C37.7946 26.9382 38.5436 28.7385 38.7139 33.2048C38.8841 37.8095 38.2031 40.9255 36.092 45.3225C34.3214 48.9925 32.0741 51.8661 30.0652 53.1471L28.8053 53.9088L28.1924 53.0779C27.2731 51.8315 25.6387 48.3347 25.0257 46.1881C23.6637 41.5834 23.6637 35.9746 24.9917 31.3698C25.9451 28.1153 28.9075 25.0686 31.1207 25.0686C32.8573 25.0686 33.1297 24.3761 33.2999 20.1522C33.3978 16.8188 33.1617 13.8965 32.5284 11ZM104.179 11L105.36 11C105.238 11.9359 105.109 12.9698 104.975 14.0934L104.397 18.8366L105.725 20.0138C108.687 22.5758 110.015 27.2151 109.13 31.6122C108.619 34.1049 107.631 36.3208 105.656 39.4714C103.886 42.2758 103.409 43.6607 103.409 45.9111V47.9192L102.456 47.2267C100.753 45.9803 97.4844 42.1027 96.3948 40.0254C92.2747 32.1661 94.5221 22.1257 101.06 19.2867C103.171 18.3865 103.273 18.2827 103.511 17.3132C103.727 16.5017 103.992 13.7832 104.179 11ZM113.845 11C114.517 11.563 115.156 12.0874 115.633 12.4661L117.608 14.0241V17.3825C117.608 20.2907 117.744 20.9832 118.527 22.7143C120.366 26.7651 123.465 29.154 129.56 31.3352C133.033 32.547 134.871 33.7241 135.995 35.386C136.438 36.0092 136.88 36.39 136.983 36.1823C137.561 35.2475 137.902 29.9503 137.527 27.1459C136.506 19.0097 130.377 12.57 123.669 12.57C122.239 12.57 120.741 12.7777 119.958 13.124C119.565 13.2925 119.28 13.4201 118.987 13.4416C118.299 13.4922 117.569 12.9588 115.31 11H113.845Z" fill="#007C37"/>
<path fill-rule="evenodd" clip-rule="evenodd" d="M55.0356 51.727C52.9273 55.8745 48.9527 60.4367 46.1532 61.9228C45.4619 62.303 44.7361 62.5795 44.5288 62.6141C44.3214 62.6141 43.7338 61.7155 43.25 60.6441C39.9666 53.2478 41.0726 42.0842 45.6002 37.0728C47.3283 35.1718 47.985 34.8262 50.4389 34.6189L52.5126 34.4461L53.5494 31.3355C55.001 26.9807 58.1807 21.9692 63.0194 16.4738L65.1277 14.0544L63.8489 13.6397C63.1231 13.4324 61.3259 13.225 59.8743 13.225C57.6969 13.1904 57.1439 13.2941 56.8328 13.8125C56.5563 14.2273 56.3835 14.2618 56.2798 13.9854C56.1416 13.6743 55.3121 13.536 53.8951 13.536C52.7202 13.536 52.1586 13.5101 51.8259 13.7735C51.4931 14.0369 51.3894 14.5899 51.1301 15.748C51.0264 16.3355 50.6117 17.1996 50.2315 17.7526C49.402 18.8586 45.4274 20.8632 42.6624 21.5199C39.9666 22.142 34.6786 22.0728 31.4298 21.347C28.2155 20.6212 24.2063 18.824 22.9966 17.5452L22.1671 16.6812L23.2731 15.2987C25.8307 12.0844 31.4298 8.80102 36.3721 7.62592C40.3122 6.65818 45.22 6.79647 47.3628 7.93701C48.9873 8.7665 50.508 10.4254 50.819 11.6697C51.0264 12.4992 51.1647 12.5337 53.2384 12.4646C54.448 12.43 55.4504 12.2918 55.4504 12.1881C55.4504 11.5315 52.5126 9.11212 49.7476 7.4877C48.9355 7.00708 48.18 6.51146 47.4802 5.99997L59.0274 5.99997C58.7291 7.96582 58.0977 10.7989 57.6623 11.9807C57.4204 12.5683 57.8697 12.6029 62.0171 12.119C65.577 11.7042 66.6484 11.2895 67.9272 9.80331C68.7098 8.91582 69.5113 7.58385 70.2722 5.99997H71.7269C69.944 9.69152 67.4604 13.1533 63.2268 18.2019C57.8697 24.5959 54.9665 29.2272 54.0333 32.8562C53.584 34.6189 53.6186 34.7571 54.2407 35.1027C55.6577 35.8976 56.7637 37.4184 57.1784 39.1465C57.9042 42.2225 56.9365 47.9252 55.0356 51.727ZM83.7272 5.99997H87.2932C89.3805 9.15214 91.0273 10.9357 93.1921 12.7757C94.8856 14.1927 95.5768 14.5729 96.2335 14.4692C96.6376 14.3826 97.644 14.1756 98.6493 13.9687C98.8479 13.9279 99.0465 13.887 99.2404 13.8471C101.107 13.4669 101.66 13.5015 103.664 14.0544C108.157 15.2641 111.164 18.0291 114.171 23.7318C115.865 26.9115 117.247 28.5014 119.217 29.5382L120.6 30.2295L119.459 30.7133C113.895 32.9944 107.328 32.9599 102.455 30.5751C100.104 29.4346 96.6483 26.0129 95.5077 23.7318C94.8165 22.2802 94.6782 21.4853 94.6782 18.6858C94.6782 15.0222 94.54 14.6765 92.328 13.2941C91.6022 12.8448 89.8741 11.3932 88.4916 10.0798L85.9686 7.66049L85.7267 10.8748C85.5884 12.6029 85.3811 15.2987 85.3119 16.8194L85.1391 19.5844L86.6944 20.4139C89.0101 21.6235 89.7704 23.4208 89.9432 27.8793C90.116 32.476 89.4248 35.5866 87.282 39.976C85.4847 43.6396 83.2036 46.5082 81.1645 47.787L79.8857 48.5474L79.2636 47.7179C78.3304 46.4736 76.6714 42.9829 76.0493 40.8401C74.6668 36.2433 74.6668 30.6442 76.0147 26.0475C76.9825 22.7987 79.9894 19.7572 82.2359 19.7572C83.9986 19.7572 84.2751 19.0659 84.4479 14.8494C84.5439 11.6318 84.323 8.79787 83.7272 5.99997ZM13 5.99997L27.9676 5.99997C27.3364 9.57761 25.5059 12.747 22.4436 15.5406C20.2662 17.5452 15.2547 20.4484 13.9759 20.4484C13.3884 20.4484 13.3884 20.3793 13.8377 19.4461C14.8054 17.5452 14.7709 15.3332 13.8377 11.2204C13.3718 9.23616 13.0955 7.51037 13 5.99997Z" fill="#005E2D"/>
<path fill-rule="evenodd" clip-rule="evenodd" d="M85 7.42292V5.03279C85.0145 5.02195 85.0289 5.01101 85.0434 4.99997L87.0288 4.99997C86.4122 5.7834 85.7403 6.58492 85 7.42292ZM102.009 4.99997H103.679L103.347 7.02916C103.059 8.73876 102.619 11.4065 102.418 12.9155L102.006 15.655L103.484 16.6163C105.686 18.0222 106.287 19.8786 106.073 24.3353C105.846 28.9297 104.888 31.9686 102.372 36.1556C100.264 39.6495 97.7426 42.3094 95.6002 43.4065L94.2603 44.0531L93.7125 43.1728C92.8907 41.8523 91.5408 38.2308 91.1069 36.0421C90.1284 31.3428 90.614 25.7648 92.3556 21.3023C93.6015 18.1496 96.8609 15.3805 99.0989 15.5753C100.855 15.7282 101.19 15.0636 101.728 10.8779C101.972 8.80098 102.068 6.87379 102.009 4.99997ZM104.876 4.99997L106.918 4.99997C108.091 6.81079 109.232 8.1662 110.619 9.57046C112.184 11.1291 112.839 11.5678 113.502 11.5214C113.913 11.4702 114.935 11.351 115.955 11.2321C116.156 11.2087 116.356 11.1853 116.552 11.1625C118.444 10.9456 118.992 11.028 120.941 11.7528C125.312 13.3476 128.068 16.363 130.569 22.305C131.98 25.6196 133.22 27.3234 135.092 28.5273L136.41 29.3358L135.232 29.7189C129.49 31.5088 122.951 30.9047 118.303 28.1062C116.061 26.7661 112.914 23.0576 111.976 20.6862C111.413 19.1801 111.344 18.3761 111.587 15.5872C111.905 11.9374 111.797 11.5811 109.714 10.012C109.03 9.50139 107.434 7.90539 106.17 6.47707L104.876 4.99997ZM174.63 4.99997H176.119C175.741 6.50918 175.272 8.59697 174.732 11.1629L173.736 15.8291L174.977 17.1167C177.75 19.9255 178.691 24.6562 177.415 28.9511C176.683 31.3852 175.493 33.5019 173.223 36.4614C171.19 39.0944 170.588 40.4297 170.393 42.6678L170.219 44.6648L169.315 43.8923C167.701 42.5028 164.731 38.3587 163.809 36.1968C160.324 28.0181 163.466 18.2308 170.322 15.9829C172.535 15.2736 172.647 15.1793 172.972 14.2362C173.369 13.154 174.17 8.50321 174.63 4.99997ZM180.156 4.99997C180.634 5.47468 181.14 5.98962 181.658 6.52734C182.801 7.73708 184.623 9.52625 185.65 10.483L187.512 12.2063L187.221 15.5462C186.969 18.4384 187.047 19.1391 187.689 20.9296C189.198 25.12 192.124 27.7686 198.098 30.4744C201.506 31.9853 203.263 33.3179 204.255 35.0696C204.649 35.7283 205.064 36.146 205.185 35.9484C205.851 35.0697 206.654 29.8316 206.518 27.0097C206.19 18.8283 200.55 11.8844 193.767 11.2938C192.321 11.1679 190.788 11.2426 189.966 11.5179C189.555 11.6508 189.255 11.7525 188.958 11.7484C188.091 11.7365 187.237 10.8294 183.681 7.18926C182.967 6.45476 182.294 5.72588 181.663 4.99997H180.156Z" fill="#005E2D"/>
<path fill-rule="evenodd" clip-rule="evenodd" d="M31.3927 11L34.3939 11C36.928 15.0472 38.7207 17.0678 41.184 19.1616C42.8775 20.5786 43.5688 20.9588 44.2254 20.8551C44.6299 20.7685 45.6379 20.5611 46.6441 20.354C46.8418 20.3134 47.0394 20.2727 47.2323 20.233C49.0987 19.8528 49.6517 19.8874 51.6563 20.4404C56.1493 21.6501 59.1562 24.415 62.1631 30.1177C63.8567 33.2974 65.2391 34.8873 67.2092 35.9242L68.5917 36.6154L67.4511 37.0993C61.8866 39.3804 55.3199 39.3458 50.4466 36.961C48.0964 35.8205 44.6402 32.3988 43.4996 30.1177C42.8084 28.6661 42.6702 27.8712 42.6702 25.0717C42.6702 21.4081 42.5319 21.0625 40.3199 19.68C39.5941 19.2307 37.866 17.7791 36.4836 16.4658L33.9605 14.0464L33.7186 17.2607C33.5803 18.9888 33.373 21.6846 33.3039 23.2054L33.131 25.9703L34.6863 26.7998C37.002 28.0095 37.7624 29.8067 37.9352 34.2652C38.108 38.8619 37.4167 41.9725 35.2739 46.3619C33.4767 50.0255 31.1956 52.8941 29.1564 54.1729L27.8776 54.9333L27.2555 54.1038C26.3223 52.8596 24.6634 49.3688 24.0412 47.226C22.6588 42.6292 22.6588 37.0302 24.0067 32.4334C24.9744 29.1846 27.9813 26.1431 30.2278 26.1431C31.9905 26.1431 32.267 25.4519 32.4398 21.2353C32.5517 17.4859 32.2332 14.2575 31.3927 11ZM104.455 11H105.733C105.566 12.2024 105.385 13.6056 105.193 15.187L104.605 19.922L105.953 21.0971C108.96 23.6547 110.308 28.286 109.409 32.6753C108.891 35.1638 107.889 37.3758 105.884 40.5209C104.087 43.3204 103.603 44.7029 103.603 46.9494V48.9541L102.635 48.2628C100.907 47.0186 97.5892 43.1476 96.4832 41.0739C92.3012 33.2283 94.5823 23.2054 101.218 20.3713C103.361 19.4727 103.465 19.369 103.707 18.4012C103.955 17.4842 104.267 14.1281 104.455 11ZM112.882 11L114.401 11C117.729 13.8624 118.602 14.5959 119.416 14.5363C119.713 14.5145 120.002 14.3872 120.4 14.2192C121.195 13.8736 122.716 13.6662 124.167 13.6662C130.976 13.6662 137.197 20.0948 138.234 28.2168C138.614 31.0163 138.269 36.3044 137.681 37.2375C137.577 37.4449 137.128 37.0647 136.679 36.4426C135.538 34.7836 133.672 33.6085 130.147 32.3989C123.96 30.2215 120.815 27.8367 118.949 23.7929C118.154 22.0648 118.015 21.3736 118.015 18.4704V15.1178L116.011 13.5625C115.217 12.9424 113.978 11.9307 112.882 11Z" fill="#328C50" fill-opacity="0.72"/>
<path fill-rule="evenodd" clip-rule="evenodd" d="M54.5832 52.4244C52.3547 56.5085 48.2486 60.9527 45.4069 62.3565C44.7052 62.7161 43.9721 62.9712 43.7633 63H43.7617C43.5533 62.9902 42.9937 62.0763 42.5422 60.9935C39.4762 53.5045 40.9077 42.378 45.5797 37.5009C47.3625 35.6512 48.029 35.3249 50.488 35.1893L52.5658 35.0771L53.6931 31.9981C55.2712 27.6876 58.5959 22.7711 63.5929 17.4193L65.771 15.0625L64.5048 14.6107C63.7854 14.3822 61.995 14.1224 60.544 14.08C58.3685 13.9819 57.8128 14.0694 57.4867 14.5785C57.1982 14.985 57.0245 15.0145 56.9289 14.7351C56.7998 14.4202 55.9747 14.2578 54.5583 14.2164C53.3839 14.1821 52.8233 14.1398 52.483 14.3933C52.1426 14.6469 52.0229 15.1966 51.7299 16.3467C51.6091 16.9309 51.1693 17.7825 50.7731 18.3242C49.9117 19.4055 45.8802 21.2932 43.0973 21.8688C40.3844 22.412 35.1007 22.1885 31.8745 21.3681C28.6828 20.5488 24.7277 18.6353 23.5559 17.3217L22.752 16.4338L23.8979 15.0842C25.8538 12.7683 29.4664 10.4631 33.2247 8.99997L49.0704 8.99997C50.301 9.92748 51.3149 11.2428 51.538 12.261C51.7211 13.0962 51.8583 13.1348 53.9331 13.1262C55.1433 13.127 56.1492 13.0181 56.1522 12.9145C56.1681 12.3725 54.2172 10.571 52.0076 8.99997L59.4517 8.99997C59.1009 10.4941 58.6813 11.9957 58.3693 12.7718C58.1103 13.352 58.5584 13.3996 62.7182 13.0371C66.2887 12.7265 67.3718 12.3432 68.6934 10.895C69.1582 10.398 69.6335 9.75419 70.1069 8.99997H71.601C69.8072 12.0069 67.4034 15.0456 63.7498 19.1527C58.2083 25.3875 55.1711 29.9321 54.1323 33.5324C53.6317 35.2812 53.6623 35.4203 54.274 35.7839C55.6672 36.6199 56.7284 38.1723 57.0925 39.9118C57.7281 43.0077 56.5943 48.6797 54.5832 52.4244ZM84.8283 8.99997L89.0252 8.99997C90.6402 11.4145 92.0632 12.9831 93.8607 14.6037C95.5121 16.0696 96.192 16.4698 96.8514 16.3853C97.2582 16.3105 98.2718 16.1327 99.2836 15.9551C99.4824 15.9202 99.6811 15.8853 99.8752 15.8513C101.752 15.5257 102.304 15.5764 104.291 16.1877C108.747 17.5281 111.672 20.3796 114.511 26.1677C116.111 29.3955 117.446 31.0251 119.385 32.119L120.747 32.8503L119.593 33.3007C113.964 35.4183 107.401 35.1921 102.6 32.666C100.284 31.4573 96.9289 27.9362 95.8555 25.6228C95.2069 24.1516 95.0919 23.353 95.1737 20.5547C95.2806 16.8927 95.1525 16.5432 92.9819 15.0967C92.2695 14.6264 90.5845 13.125 89.241 11.7718L86.7897 9.2798L86.454 12.4856C86.2653 14.209 85.9794 16.8976 85.8659 18.4157L85.6124 21.1744L87.1428 22.049C89.4221 23.3257 90.1297 25.1444 90.1723 29.606C90.2108 34.2058 89.429 37.2949 87.1589 41.6199C85.2555 45.2294 82.8916 48.0302 80.816 49.2489L79.5156 49.9716L78.9179 49.1243C78.0215 47.8534 76.4651 44.3157 75.9058 42.1556C74.6582 37.5204 74.8216 31.9238 76.3032 27.3683C77.3654 24.1491 80.4598 21.1968 82.7054 21.2624C84.4673 21.3138 84.7638 20.631 85.0597 16.4212C85.2172 13.7565 85.1492 11.3491 84.8283 8.99997ZM14.2667 8.99997L27.8829 8.99997C26.8677 11.31 25.2645 13.407 23.0617 15.3018C20.8267 17.242 15.7326 19.9976 14.4543 19.9603C13.867 19.9431 13.869 19.874 14.3454 18.9544C15.3682 17.0825 15.3983 14.8705 14.5856 10.7321C14.4629 10.1312 14.3567 9.55425 14.2667 8.99997Z" fill="#007C37"/>
<path fill-rule="evenodd" clip-rule="evenodd" d="M54.7967 48.3524C52.6884 52.4999 48.7138 57.0621 45.9143 58.5482C45.223 58.9284 44.4972 59.2049 44.2899 59.2394C44.0825 59.2394 43.4949 58.3409 43.0111 57.2694C39.7277 49.8732 40.8337 38.7096 45.3613 33.6981C47.0894 31.7972 47.7461 31.4516 50.2 31.2442L52.2737 31.0714L53.3105 27.9608C54.7622 23.606 57.9419 18.5945 62.7805 13.0992L64.8888 10.6798L63.61 10.2651C62.8842 10.0577 61.087 9.85035 59.6354 9.85035C57.458 9.81578 56.905 9.91947 56.5939 10.4379C56.3174 10.8526 56.1446 10.8872 56.0409 10.6107C55.9027 10.2997 55.0732 10.1614 53.6562 10.1614C52.4813 10.1614 51.9197 10.1355 51.587 10.3988C51.2542 10.6623 51.1505 11.2153 50.8912 12.3734C50.7875 12.9609 50.3728 13.825 49.9926 14.378C49.1631 15.4839 45.1885 17.4886 42.4235 18.1452C39.7277 18.7674 34.4397 18.6982 31.1909 17.9724C27.9766 17.2466 23.9674 15.4494 22.7577 14.1706L21.9282 13.3066L23.0342 11.924C24.757 9.75887 27.86 7.56234 31.2126 5.99997L49.0804 5.99997C49.8357 6.74667 50.4033 7.58785 50.5801 8.29505C50.7875 9.12454 50.9258 9.15909 52.9995 9.08997C54.2092 9.05541 55.2115 8.9172 55.2115 8.81351C55.2115 8.38653 53.9694 7.21432 52.3404 5.99997L58.1368 5.99997C57.8933 7.0661 57.6352 8.03137 57.4234 8.60611C57.1815 9.19367 57.6308 9.22823 61.7782 8.74436C65.3381 8.32961 66.4095 7.91485 67.6883 6.42868C67.8057 6.29556 67.9235 6.15244 68.0416 5.99997L69.6255 5.99997C68.0222 8.58288 65.9267 11.3228 62.9879 14.8273C57.6308 21.2212 54.7276 25.8526 53.7944 29.4816C53.3451 31.2443 53.3797 31.3825 54.0018 31.7281C55.4188 32.523 56.5248 34.0437 56.9395 35.7718C57.6653 38.8478 56.6976 44.5506 54.7967 48.3524ZM84.0247 5.99997L85.6007 5.99997L85.4878 7.50013C85.3495 9.22823 85.1422 11.9241 85.073 13.4448L84.9002 16.2098L86.4555 17.0392C88.7712 18.2489 89.5315 20.0461 89.7043 24.5046C89.8771 29.1014 89.1859 32.212 87.0431 36.6014C85.2458 40.2649 82.9648 43.1336 80.9256 44.4124L79.6468 45.1727L79.0247 44.3432C78.0915 43.099 76.4325 39.6083 75.8104 37.4654C74.4279 32.8687 74.4279 27.2696 75.7758 22.6729C76.7436 19.424 79.7505 16.3826 81.997 16.3826C83.7597 16.3826 84.0362 15.6913 84.209 11.4747C84.2669 9.53585 84.2096 7.73629 84.0247 5.99997ZM87.5173 5.99997L89.5403 5.99997C90.6282 7.29719 91.7046 8.33971 92.9532 9.40104C94.6467 10.8181 95.3379 11.1983 95.9946 11.0946C96.3986 11.008 97.4049 10.801 98.4101 10.5942C98.6088 10.5533 98.8075 10.5124 99.0015 10.4724C100.868 10.0923 101.421 10.1268 103.425 10.6798C107.919 11.8895 110.925 14.6544 113.932 20.3572C115.626 23.5369 117.008 25.1267 118.978 26.1636L120.361 26.8549L119.22 27.3387C113.656 29.6198 107.089 29.5853 102.216 27.2005C99.8656 26.0599 96.4094 22.6383 95.2688 20.3572C94.5776 18.9056 94.4393 18.1107 94.4393 15.3111C94.4393 11.6476 94.3011 11.3019 92.0891 9.91944C91.3633 9.47013 89.6352 8.01856 88.2527 6.7052L87.5173 5.99997ZM13.2059 5.99997L26.7258 5.99997C25.771 8.23239 24.2672 10.2844 22.2047 12.166C20.0273 14.1706 15.0158 17.0738 13.737 17.0738C13.1495 17.0738 13.1495 17.0047 13.5988 16.0715C14.5665 14.1706 14.532 11.9586 13.5988 7.84574C13.4481 7.20393 13.3172 6.58916 13.2059 5.99997Z" fill="#328C50" fill-opacity="0.72"/>
<path d="M227.724 45.3677C227.077 41.8247 227.459 40.2955 230.411 34.4952C231.533 32.2974 232.121 30.6307 232.32 29.044C232.689 26.2183 231.869 22.8931 229.926 19.3432C229.153 17.925 227.622 15.5135 227.559 15.6042C227.538 15.6344 227.524 16.1047 227.529 16.6586C227.549 18.8115 227.081 21.0426 225.89 24.4301C225.125 26.5932 224.536 28.9666 224.442 30.2256C224.341 31.5744 224.553 33.4672 224.934 34.7139L225.209 35.6326L224.853 35.0234C224.634 34.634 224.366 33.8649 224.142 32.9216C223.56 30.5366 223.639 29.1551 224.735 23.8344C225.429 20.4264 225.653 18.7076 225.637 17.0459C225.612 15.2854 225.654 15.4016 225.015 15.5538C224.11 15.7693 222.259 16.5632 221.162 17.2155C218.385 18.8481 216.345 21.6808 215.841 24.5891C215.456 26.7503 215.5 27.5852 216.156 30.3435C216.665 32.4809 216.855 33.0414 217.381 34.1275C219.412 38.2871 222.589 42.2371 226.877 45.9478L228.008 46.9152L227.724 45.3677Z" fill="#005E2D"/>
<path d="M277.606 15.1236C274.019 15.4426 272.531 14.9224 267.026 11.451C264.94 10.1315 263.335 9.39322 261.773 9.04954C258.993 8.4237 255.607 8.93511 251.894 10.5439C250.41 11.1843 247.869 12.4874 247.953 12.5583C247.981 12.5819 248.448 12.6396 249 12.6852C251.146 12.8625 253.325 13.5328 256.589 15.0295C258.673 15.9898 260.982 16.7935 262.227 17.0027C263.561 17.2269 265.465 17.1899 266.742 16.9246L267.682 16.735L267.042 17.0337C266.635 17.2164 265.844 17.4122 264.884 17.5494C262.456 17.9101 261.088 17.7047 255.89 16.1247C252.56 15.1213 250.869 14.7408 249.213 14.6041C247.457 14.4678 247.577 14.4369 247.67 15.0872C247.801 16.0084 248.422 17.9242 248.971 19.0762C250.342 21.9908 252.976 24.2826 255.826 25.0505C257.942 25.6329 258.778 25.6656 261.585 25.2646C263.76 24.9539 264.335 24.8164 265.465 24.3923C269.793 22.751 274.018 19.9494 278.106 16.0199L279.173 14.9827L277.606 15.1236Z" fill="#005E2D"/>
<path d="M274.267 53.4804C271.891 50.7739 271.432 49.2661 270.982 42.7734C270.815 40.3111 270.463 38.5793 269.818 37.116C268.681 34.503 266.268 32.0724 262.777 30.0262C261.384 29.2076 258.832 27.9262 258.824 28.0362C258.822 28.0729 259.051 28.4839 259.34 28.9563C260.464 30.7924 261.21 32.9465 261.93 36.4644C262.386 38.7132 263.102 41.0515 263.668 42.1797C264.275 43.3885 265.429 44.9033 266.397 45.7766L267.106 46.4232L266.487 46.0838C266.099 45.8625 265.474 45.3404 264.796 44.6467C263.071 42.9002 262.428 41.6746 260.634 36.5471C259.477 33.2673 258.785 31.678 257.917 30.2608C256.99 28.7638 257.086 28.842 256.616 29.301C255.95 29.9513 254.771 31.5838 254.166 32.7071C252.624 35.5349 252.33 39.0138 253.393 41.7671C254.173 43.8191 254.64 44.5126 256.622 46.5408C258.157 48.1125 258.608 48.4957 259.617 49.1569C263.498 51.6804 268.254 53.4349 273.839 54.4133L275.307 54.6617L274.267 53.4804Z" fill="#005E2D"/>
<path d="M242.591 65.5557C242.309 61.9652 242.845 60.4829 246.374 55.0142C247.715 52.9425 248.47 51.3445 248.83 49.7863C249.484 47.013 249.008 43.6215 247.438 39.8919C246.813 38.4021 245.537 35.847 245.465 35.9308C245.441 35.9587 245.379 36.4251 245.327 36.9766C245.128 39.1203 244.435 41.292 242.904 44.5402C241.922 46.6139 241.094 48.9149 240.872 50.1577C240.634 51.4892 240.651 53.3936 240.903 54.6727L241.083 55.6147L240.791 54.9724C240.613 54.5626 240.425 53.7702 240.298 52.8089C239.963 50.377 240.182 49.0108 241.816 43.8297C242.854 40.5104 243.252 38.8235 243.406 37.1688C243.561 35.4149 243.591 35.5348 242.939 35.6209C242.017 35.7429 240.095 36.3438 238.937 36.8807C236.008 38.2214 233.689 40.831 232.892 43.6727C232.287 45.7832 232.246 46.6182 232.617 49.4292C232.905 51.6074 233.037 52.1843 233.449 53.3184C235.045 57.6637 237.803 61.9173 241.689 66.0463L242.715 67.124L242.591 65.5557Z" fill="#005E2D"/>
<path d="M202.358 51.9995C204.125 48.861 205.395 47.9284 211.372 45.3529C213.64 44.3796 215.157 43.4732 216.324 42.3798C218.413 40.4415 219.907 37.3599 220.681 33.388C220.992 31.8027 221.356 28.9696 221.249 28.9992C221.214 29.0091 220.902 29.3616 220.552 29.791C219.192 31.4599 217.407 32.8773 214.326 34.722C212.355 35.897 210.386 37.3467 209.509 38.2549C208.57 39.2281 207.523 40.8191 207.02 42.0217L206.644 42.9041L206.76 42.208C206.84 41.7683 207.125 41.0058 207.555 40.1367C208.632 37.9303 209.575 36.9181 213.819 33.5259C216.53 31.3478 217.8 30.1687 218.85 28.8803C219.956 27.51 219.913 27.6261 219.325 27.3348C218.49 26.9221 216.559 26.3502 215.299 26.1512C212.12 25.6329 208.74 26.5079 206.495 28.4235C204.817 29.8394 204.317 30.5097 203.06 33.0511C202.086 35.0204 201.874 35.5728 201.584 36.7443C200.489 41.242 200.409 46.3105 201.336 51.9048L201.588 53.3713L202.358 51.9995Z" fill="#005E2D"/>
<path d="M176.382 45.2735C178.874 42.6737 180.337 42.0868 186.767 41.0806C189.205 40.7026 190.901 40.2025 192.303 39.4341C194.809 38.077 197.023 35.4644 198.762 31.8103C199.458 30.3523 200.515 27.699 200.405 27.7012C200.368 27.7019 199.978 27.9656 199.532 28.2945C197.8 29.5722 195.718 30.5004 192.274 31.5199C190.073 32.1673 187.805 33.081 186.73 33.7423C185.577 34.4509 184.168 35.7313 183.381 36.7706L182.797 37.5318L183.082 36.8863C183.269 36.4804 183.736 35.813 184.369 35.0783C185.96 33.2094 187.126 32.464 192.081 30.2352C195.249 28.8007 196.773 27.9751 198.11 26.9886C199.522 25.9367 199.452 26.0386 198.955 25.6099C198.25 25.0026 196.522 23.9679 195.351 23.4613C192.401 22.1678 188.91 22.1738 186.258 23.4699C184.28 24.4235 183.63 24.9484 181.779 27.0967C180.345 28.7614 180.002 29.2435 179.43 30.306C177.249 34.3894 175.91 39.2784 175.415 44.9273L175.294 46.4104L176.382 45.2735Z" fill="#005E2D"/>
<path d="M212.442 39.1897C210.571 36.1124 210.38 34.5479 211.062 28.0754C211.325 25.6215 211.277 23.8547 210.896 22.3018C210.229 19.5313 208.274 16.7194 205.19 14.0991C203.96 13.0515 201.668 11.3471 201.642 11.4542C201.633 11.49 201.788 11.9344 201.991 12.4498C202.78 14.453 203.141 16.7037 203.241 20.2932C203.3 22.5869 203.599 25.0138 203.962 26.2231C204.35 27.5188 205.224 29.2107 206.026 30.2386L206.612 30.9982L206.061 30.5566C205.717 30.2714 205.192 29.6489 204.645 28.8484C203.249 26.8293 202.828 25.5109 201.949 20.1499C201.378 16.7192 200.972 15.0341 200.363 13.4879C199.71 11.853 199.791 11.9466 199.248 12.3172C198.48 12.8423 197.036 14.2457 196.245 15.2471C194.236 17.7649 193.343 21.1401 193.914 24.0361C194.326 26.1922 194.666 26.9562 196.266 29.2971C197.506 31.1111 197.883 31.5666 198.763 32.3927C202.148 35.5506 206.527 38.1028 211.859 40.0343L213.261 40.5332L212.442 39.1897Z" fill="#005E2D"/>
<path d="M44.8676 78.696C44.2331 75.1508 44.6199 73.6228 47.5916 67.8326C48.7218 65.6387 49.3154 63.974 49.5198 62.388C49.8978 59.5635 49.0893 56.2356 47.159 52.6791C46.3901 51.2582 44.8676 48.8416 44.8045 48.932C44.7834 48.9622 44.7672 49.4324 44.7706 49.9864C44.7834 52.1393 44.3081 54.3687 43.1054 57.7522C42.3329 59.9127 41.7363 62.2841 41.6378 63.5427C41.5323 64.8912 41.7373 66.7847 42.1143 68.0327L42.3862 68.9523L42.0322 68.3419C41.8142 67.9518 41.5493 67.1818 41.328 66.2377C40.7542 63.8507 40.838 62.4695 41.9528 57.1525C42.6583 53.747 42.888 52.0289 42.8779 50.3671C42.8587 48.6066 42.9 48.723 42.2604 48.8729C41.3544 49.0854 39.5009 49.873 38.4019 50.5215C35.6198 52.1446 33.5695 54.9704 33.0562 57.877C32.663 60.0368 32.7042 60.8718 33.3515 63.6324C33.853 65.7715 34.0408 66.3326 34.563 67.4205C36.5801 71.587 39.7438 75.5478 44.019 79.2732L45.1463 80.2444L44.8676 78.696Z" fill="#005E2D"/>
<path d="M105.755 63.7162C104.494 60.6389 104.553 59.181 106.15 53.3563C106.758 51.1484 106.98 49.5257 106.861 48.0517C106.662 45.424 105.284 42.5777 102.839 39.7483C101.864 38.6175 100.01 36.737 99.9698 36.8313C99.9564 36.8628 100.032 37.291 100.142 37.7909C100.568 39.7339 100.563 41.8434 100.117 45.1406C99.8281 47.247 99.7401 49.5089 99.8925 50.6659C100.056 51.9056 100.607 53.5759 101.191 54.6286L101.616 55.4055L101.176 54.9244C100.902 54.6152 100.512 53.9722 100.128 53.1632C99.1457 51.1204 98.9563 49.8555 98.9501 44.8284C98.9385 41.6103 98.8174 40.0119 98.4884 38.5122C98.1321 36.925 98.1922 37.0219 97.6376 37.2849C96.8519 37.6574 95.3125 38.7386 94.4348 39.5436C92.209 41.5648 90.8823 44.527 90.9734 47.256C91.0303 49.2861 91.2285 50.0326 92.3503 52.3983C93.2195 54.2314 93.4988 54.7011 94.1845 55.5801C96.8264 58.9435 100.475 61.8923 105.092 64.407L106.307 65.06L105.755 63.7162Z" fill="#005E2D"/>
<path d="M214.442 39.1751C212.571 36.0978 212.38 34.5333 213.062 28.0608C213.325 25.6069 213.277 23.8401 212.896 22.2872C212.229 19.5167 210.274 16.7048 207.19 14.0845C205.96 13.0369 203.668 11.3325 203.642 11.4397C203.633 11.4754 203.788 11.9198 203.991 12.4352C204.78 14.4384 205.141 16.6891 205.241 20.2786C205.3 22.5723 205.599 24.9992 205.962 26.2085C206.35 27.5043 207.224 29.1962 208.026 30.224L208.612 30.9836L208.061 30.542C207.717 30.2568 207.192 29.6343 206.645 28.8338C205.249 26.8147 204.828 25.4963 203.949 20.1353C203.378 16.7047 202.972 15.0195 202.363 13.4733C201.71 11.8384 201.791 11.932 201.248 12.3026C200.48 12.8277 199.036 14.2312 198.245 15.2326C196.236 17.7503 195.343 21.1255 195.914 24.0215C196.326 26.1777 196.666 26.9416 198.266 29.2825C199.506 31.0965 199.883 31.552 200.763 32.3782C204.148 35.536 208.527 38.0882 213.859 40.0197L215.261 40.5186L214.442 39.1751Z" fill="#005E2D"/>
<path d="M211.463 38.4739C209.929 35.523 209.856 34.0658 210.92 28.1206C211.327 25.8668 211.401 24.2308 211.15 22.7735C210.715 20.1745 209.086 17.4641 206.395 14.8671C205.322 13.8289 203.306 12.1234 203.274 12.221C203.264 12.2535 203.378 12.6732 203.532 13.1611C204.132 15.0577 204.318 17.159 204.171 20.4831C204.073 22.607 204.19 24.8676 204.446 26.0061C204.72 27.226 205.42 28.8397 206.097 29.8353L206.59 30.5707L206.108 30.1313C205.808 29.8482 205.361 29.2429 204.906 28.4718C203.743 26.5261 203.44 25.2835 202.981 20.2775C202.678 17.0735 202.414 15.4926 201.95 14.0287C201.452 12.4802 201.521 12.5713 200.992 12.8833C200.244 13.3252 198.808 14.5409 198.007 15.4219C195.972 17.6358 194.918 20.7056 195.255 23.4152C195.495 25.4319 195.76 26.1574 197.091 28.4122C198.122 30.1594 198.443 30.6019 199.205 31.4155C202.14 34.5266 206.039 37.1341 210.864 39.2217L212.134 39.7623L211.463 38.4739Z" fill="#328C50"/>
<path d="M130.409 47.8457C127.913 45.6482 127.319 44.3158 126.163 38.3876C125.729 36.139 125.207 34.5868 124.446 33.3187C123.101 31.0524 120.603 29.1138 117.155 27.6643C115.78 27.0839 113.284 26.222 113.289 26.3244C113.291 26.3585 113.549 26.7086 113.87 27.1078C115.114 28.6597 116.046 30.5519 117.111 33.7044C117.787 35.7201 118.712 37.7859 119.362 38.755C120.059 39.7933 121.295 41.0451 122.285 41.7291L123.011 42.2365L122.403 42.001C122.02 41.8456 121.385 41.4425 120.683 40.8879C118.895 39.4938 118.164 38.4445 115.926 33.9428C114.487 31.0644 113.669 29.6859 112.708 28.4882C111.684 27.2242 111.781 27.2844 111.401 27.7662C110.862 28.4489 109.963 30.101 109.534 31.2121C108.437 34.0114 108.563 37.2547 109.857 39.6595C110.809 41.4533 111.318 42.0341 113.373 43.6558C114.966 44.9125 115.425 45.2093 116.43 45.6926C120.29 47.5332 124.869 48.5557 130.122 48.7591L131.501 48.8046L130.409 47.8457Z" fill="#005E2D"/>
<path d="M190.452 53.4076C187.956 51.2101 187.361 49.8777 186.206 43.9495C185.771 41.7008 185.249 40.1487 184.488 38.8806C183.143 36.6143 180.645 34.6756 177.198 33.2261C175.822 32.6457 173.326 31.7839 173.332 31.8862C173.334 31.9203 173.592 32.2704 173.912 32.6697C175.156 34.2215 176.089 36.1137 177.153 39.2662C177.829 41.282 178.754 43.3478 179.405 44.3169C180.101 45.3552 181.337 46.607 182.328 47.2909L183.053 47.7984L182.445 47.5628C182.063 47.4074 181.428 47.0043 180.725 46.4497C178.937 45.0557 178.206 44.0063 175.969 39.5046C174.529 36.6262 173.711 35.2478 172.751 34.05C171.727 32.7861 171.823 32.8462 171.443 33.3281C170.905 34.0107 170.005 35.6629 169.576 36.774C168.479 39.5732 168.606 42.8165 169.899 45.2213C170.851 47.0152 171.36 47.596 173.416 49.2177C175.008 50.4743 175.467 50.7712 176.472 51.2544C180.332 53.0951 184.911 54.1176 190.164 54.3209L191.543 54.3664L190.452 53.4076Z" fill="#007C37"/>
<path d="M164.797 56.2677C163.522 53.1959 163.575 51.7378 165.146 45.9061C165.745 43.6956 165.959 42.072 165.834 40.5985C165.624 37.9717 164.234 35.1314 161.776 32.3127C160.796 31.1862 158.934 29.3138 158.895 29.4082C158.881 29.4397 158.959 29.8676 159.071 30.3671C159.505 32.3082 159.51 34.4176 159.078 37.7168C158.798 39.8244 158.72 42.0867 158.877 43.2431C159.046 44.482 159.605 46.1499 160.193 47.2L160.622 47.975L160.179 47.4959C159.904 47.1879 159.511 46.5466 159.124 45.7392C158.133 43.7008 157.938 42.4367 157.91 37.4097C157.884 34.1916 157.756 32.5938 157.42 31.0955C157.057 29.5099 157.118 29.6066 156.564 29.872C155.78 30.2479 154.246 31.3357 153.371 32.1446C151.154 34.1755 149.841 37.1434 149.944 39.8719C150.009 41.9018 150.211 42.6474 151.343 45.0082C152.22 46.8375 152.501 47.306 153.191 48.182C155.847 51.5338 159.509 54.4668 164.136 56.9613L165.355 57.609L164.797 56.2677Z" fill="#007C37"/>
<path d="M49.6 30.1079C48.3256 27.036 48.3781 25.578 49.9496 19.7463C50.5488 17.5358 50.763 15.9122 50.6378 14.4387C50.4277 11.8118 49.0374 8.97156 46.5797 6.15287C45.5999 5.02633 43.7378 3.1539 43.698 3.24839C43.6847 3.27989 43.7623 3.70779 43.8741 4.20722C44.3086 6.14832 44.3132 8.2578 43.8814 11.557C43.6016 13.6646 43.5235 15.9269 43.6809 17.0832C43.8495 18.3222 44.4082 19.99 44.9968 21.0401L45.4252 21.8152L44.9827 21.336C44.7074 21.0281 44.3148 20.3867 43.9277 19.5794C42.936 17.5409 42.7412 16.2768 42.7131 11.2499C42.6874 8.03177 42.5594 6.43396 42.2239 4.93566C41.8607 3.35007 41.9212 3.44674 41.3678 3.71212C40.5837 4.08807 39.0491 5.17588 38.1748 5.98475C35.9579 8.01562 34.6441 10.9836 34.747 13.7121C34.8127 15.742 35.0142 16.4875 36.1462 18.8483C37.0234 20.6777 37.3048 21.1461 37.9943 22.0222C40.6509 25.374 44.312 28.3069 48.9399 30.8015L50.1581 31.4492L49.6 30.1079Z" fill="#007C37"/>
<path d="M133.615 31.4946C132.341 28.4228 132.393 26.9647 133.964 21.1331C134.564 18.9226 134.778 17.299 134.653 15.8255C134.443 13.1986 133.052 10.3583 130.595 7.53965C129.615 6.41311 127.753 4.54068 127.713 4.63517C127.7 4.66667 127.777 5.09457 127.889 5.594C128.323 7.5351 128.328 9.64458 127.896 12.9437C127.616 15.0514 127.538 17.3136 127.696 18.47C127.864 19.7089 128.423 21.3768 129.012 22.4269L129.44 23.202L128.998 22.7228C128.722 22.4149 128.33 21.7735 127.943 20.9661C126.951 18.9277 126.756 17.6636 126.728 12.6366C126.702 9.41855 126.574 7.82074 126.239 6.32244C125.876 4.73685 125.936 4.83352 125.383 5.0989C124.599 5.47485 123.064 6.56266 122.19 7.37153C119.973 9.4024 118.659 12.3703 118.762 15.0989C118.828 17.1288 119.029 17.8743 120.161 20.2351C121.038 22.0645 121.32 22.5329 122.009 23.409C124.666 26.7608 128.327 29.6937 132.955 32.1882L134.173 32.836L133.615 31.4946Z" fill="#007C37"/>
<path d="M8.27693 58.7891C9.59845 55.4388 10.7299 54.3415 16.2993 50.9741C18.4131 49.7004 19.7924 48.5953 20.7991 47.3529C22.6038 45.1475 23.6632 41.8908 23.8878 37.8504C23.9795 36.2375 23.9527 33.3813 23.8515 33.4252C23.8177 33.4398 23.557 33.8315 23.269 34.3047C22.1495 36.1436 20.5744 37.7915 17.7743 40.0395C15.9823 41.4726 14.2295 43.1775 13.4848 44.197C12.6869 45.2892 11.8672 47.0083 11.5327 48.2684L11.2812 49.1938L11.3005 48.4884C11.3198 48.0419 11.4987 47.2476 11.806 46.3279C12.571 43.9952 13.3676 42.8636 17.1081 38.9239C19.4967 36.3961 20.5943 35.0545 21.4583 33.6349C22.3663 32.1265 22.3404 32.2473 21.7174 32.0391C20.8347 31.7442 18.8437 31.4412 17.5679 31.4161C14.3479 31.3367 11.1193 32.6649 9.15626 34.8691C7.68757 36.5008 7.28415 37.2331 6.38554 39.9223C5.68921 42.0062 5.5544 42.5824 5.42757 43.7824C4.95652 48.3875 5.56931 53.4195 7.25164 58.8348L7.70112 60.2533L8.27693 58.7891Z" fill="#005E2D"/>
</svg>
