<svg width="247" height="46" viewBox="0 0 247 46" fill="none" xmlns="http://www.w3.org/2000/svg">
<path d="M240.631 35.5596C240.631 37.4937 234.68 38.2794 234.68 38.2794C234.68 38.2794 236.707 41.3209 243.195 39.5327C243.195 39.5327 235.411 45.092 228.577 45.3875C152.384 45.3875 76.1922 45.3875 0 45.3875V17.3626L12.1796 10.6697C12.1796 10.6697 2.73487 21.4929 3.12358 25.7278C3.51229 29.9628 8.29715 21.1262 8.29715 21.1262C8.29715 21.1262 9.33371 28.1334 6.08519 31.377C9.64376 29.1697 14.151 25.9186 18.4731 21.3769C22.9849 16.6331 25.7753 12.0802 27.506 8.63082C27.5476 10.6361 27.5939 12.6413 27.6356 14.6428C27.7004 19.626 27.0988 17.2055 29.8984 16.0532C27.7004 19.4689 30.4584 30.5202 20.4537 31.3732C29.5514 29.5588 40.4399 3.8147e-06 40.4399 3.8147e-06C40.4399 3.8147e-06 40.3335 23.008 38.3066 27.8191C38.3066 27.8191 46.6501 24.3174 50.7269 20.2882C51.5691 23.2699 50.9398 25.2116 50.7269 25.7278C52.4067 26.304 55.1231 23.6365 55.1231 23.6365C55.1231 23.6365 52.4067 31.377 50.4678 33.2588C50.4678 33.2588 55.3822 31.9531 56.1596 30.7485C60.8797 25.6755 53.832 10.4602 53.832 10.4602L66.5114 22.8023C68.0616 22.6975 67.8071 17.9912 67.8071 17.9912C72.1153 19.3642 76.604 27.4039 76.604 27.4039C77.4462 16.5807 63.4109 3.76733 63.4109 3.76733C63.4109 3.76733 80.3569 14.1715 82.2959 17.9912C89.4732 8.63082 99.6306 8.99745 99.6306 8.99745C93.8092 13.2848 87.5342 17.7293 86.4375 25.3126C86.4375 25.3126 98.1451 23.5879 101.445 19.0387C100.861 27.5086 96.5301 32.0055 96.5301 32.0055C96.5301 32.0055 99.6352 30.5427 101.445 27.8229C103.476 30.1761 103.254 32.215 103.254 32.215C103.254 32.215 106.595 29.5662 104.29 22.5928C111.361 25.032 114.638 36.3976 114.638 36.3976C114.638 36.3976 106.618 14.2089 113.342 11.5078C114.42 17.7667 119.034 19.5587 119.034 19.5587C119.034 19.5587 120.283 6.25893 135.332 6.27764C124.985 11.5227 128.863 24.8936 128.863 24.8936C128.863 24.8936 133.305 22.6115 133.777 20.5015C136.234 22.2635 137.4 34.3063 137.4 34.3063C137.4 34.3063 135.114 20.4491 137.4 17.7817C142.616 29.9666 150.334 32.6302 150.334 32.6302C150.334 32.6302 154.73 22.6938 141.537 7.32142C157.752 11.418 162.495 30.7485 162.495 30.7485C162.495 30.7485 164.351 21.9119 161.459 16.1056C168.831 18.9451 169.478 24.0555 169.478 24.0555C169.478 24.0555 173.055 22.5404 175.948 17.7817C179.141 20.2733 174.911 33.0493 174.911 33.0493C174.911 33.0493 177.975 22.922 179.307 20.9167C181.033 26.4761 185.258 25.7278 185.258 25.7278C185.258 25.7278 187.503 18.6683 183.449 10.2507C188.493 10.9316 197.16 21.7547 197.16 21.7547C197.16 21.7547 200.737 9.98885 203.111 9.62222C203.63 29.686 213.977 34.512 213.977 34.512C213.977 34.512 217.424 24.9085 212.426 17.9874C220.876 20.898 223.81 28.8629 223.81 28.8629C223.81 28.8629 222.69 15.4921 214.236 8.3652C223.334 9.74194 228.984 17.1494 228.984 17.1494C228.984 17.1494 233.815 12.1138 236.226 13.8011C231.483 17.3028 234.157 26.7679 234.157 26.7679C234.157 26.7679 238.424 23.4046 237.522 19.5512C240.108 19.4652 240.813 33.124 247 31.8184C244.867 35.2864 236.226 34.9236 236.226 34.9236C236.226 34.9236 237.179 36.2741 240.631 35.5596Z" fill="#005E2D"/>
<path opacity="0.43" d="M237.174 35.634C237.174 37.411 231.311 38.1293 231.311 38.1293C231.311 38.1293 233.31 40.9202 239.706 39.2816C239.706 39.2816 232.033 44.3845 225.3 44.6576C150.196 44.6576 75.1001 44.6576 0 44.6576V18.9373L12.0084 12.7943C12.0084 12.7943 2.70247 22.727 3.08193 26.6141C3.46139 30.5011 8.18146 22.3903 8.18146 22.3903C8.18146 22.3903 9.19952 28.8214 6.0019 31.7956C9.50956 29.7679 13.952 26.7862 18.2093 22.6186C22.6564 18.2639 25.4097 14.085 27.1127 10.92C27.1543 12.7606 27.196 14.5975 27.2422 16.4382C27.307 21.0136 26.7101 18.7914 29.4727 17.7326C27.307 20.8677 30.0234 31.0099 20.1667 31.7918C29.1349 30.127 39.8661 3 39.8661 3C39.8661 3 39.7597 24.1188 37.7606 28.5333C37.7606 28.5333 45.9837 25.3197 50.0004 21.6234C50.8287 24.3582 50.2133 26.139 50.0004 26.6141C51.657 27.1416 54.3364 24.6949 54.3364 24.6949C54.3364 24.6949 51.657 31.7956 49.7459 33.524C49.7459 33.524 54.5909 32.3231 55.3544 31.2194C60.0097 26.5655 53.0592 12.5998 53.0592 12.5998L65.5535 23.9242C67.0852 23.8269 66.8307 19.5097 66.8307 19.5097C71.0788 20.7704 75.5027 28.148 75.5027 28.148C76.331 18.2152 62.4993 6.45682 62.4993 6.45682C62.4993 6.45682 79.2001 16.008 81.1158 19.5097C88.1913 10.92 98.2007 11.2567 98.2007 11.2567C99.6676 12.4576 98.2007 11.2567 98.2007 11.2567C92.4625 15.1924 86.2802 19.2702 85.1973 26.2288C85.1973 26.2288 96.7384 24.6463 99.9869 20.4711C99.4131 28.2452 95.1419 32.3717 95.1419 32.3717C95.1419 32.3717 98.2007 31.0286 99.9869 28.5333C101.986 30.6957 101.773 32.5625 101.773 32.5625C101.773 32.5625 105.068 30.1308 102.791 23.7334C109.76 25.9744 112.99 36.4009 112.99 36.4009C112.99 36.4009 105.086 16.0379 111.713 13.5575C112.777 19.3002 117.322 20.9463 117.322 20.9463C117.322 20.9463 118.553 8.74266 133.388 8.75762C123.189 13.5725 127.012 25.8434 127.012 25.8434C127.012 25.8434 131.389 23.7484 131.857 21.8142C134.277 23.4304 135.424 34.4817 135.424 34.4817C135.424 34.4817 133.171 21.7656 135.424 19.3189C140.566 30.5011 148.173 32.9478 148.173 32.9478C148.173 32.9478 152.509 23.8307 139.501 9.72284C155.48 13.4827 160.159 31.2232 160.159 31.2232C160.159 31.2232 161.986 23.1124 159.141 17.785C166.41 20.3926 167.044 25.0802 167.044 25.0802C167.044 25.0802 170.57 23.6885 173.421 19.3226C176.568 21.6084 172.403 33.3369 172.403 33.3369C172.403 33.3369 175.42 24.0439 176.739 22.2033C178.437 27.3062 182.602 26.6178 182.602 26.6178C182.602 26.6178 184.814 20.1382 180.816 12.4127C185.79 13.0375 194.333 22.9702 194.333 22.9702C194.333 22.9702 197.859 12.1733 200.196 11.8366C200.705 30.2467 210.904 34.68 210.904 34.68C210.904 34.68 214.305 25.8659 209.372 19.5171C217.702 22.1883 220.594 29.4985 220.594 29.4985C220.594 29.4985 219.488 17.2276 211.158 10.688C220.127 11.9526 225.694 18.7502 225.694 18.7502C225.694 18.7502 230.455 14.1262 232.834 15.6787C228.16 18.8924 230.793 27.5793 230.793 27.5793C230.793 27.5793 234.999 24.4929 234.106 20.9575C236.656 20.8789 233.597 30.6994 239.696 29.4985C237.591 32.6822 232.834 35.0653 232.834 35.0653C232.834 35.0653 233.773 36.2924 237.174 35.634Z" fill="#75A071"/>
</svg>
