<svg width="91" height="20" viewBox="0 0 91 20" fill="none" xmlns="http://www.w3.org/2000/svg">
<path d="M0.900879 6.23663C8.45545 -1.33337 18.6728 -0.573373 23.0502 1.12663C10.6845 5.76663 16.1008 14.4066 16.1008 14.4066C16.1008 14.4066 20.226 12.1466 21.8096 6.02663C22.9292 9.00663 22.4551 11.6466 22.4551 11.6466C24.906 12.7066 28.4665 10.8366 28.4665 10.8366C28.1235 12.4066 26.661 13.3866 26.661 13.3866C26.661 13.3866 34.0038 14.8366 38.2501 11.5966C39.8336 13.1266 38.2501 15.6866 38.2501 15.6866C38.2501 15.6866 49.2844 14.1566 58.4629 8.62663C54.6906 14.3666 45.4617 16.9666 45.4617 16.9666C45.4617 16.9666 60.6516 16.5866 69.1542 12.1166C68.781 14.9866 66.8344 16.9666 66.8344 16.9666C66.8344 16.9666 69.4064 14.1966 70.4352 14.1566C69.4871 16.1166 70.4352 15.9466 70.4352 15.9466C75.5892 11.0066 76.6584 8.88663 90.1739 11.1366C70.6873 9.46663 75.8111 16.9766 68.6298 19.8966H24.079C24.079 19.8966 8.83872 18.9566 0.900879 6.23663Z" fill="#004A22"/>
<path d="M0.426758 6.66656C7.98133 -0.903441 18.1987 -0.143441 22.5761 1.55656C10.2104 6.19656 15.6267 14.8366 15.6267 14.8366C15.6267 14.8366 19.7519 12.5766 21.3355 6.45656C22.455 9.43656 21.981 12.0766 21.981 12.0766C24.4319 13.1366 27.9924 11.2666 27.9924 11.2666C27.6494 12.8366 26.1869 13.8166 26.1869 13.8166C26.1869 13.8166 33.5297 15.2666 37.776 12.0266C39.3595 13.5566 37.776 16.1166 37.776 16.1166C37.776 16.1166 48.8103 14.5866 57.9887 9.05656C54.2165 14.7966 44.9876 17.3966 44.9876 17.3966C44.9876 17.3966 60.1774 17.0166 68.6801 12.5466C68.3069 15.4166 66.3603 17.3966 66.3603 17.3966C66.3603 17.3966 68.9323 14.6266 69.9611 14.5866C69.013 16.5466 69.9611 16.3766 69.9611 16.3766C75.1151 11.4366 76.1843 9.31656 89.6998 11.5666C70.2132 9.89656 75.337 17.3966 68.1556 20.3266H23.6049C23.6049 20.3266 8.3646 19.3866 0.426758 6.66656Z" fill="#005E2D"/>
<path opacity="0.31" d="M0.043457 6.8867C7.38622 -0.233297 17.311 0.4867 21.5674 2.0867C9.55475 6.4467 14.8097 14.5667 14.8097 14.5667C14.8097 14.5667 18.8139 12.4467 20.3571 6.6867C21.4464 9.4867 20.9824 11.9667 20.9824 11.9667C23.3628 12.9667 26.8223 11.2067 26.8223 11.2067C26.4895 12.6867 25.0673 13.6067 25.0673 13.6067C25.0673 13.6067 32.1983 14.9667 36.3336 11.9267C37.8768 13.3667 36.3336 15.7667 36.3336 15.7667C36.3336 15.7667 47.0553 14.3267 55.9816 9.1267C52.3102 14.5267 43.3435 16.9667 43.3435 16.9667C43.3435 16.9667 58.1098 16.6067 66.3704 12.4067C66.0073 15.1067 64.1211 16.9667 64.1211 16.9667C64.1211 16.9667 66.6225 14.3667 67.621 14.3267C66.7032 16.1667 67.621 16.0067 67.621 16.0067C72.6238 11.3667 73.6728 9.3667 86.8151 11.4867C67.8732 9.9267 72.8558 16.9767 65.8761 19.7267H22.576C22.576 19.7267 7.75941 18.8467 0.043457 6.8867Z" fill="#75A071"/>
<path d="M0.900879 8.12653C0.900879 8.12653 7.55777 2.24653 15.9192 2.40653C6.47855 6.14653 8.40502 7.51653 8.40502 7.51653L12.0562 7.68653C9.53467 9.15653 7.50734 11.0065 7.7595 14.5865L0.900879 8.12653Z" fill="#75A071"/>
<path d="M20.1254 12.7065C18.32 14.5865 16.8877 15.8265 15.9194 16.2765L21.4971 18.2365C20.7608 17.5365 21.6181 15.9265 23.8976 14.5865C22.2939 15.5965 20.5389 16.2365 18.4914 16.1165C18.5721 15.0565 19.1773 13.9165 20.1254 12.7065Z" fill="#75A071"/>
<path d="M33.9529 15.0867C32.4702 16.6967 30.0496 17.9067 25.541 18.2367L40.3879 18.8367C40.0752 18.1367 41.447 17.1767 43.4339 16.1167C39.8533 17.4467 36.2122 18.3667 32.3189 17.3067L33.9529 15.0867Z" fill="#75A071"/>
<path d="M62.7899 15.8567C57.9587 17.3167 52.5625 18.3667 46.3091 18.8367H66.0478C66.1285 18.4267 67.1674 17.7067 68.2768 16.9667C66.8043 17.9167 65.3619 18.5067 63.9801 18.2467L65.1804 16.9667C64.3331 17.5267 63.2539 17.9367 62.0032 18.2467C59.9658 18.5967 58.0898 18.5767 56.3348 18.2467L62.7899 15.8567Z" fill="#75A071"/>
</svg>
