<svg width="559" height="266" viewBox="0 0 559 266" fill="none" xmlns="http://www.w3.org/2000/svg">
<g filter="url(#filter0_d_367_421)">
<path d="M118.944 241.304C113.184 241.304 108.672 239.768 105.408 236.696C102.144 233.432 100.512 228.824 100.512 222.872V200.408H29.376C23.424 200.408 18.624 199.16 14.976 196.664C11.52 194.168 9.792 190.328 9.792 185.144C9.792 181.88 10.56 178.424 12.096 174.776C13.824 171.128 16.8 166.328 21.024 160.376L99.936 46.04C102.624 42.008 105.6 38.936 108.864 36.824C112.128 34.712 115.872 33.656 120.096 33.656C125.088 33.656 129.216 35.192 132.48 38.264C135.744 41.144 137.376 45.752 137.376 52.088V169.88H151.488C162.624 169.88 168.192 174.968 168.192 185.144C168.192 195.32 162.624 200.408 151.488 200.408H137.376V222.872C137.376 228.824 135.744 233.432 132.48 236.696C129.216 239.768 124.704 241.304 118.944 241.304ZM100.512 169.88V92.408L47.52 169.88H100.512Z" fill="#360303"/>
</g>
<g filter="url(#filter1_d_367_421)">
<path d="M498.944 237.304C493.184 237.304 488.672 235.768 485.408 232.696C482.144 229.432 480.512 224.824 480.512 218.872V196.408H409.376C403.424 196.408 398.624 195.16 394.976 192.664C391.52 190.168 389.792 186.328 389.792 181.144C389.792 177.88 390.56 174.424 392.096 170.776C393.824 167.128 396.8 162.328 401.024 156.376L479.936 42.04C482.624 38.008 485.6 34.936 488.864 32.824C492.128 30.712 495.872 29.656 500.096 29.656C505.088 29.656 509.216 31.192 512.48 34.264C515.744 37.144 517.376 41.752 517.376 48.088V165.88H531.488C542.624 165.88 548.192 170.968 548.192 181.144C548.192 191.32 542.624 196.408 531.488 196.408H517.376V218.872C517.376 224.824 515.744 229.432 512.48 232.696C509.216 235.768 504.704 237.304 498.944 237.304ZM480.512 165.88V88.408L427.52 165.88H480.512Z" fill="#360303"/>
</g>
<g filter="url(#filter2_d_367_421)">
<path d="M229.166 82.757C224.465 87.6323 221.469 93.6521 219.546 100.397C223.618 103.621 228.449 104.591 233.657 104.468C230.24 98.6059 228.292 91.695 229.166 82.757Z" fill="#360303"/>
<path d="M338.178 82.757C340.397 90.865 340.668 98.204 338.178 104.468C343.429 104.486 347.92 103.761 349.719 100.397C349.239 95.5392 344.486 89.3797 338.178 82.757Z" fill="#360303"/>
<path d="M265.713 34.5899C261.973 33.4628 253.63 36.8178 245.565 43.8424C237.553 50.8145 233.657 58.9923 233.657 62.3998C237.553 80.529 259.422 98.4311 265.722 97.671C272.021 96.9196 283.886 75.2519 276.704 52.2474C274.1 43.9385 269.452 35.7257 265.713 34.5899Z" fill="#360303"/>
<path d="M300.984 34.5897C305.134 31.6716 316.038 39.0107 324.976 48.1496C330.253 53.5403 334.971 59.464 334.971 63.0811C334.971 66.6982 327.256 75.5575 320.267 82.6694C313.303 89.7551 304.802 97.6796 300.984 97.6796C282.27 70.6036 296.825 37.5079 300.984 34.5897Z" fill="#360303"/>
<path d="M226.598 110.567C233.08 112.428 258.662 147.743 258.662 156.017C258.662 164.291 234.173 200.086 226.598 200.112C219.031 200.138 204.851 182.114 206.074 155.344C207.297 136.393 220.115 108.715 226.598 110.567Z" fill="#360303"/>
<path d="M343.944 114.638C337.924 113.878 325.946 122.257 315.592 134.087C307.947 142.824 302.164 150.827 302.164 157.388C302.164 163.95 305.868 172.949 312.831 183.066C318.676 191.55 323.639 200.689 329.834 200.112C336.028 199.536 346.53 179.371 352.917 155.344C355.879 141.583 349.964 115.398 343.944 114.638Z" fill="#360303"/>
<path d="M280.906 172.643C272.239 172.643 262.637 180.742 251.821 192.633C238.541 207.242 231.438 226.271 232.372 230.639C233.307 235.008 235.815 249.467 277.42 237.122C297.874 246.418 322.757 239.656 323.429 230.639C324.102 221.623 320.188 210.265 310.42 196.451C299.831 181.485 289.574 172.643 280.906 172.643Z" fill="#360303"/>
<path d="M268.282 0C261.738 4.99756 258.514 10.8688 258.663 17.64C262.778 22.4366 267.609 23.022 272.773 21.7114C267.828 15.2024 265.949 8.04677 268.282 0Z" fill="#360303"/>
<path d="M289.442 0C292.649 8.06425 292.011 15.1325 289.442 21.7114C293.907 22.1046 298.013 21.4843 300.984 17.64C299.909 8.5972 295.785 3.03174 289.442 0Z" fill="#360303"/>
</g>
<defs>
<filter id="filter0_d_367_421" x="5.79199" y="33.656" width="166.4" height="215.648" filterUnits="userSpaceOnUse" color-interpolation-filters="sRGB">
<feFlood flood-opacity="0" result="BackgroundImageFix"/>
<feColorMatrix in="SourceAlpha" type="matrix" values="0 0 0 0 0 0 0 0 0 0 0 0 0 0 0 0 0 0 127 0" result="hardAlpha"/>
<feOffset dy="4"/>
<feGaussianBlur stdDeviation="2"/>
<feComposite in2="hardAlpha" operator="out"/>
<feColorMatrix type="matrix" values="0 0 0 0 0 0 0 0 0 0 0 0 0 0 0 0 0 0 0.25 0"/>
<feBlend mode="normal" in2="BackgroundImageFix" result="effect1_dropShadow_367_421"/>
<feBlend mode="normal" in="SourceGraphic" in2="effect1_dropShadow_367_421" result="shape"/>
</filter>
<filter id="filter1_d_367_421" x="385.792" y="29.656" width="166.4" height="215.648" filterUnits="userSpaceOnUse" color-interpolation-filters="sRGB">
<feFlood flood-opacity="0" result="BackgroundImageFix"/>
<feColorMatrix in="SourceAlpha" type="matrix" values="0 0 0 0 0 0 0 0 0 0 0 0 0 0 0 0 0 0 127 0" result="hardAlpha"/>
<feOffset dy="4"/>
<feGaussianBlur stdDeviation="2"/>
<feComposite in2="hardAlpha" operator="out"/>
<feColorMatrix type="matrix" values="0 0 0 0 0 0 0 0 0 0 0 0 0 0 0 0 0 0 0.25 0"/>
<feBlend mode="normal" in2="BackgroundImageFix" result="effect1_dropShadow_367_421"/>
<feBlend mode="normal" in="SourceGraphic" in2="effect1_dropShadow_367_421" result="shape"/>
</filter>
<filter id="filter2_d_367_421" x="202" y="0" width="155.705" height="250" filterUnits="userSpaceOnUse" color-interpolation-filters="sRGB">
<feFlood flood-opacity="0" result="BackgroundImageFix"/>
<feColorMatrix in="SourceAlpha" type="matrix" values="0 0 0 0 0 0 0 0 0 0 0 0 0 0 0 0 0 0 127 0" result="hardAlpha"/>
<feOffset dy="4"/>
<feGaussianBlur stdDeviation="2"/>
<feComposite in2="hardAlpha" operator="out"/>
<feColorMatrix type="matrix" values="0 0 0 0 0 0 0 0 0 0 0 0 0 0 0 0 0 0 0.25 0"/>
<feBlend mode="normal" in2="BackgroundImageFix" result="effect1_dropShadow_367_421"/>
<feBlend mode="normal" in="SourceGraphic" in2="effect1_dropShadow_367_421" result="shape"/>
</filter>
</defs>
</svg>
