<svg width="1422" height="416" viewBox="0 0 1422 416" fill="none" xmlns="http://www.w3.org/2000/svg">
<mask id="mask0_492_514" style="mask-type:alpha" maskUnits="userSpaceOnUse" x="0" y="0" width="1422" height="416">
<rect width="1422" height="416" fill="#C4C4C4"/>
</mask>
<g mask="url(#mask0_492_514)">
<path fill-rule="evenodd" clip-rule="evenodd" d="M1266.96 37.7144C1262.22 26.1088 1245.78 26.1089 1241.04 37.7144L1232.3 59.1088H1071.26C1070.58 59.1088 1069.91 59.1279 1069.24 59.1656L1056.36 36.9734C1050.97 27.6763 1037.54 27.6763 1032.15 36.9734L983.759 120.352L980.26 111.603C975.566 99.8697 958.956 99.8697 954.263 111.603L943.66 138.109H930.261C929.434 138.109 928.614 138.137 927.801 138.194L918.764 115.603C914.07 103.87 897.461 103.87 892.767 115.603L875.313 159.236L872.26 151.603C867.566 139.87 850.956 139.87 846.263 151.603L837.661 173.106L830.26 154.603C825.566 142.87 808.956 142.87 804.263 154.603L795.046 177.643L738.365 79.9734C732.969 70.6763 719.543 70.6763 714.148 79.9734L695.253 112.532C693.306 112.196 691.304 112.021 689.261 112.021H594.129L574.37 77.9734C568.974 68.6763 555.548 68.6763 550.153 77.9734L545.837 85.4099L522.37 44.9734C516.974 35.6763 503.548 35.6763 498.153 44.9734L475.376 84.2195H356.207L329.369 37.9734C323.973 28.6763 310.547 28.6763 305.152 37.9734L245.459 140.832C244.523 142.444 243.95 144.126 243.698 145.807L242.418 142.289C237.95 130.001 220.573 130.001 216.104 142.289L209.174 161.346H147.261L147.187 161.346L141.618 143.619C137.511 130.548 119.012 130.548 114.905 143.619L32.6535 405.412C29.8198 414.432 36.5559 423.609 46.0098 423.609H76.2614V615.109C76.2614 634.439 91.9314 650.109 111.261 650.109H245.261C264.591 650.109 280.261 634.439 280.261 615.109V538.904H322.261C341.591 538.904 357.261 523.234 357.261 503.904V461.778H478.26C478.841 461.778 479.419 461.764 479.993 461.736C483.297 477.633 497.384 489.579 514.261 489.579H668.256V520.944C668.256 540.273 683.926 555.944 703.256 555.944H878.256C897.586 555.944 913.256 540.273 913.256 520.944V511.266C918.291 514.07 924.09 515.667 930.261 515.667H1060.7C1062.35 516.361 1064.18 516.75 1066.13 516.75H1441.87C1451.82 516.75 1458.59 506.664 1454.83 497.454L1266.96 37.7144Z" fill="url(#paint0_linear_492_514)"/>
<circle cx="130.261" cy="223.109" r="13" fill="white"/>
<circle cx="198.261" cy="222.109" r="13" fill="white"/>
<circle cx="339.261" cy="143.109" r="13" fill="white"/>
<circle cx="466.261" cy="143.109" r="13" fill="white"/>
<circle cx="576.261" cy="156.109" r="13" fill="white"/>
<circle cx="661.261" cy="156.109" r="13" fill="white"/>
<circle cx="1059.26" cy="117.109" r="13" fill="white"/>
<circle cx="826.261" cy="203.109" r="7" fill="white"/>
<circle cx="911.261" cy="164.109" r="8" fill="white"/>
<circle cx="956.261" cy="164.109" r="8" fill="white"/>
<circle cx="863.261" cy="203.109" r="7" fill="white"/>
<circle cx="1193.26" cy="117.109" r="13" fill="white"/>
</g>
<defs>
<linearGradient id="paint0_linear_492_514" x1="843.761" y1="650.108" x2="732.761" y2="-38.8917" gradientUnits="userSpaceOnUse">
<stop stop-color="#FFA756"/>
<stop offset="1" stop-color="#4B0101"/>
</linearGradient>
</defs>
</svg>
