<svg width="1207" height="1035" viewBox="0 0 1207 1035" fill="none" xmlns="http://www.w3.org/2000/svg">
<path fill-rule="evenodd" clip-rule="evenodd" d="M1043.61 6.97285C1049 -2.32429 1062.43 -2.32428 1067.82 6.97285L1096.28 56.0014L1119.57 11.0762C1124.8 1.00252 1139.2 1.00251 1144.43 11.0762L1205.4 128.664C1207.45 132.608 1207.42 136.876 1205.9 140.487C1205.97 141.352 1206 142.227 1206 143.108V999.108C1206 1018.44 1190.33 1034.11 1171 1034.11H945H942H591C590.747 1034.11 590.494 1034.11 590.241 1034.1H386L385.868 1034.1H35C15.67 1034.1 0 1018.43 0 999.1V191.1C0 171.77 15.67 156.1 35 156.1H56.6446L104.891 72.9651C110.287 63.668 123.713 63.668 129.109 72.9651L149.389 107.91L169.605 73.0735C175.001 63.7764 188.427 63.7764 193.823 73.0735L242.007 156.1H256.361L259.72 147.703C264.414 135.969 281.024 135.969 285.718 147.703L289.077 156.1H297.161L301.72 144.703C306.414 132.969 323.024 132.969 327.717 144.703L330.771 152.336L348.225 108.703C352.918 96.9693 369.528 96.9693 374.222 108.703L383.225 131.209C384.14 131.137 385.066 131.1 386 131.1H399.161L409.72 104.703C414.414 92.9693 431.024 92.9693 435.717 104.703L439.217 113.452L487.605 30.0735C493.001 20.7763 506.427 20.7763 511.823 30.0735L538.116 75.3798L563.891 30.9651C569.287 21.6679 582.713 21.6679 588.109 30.9651L629.984 103.122L660.891 49.8644C666.287 40.5673 679.713 40.5673 685.109 49.8645L705.388 84.8092L725.605 49.9728C731.001 40.6757 744.427 40.6757 749.823 49.9729L796.322 130.097L809.72 96.6026C814.414 84.8689 831.024 84.8689 835.717 96.6026L847.319 125.605L857.72 99.6026C862.414 87.8689 879.024 87.8689 883.717 99.6026L886.771 107.235L904.225 63.6026C908.918 51.8689 925.528 51.8689 930.222 63.6026L947.571 106.973L965.72 61.6026C970.414 49.8689 987.024 49.8689 991.717 61.6026L999.953 82.1909L1043.61 6.97285Z" fill="url(#paint0_linear_497_477)"/>
<circle cx="282.458" cy="208.1" r="7" fill="white"/>
<circle cx="838.458" cy="161" r="7" fill="white"/>
<circle cx="367.457" cy="169.1" r="8" fill="white"/>
<circle cx="923.457" cy="134" r="8" fill="white"/>
<circle cx="412.457" cy="169.1" r="8" fill="white"/>
<circle cx="968.457" cy="134" r="8" fill="white"/>
<circle cx="501" cy="107.101" r="10" fill="white"/>
<circle cx="1057" cy="84" r="10" fill="white"/>
<circle cx="578" cy="107.101" r="10" fill="white"/>
<circle cx="1134" cy="84" r="10" fill="white"/>
<circle cx="188" cy="139.1" r="10" fill="white"/>
<circle cx="744" cy="116" r="10" fill="white"/>
<circle cx="120" cy="139.1" r="10" fill="white"/>
<circle cx="676" cy="116" r="10" fill="white"/>
<circle cx="319.458" cy="208.1" r="7" fill="white"/>
<circle cx="875.458" cy="161" r="7" fill="white"/>
<defs>
<linearGradient id="paint0_linear_497_477" x1="906" y1="1224.5" x2="319" y2="58.6084" gradientUnits="userSpaceOnUse">
<stop offset="0.0104167" stop-color="#4B0101"/>
<stop offset="0.455031" stop-color="#C15E1C"/>
<stop offset="0.748036" stop-color="#923A00"/>
<stop offset="1" stop-color="#4B0101"/>
</linearGradient>
</defs>
</svg>
