<svg width="1248" height="437" viewBox="0 0 1248 437" fill="none" xmlns="http://www.w3.org/2000/svg">
<path fill-rule="evenodd" clip-rule="evenodd" d="M1216.59 4.03087C1213.51 -1.28178 1205.84 -1.28177 1202.76 4.03087L1169.63 61.1082H1043.67C1043 61.1082 1042.33 61.1273 1041.66 61.165L1023.59 30.0308C1020.51 24.7182 1012.84 24.7182 1009.75 30.0309L956.175 122.352L945.248 95.0345C943.236 90.0057 936.118 90.0057 934.106 95.0345L916.076 140.108H902.677C899.655 140.108 896.723 140.491 893.926 141.211L883.7 117.669C881.609 112.857 874.784 112.857 872.693 117.669L847.817 174.938L837.307 150.742C835.216 145.93 828.391 145.93 826.3 150.742L813.424 180.384H812.189L795.248 138.034C793.236 133.006 786.118 133.006 784.106 138.034L767.462 179.642L705.591 73.0309C702.508 67.7182 694.836 67.7182 691.753 73.0309L667.669 114.531C665.722 114.195 663.72 114.02 661.677 114.02H566.545L541.596 71.0308C538.513 65.7182 530.841 65.7182 527.758 71.0309L518.253 87.4094L489.596 38.0308C486.513 32.7182 478.841 32.7182 475.758 38.0309L447.792 86.219H328.623L296.595 31.0309C293.512 25.7182 285.84 25.7182 282.757 31.0309L215.68 146.613L209.195 128.782C206.642 121.761 196.712 121.761 194.159 128.782L181.59 163.345H119.677C117.413 163.345 115.2 163.56 113.056 163.97L104.605 137.162C102.24 129.66 91.6043 129.717 89.3198 137.243L0.555059 429.676C-1.0046 434.815 2.84044 440 8.21017 440H48.6771V617.108C48.6771 636.438 64.3472 652.108 83.6771 652.108H217.677C237.007 652.108 252.677 636.438 252.677 617.108V540.903H294.677C314.007 540.903 329.677 525.233 329.677 505.903V463.777H450.676C451.257 463.777 451.835 463.763 452.409 463.735C455.712 479.633 469.8 491.579 486.677 491.579H640.672V522.943C640.672 542.273 656.342 557.943 675.672 557.943H850.672C870.002 557.943 885.672 542.273 885.672 522.943V513.265C890.707 516.069 896.505 517.667 902.677 517.667H1077.68C1097.01 517.667 1112.68 501.997 1112.68 482.667V438.667H1218.67C1238 438.667 1253.67 422.997 1253.67 403.667V136.858H1279.79C1285.95 136.858 1289.8 130.176 1286.71 124.843L1216.59 4.03087Z" fill="url(#paint0_linear_401_424)"/>
<ellipse cx="141.5" cy="204" rx="10.5" ry="11" fill="white"/>
<ellipse cx="196.5" cy="203" rx="10.5" ry="11" fill="white"/>
<circle cx="309.261" cy="163.108" r="13" fill="white"/>
<circle cx="436.261" cy="163.108" r="13" fill="white"/>
<circle cx="546.261" cy="176.108" r="13" fill="white"/>
<circle cx="631.261" cy="176.108" r="13" fill="white"/>
<circle cx="1029.26" cy="137.108" r="13" fill="white"/>
<circle cx="798" cy="199" r="7" fill="white"/>
<circle cx="881.261" cy="184.108" r="8" fill="white"/>
<circle cx="926.261" cy="184.108" r="8" fill="white"/>
<circle cx="835" cy="199" r="7" fill="white"/>
<circle cx="1162.26" cy="136.108" r="12" fill="white"/>
<defs>
<linearGradient id="paint0_linear_401_424" x1="817.591" y1="652.108" x2="705.272" y2="-43.1426" gradientUnits="userSpaceOnUse">
<stop stop-color="#FFA756"/>
<stop offset="1" stop-color="#4B0101"/>
</linearGradient>
</defs>
</svg>
