<svg width="93" height="65" viewBox="0 0 93 65" fill="none" xmlns="http://www.w3.org/2000/svg">
<path fill-rule="evenodd" clip-rule="evenodd" d="M64.9998 33.3884C65.0023 32.2917 64.9873 31.1546 64.9543 29.9756C64.9543 11.7637 58.5 3.5 32.4772 -3C14.5405 -3 0 11.7637 0 29.9756C0 48.1875 14.5405 62.9511 32.4772 62.9511C33.6882 62.9511 34.8882 62.9637 36.073 62.976C46.0714 63.0804 54.9818 63.1734 60.1884 55.6313L75.6595 64.9018C75.6595 64.9018 91.5001 45.5001 92.4998 44C88.6901 43.9253 85.4048 43.9599 82.5708 43.9897C69.6859 44.1253 66.1272 44.1627 64.9998 33.3884Z" fill="white"/>
</svg>
