<svg width="14" height="8" viewBox="0 0 14 8" fill="none" xmlns="http://www.w3.org/2000/svg">
<path fill-rule="evenodd" clip-rule="evenodd" d="M5.71494 7.33333C5.71494 7.70152 6.01342 8 6.38161 8H13.1775C13.5457 8 13.8441 7.70152 13.8441 7.33333C13.8441 6.96514 13.5457 6.66666 13.1775 6.66666H6.38161C6.01342 6.66666 5.71494 6.96514 5.71494 7.33333ZM2.75905 4C2.75905 4.36819 3.05752 4.66667 3.42571 4.66667H13.1776C13.5458 4.66667 13.8443 4.36819 13.8443 4C13.8443 3.63181 13.5458 3.33334 13.1777 3.33334H3.42571C3.05752 3.33334 2.75905 3.63181 2.75905 4ZM1.20866 0C0.840469 0 0.541992 0.298477 0.541992 0.666667C0.541992 1.03486 0.840469 1.33333 1.20866 1.33333H13.1777C13.5458 1.33333 13.8443 1.03486 13.8443 0.666667C13.8443 0.298477 13.5458 0 13.1777 0H1.20866Z" fill="#4B0101"/>
</svg>
