<svg width="15" height="15" viewBox="0 0 15 15" fill="none" xmlns="http://www.w3.org/2000/svg">
<g clip-path="url(#clip0_474_1064)">
<path d="M14.936 0.425669C14.8152 0.149163 14.6062 0.0108912 14.308 0.0107422H0.691695C0.393877 0.0107422 0.184587 0.149163 0.0640141 0.425669C-0.0564846 0.716334 -0.00689162 0.964709 0.213017 1.17031L5.45762 6.41476V11.5848C5.45762 11.7694 5.52502 11.9287 5.65972 12.0637L8.38286 14.7868C8.51063 14.9214 8.67013 14.989 8.86169 14.989C8.94672 14.989 9.03532 14.9712 9.12754 14.9357C9.40423 14.8151 9.54261 14.6059 9.54261 14.3081V6.4148L14.787 1.17035C15.007 0.964746 15.0565 0.716446 14.936 0.425669Z" fill="#4B0101"/>
</g>
<defs>
<clipPath id="clip0_474_1064">
<rect width="15" height="15" fill="white"/>
</clipPath>
</defs>
</svg>
