<svg width="16" height="16" viewBox="0 0 16 16" fill="none" xmlns="http://www.w3.org/2000/svg">
<mask id="mask0_622_12898" style="mask-type:alpha" maskUnits="userSpaceOnUse" x="0" y="0" width="16" height="16">
<rect width="16" height="16" fill="#C4C4C4"/>
</mask>
<g mask="url(#mask0_622_12898)">
<path d="M1.29223 39.5076C1.29223 40.5025 1.68467 41 2.46959 41C3.25452 41 3.64696 40.5025 3.64696 39.5076V26.0761H4.85304V39.5076C4.85304 40.5025 5.24553 41 6.03041 41C6.81533 41 7.20777 40.5025 7.20777 39.5076V16.6244H7.78209V24.868C7.78209 25.3892 7.92568 25.7682 8.21284 26.0051C8.5 26.2419 8.79675 26.2419 9.10304 26.0051C9.40933 25.7682 9.5625 25.3891 9.5625 24.868V15.9848C9.5625 15.0372 9.30405 14.3029 8.78716 13.7817C8.27027 13.2606 7.55236 13 6.63345 13H1.92399C1.04338 13 0.32547 13.2369 -0.22973 13.7107C-0.784929 14.1845 -1.0625 14.9188 -1.0625 15.9137V25.3655C-1.0625 25.7919 -0.909328 26.0998 -0.603041 26.2893C-0.296753 26.4789 -1.23953e-08 26.4789 0.287162 26.2893C0.574324 26.0998 0.717905 25.7919 0.717905 25.3655V16.6244H1.29223V39.5076Z" fill="white"/>
<path d="M12.147 22.5761H11.647V23.0761V36.5076C11.647 36.9529 11.5569 37.1945 11.4601 37.3172C11.3811 37.4173 11.2493 37.5 10.9696 37.5C10.6899 37.5 10.5581 37.4173 10.4791 37.3172C10.3823 37.1945 10.2922 36.9529 10.2922 36.5076V17.169L9.29526 17.1141L8.72093 22.3106L8.71791 22.3379V22.3655C8.71791 22.6696 8.62436 22.7977 8.51174 22.872C8.43653 22.9217 8.38481 22.9315 8.34923 22.9315C8.31192 22.9315 8.25113 22.9205 8.16006 22.8642C8.03014 22.7838 7.9375 22.6559 7.9375 22.3655V12.9137C7.9375 12.0092 8.18742 11.4387 8.59484 11.091C9.04176 10.7096 9.63669 10.5 10.424 10.5H15.1334C15.9545 10.5 16.5315 10.7299 16.9322 11.1338C17.3313 11.5363 17.5625 12.129 17.5625 12.9848V21.868C17.5625 22.2919 17.4417 22.4978 17.2972 22.6095C17.2048 22.681 17.1587 22.6827 17.1508 22.6827H17.1507C17.145 22.6827 17.1078 22.6827 17.031 22.6194C16.8998 22.5112 16.7821 22.3025 16.7821 21.868V17.169L15.7823 17.1542L15.208 36.4928L15.2078 36.5002V36.5076C15.2078 36.9529 15.1177 37.1945 15.0209 37.3172C14.9419 37.4173 14.8101 37.5 14.5304 37.5C14.2508 37.5 14.1189 37.4173 14.0399 37.3172C13.9431 37.1945 13.853 36.9529 13.853 36.5076V23.0761V22.5761H13.353H12.147Z" stroke="white"/>
<path d="M1.0625 9.0126C1.0625 9.83961 1.34865 10.5485 1.92087 11.1391C2.49309 11.7298 3.17979 12.0252 3.98095 12.0252C4.78212 12.0252 5.46882 11.7298 6.04104 11.1391C6.61326 10.5485 6.89941 9.82777 6.89941 8.97716C6.89941 8.17368 6.61326 7.47667 6.04104 6.88606C5.46882 6.29538 4.78212 6 3.98095 6C3.17979 6 2.49309 6.29538 1.92087 6.88606C1.34865 7.47674 1.0625 8.18559 1.0625 9.0126Z" fill="white"/>
<path d="M14.1819 4.23396L14.1819 4.23398C14.6662 4.73377 14.8994 5.30693 14.8994 5.97716C14.8994 6.70286 14.6604 7.29732 14.1819 7.79124C13.7011 8.28761 13.1428 8.5252 12.481 8.5252C11.8191 8.5252 11.2608 8.28761 10.78 7.79124C10.2987 7.2944 10.0625 6.71055 10.0625 6.0126C10.0625 5.31465 10.2987 4.73079 10.78 4.23396C11.2608 3.73758 11.8191 3.5 12.481 3.5C13.1428 3.5 13.7011 3.73758 14.1819 4.23396Z" stroke="white"/>
</g>
</svg>
