<svg width="234" height="47" viewBox="0 0 234 47" fill="none" xmlns="http://www.w3.org/2000/svg">
<path d="M227.837 35.5595C227.837 37.4936 222.079 38.2793 222.079 38.2793C222.079 38.2793 224.04 41.3208 230.318 39.5326C230.318 39.5326 222.787 45.0919 216.173 45.3875C142.449 45.3875 68.7244 45.3875 -5 45.3875V17.3626L6.78516 10.6697C6.78516 10.6697 -2.35371 21.4928 -1.97759 25.7277C-1.60147 29.9627 3.02842 21.1261 3.02842 21.1261C3.02842 21.1261 4.03141 28.1333 0.888101 31.3769C4.33141 29.1696 8.69263 25.9185 12.8748 21.3768C17.2405 16.633 19.9405 12.0801 21.6151 8.63073C21.6554 10.636 21.7002 12.6412 21.7405 14.6427C21.8032 19.6259 21.2211 17.2054 23.9301 16.0532C21.8032 19.4688 24.4719 30.5202 14.7912 31.3731C23.5942 29.5587 34.1301 -8.84612e-05 34.1301 -8.84612e-05C34.1301 -8.84612e-05 34.0271 23.0079 32.0659 27.819C32.0659 27.819 40.1391 24.3173 44.0839 20.2881C44.8989 23.2698 44.2899 25.2115 44.0839 25.7277C45.7093 26.3039 48.3377 23.6364 48.3377 23.6364C48.3377 23.6364 45.7093 31.3769 43.8332 33.2587C43.8332 33.2587 48.5884 31.953 49.3407 30.7484C53.9079 25.6754 47.0884 10.4601 47.0884 10.4601L59.3572 22.8022C60.8572 22.6974 60.6109 17.9911 60.6109 17.9911C64.7796 19.3641 69.1229 27.4038 69.1229 27.4038C69.9378 16.5807 56.3572 3.76724 56.3572 3.76724C56.3572 3.76724 72.7543 14.1714 74.6304 17.9911C81.5752 8.63073 91.4037 8.99736 91.4037 8.99736C85.7708 13.2847 79.6991 17.7292 78.6379 25.3125C78.6379 25.3125 89.9663 23.5878 93.1589 19.0386C92.5947 27.5085 88.4037 32.0054 88.4037 32.0054C88.4037 32.0054 91.4082 30.5426 93.1589 27.8228C95.1246 30.176 94.9097 32.2149 94.9097 32.2149C94.9097 32.2149 98.1425 29.5662 95.9127 22.5927C102.754 25.0319 105.925 36.3975 105.925 36.3975C105.925 36.3975 98.1649 14.2088 104.671 11.5077C105.714 17.7666 110.178 19.5586 110.178 19.5586C110.178 19.5586 111.387 6.25884 125.949 6.27755C115.937 11.5226 119.689 24.8935 119.689 24.8935C119.689 24.8935 123.987 22.6114 124.444 20.5014C126.822 22.2635 127.95 34.3062 127.95 34.3062C127.95 34.3062 125.738 20.449 127.95 17.7816C132.997 29.9665 140.465 32.6302 140.465 32.6302C140.465 32.6302 144.719 22.6937 131.953 7.32133C147.643 11.4179 152.232 30.7484 152.232 30.7484C152.232 30.7484 154.028 21.9118 151.229 16.1055C158.362 18.9451 158.989 24.0555 158.989 24.0555C158.989 24.0555 162.45 22.5403 165.249 17.7816C168.339 20.2732 164.246 33.0492 164.246 33.0492C164.246 33.0492 167.21 22.9219 168.5 20.9166C170.17 26.476 174.258 25.7277 174.258 25.7277C174.258 25.7277 176.43 18.6682 172.507 10.2506C177.388 10.9315 185.774 21.7547 185.774 21.7547C185.774 21.7547 189.236 9.98876 191.533 9.62213C192.034 29.6859 202.046 34.5119 202.046 34.5119C202.046 34.5119 205.382 24.9084 200.546 17.9873C208.722 20.8979 211.561 28.8628 211.561 28.8628C211.561 28.8628 210.478 15.492 202.297 8.36511C211.1 9.74185 216.567 17.1493 216.567 17.1493C216.567 17.1493 221.242 12.1137 223.575 13.801C218.985 17.3027 221.573 26.7678 221.573 26.7678C221.573 26.7678 225.702 23.4045 224.829 19.5511C227.332 19.4651 228.013 33.1239 234 31.8183C231.936 35.2863 223.575 34.9235 223.575 34.9235C223.575 34.9235 224.497 36.274 227.837 35.5595Z" fill="#005E2D"/>
<path d="M228.755 37.161C228.755 39.0951 222.997 39.8808 222.997 39.8808C222.997 39.8808 224.958 42.9223 231.236 41.134C231.236 41.134 223.704 46.6934 217.091 46.9889C143.366 46.9927 69.6419 46.9927 -4.08252 46.9927V18.964L7.70264 12.2711C7.70264 12.2711 -1.43623 23.0943 -1.06011 27.3292C-0.683988 31.5642 3.9459 22.7276 3.9459 22.7276C3.9459 22.7276 4.94889 29.7348 1.80558 32.9784C5.24889 30.7711 9.61012 27.52 13.7922 22.9783C18.1579 18.2345 20.858 13.6815 22.5326 10.2322C22.5729 12.2375 22.6177 14.2427 22.658 16.2442C22.7207 21.2274 22.1386 18.8069 24.8475 17.6546C22.7207 21.0703 25.3893 32.1216 15.7087 32.9746C24.5117 31.1602 35.0476 1.6014 35.0476 1.6014C35.0476 1.6014 34.9446 24.6094 32.9834 29.4205C32.9834 29.4205 41.0566 25.9188 45.0014 21.8896C45.8163 24.8713 45.2074 26.813 45.0014 27.3292C46.6268 27.9054 49.2552 25.2379 49.2552 25.2379C49.2552 25.2379 46.6268 32.9784 44.7507 34.8602C44.7507 34.8602 49.5059 33.5545 50.2582 32.3498C54.8254 27.2769 48.0059 12.0616 48.0059 12.0616L60.2747 24.4037C61.7747 24.2989 61.5284 19.5926 61.5284 19.5926C65.6971 20.9655 70.0404 29.0053 70.0404 29.0053C70.8553 18.1821 57.2746 5.36873 57.2746 5.36873C57.2746 5.36873 73.6718 15.7728 75.5479 19.5926C82.4927 10.2322 92.3212 10.5988 92.3212 10.5988C86.6883 14.8862 80.6166 19.3307 79.5554 26.914C79.5554 26.914 90.8838 25.1893 94.0764 20.6401C93.5077 29.11 89.3167 33.6069 89.3167 33.6069C89.3167 33.6069 92.3212 32.1441 94.0719 29.4243C96.0376 31.7775 95.8227 33.8164 95.8227 33.8164C95.8227 33.8164 99.0555 31.1676 96.8257 24.1942C103.668 26.6334 106.838 37.999 106.838 37.999C106.838 37.999 99.0779 15.8103 105.584 13.1092C106.627 19.3681 111.091 21.1601 111.091 21.1601C111.091 21.1601 112.3 7.86033 126.862 7.87903C116.85 13.1241 120.602 26.495 120.602 26.495C120.602 26.495 124.901 24.2129 125.357 22.1029C127.735 23.8649 128.863 35.9077 128.863 35.9077C128.863 35.9077 126.651 22.0505 128.863 19.383C133.91 31.5679 141.378 34.2316 141.378 34.2316C141.378 34.2316 145.632 24.2952 132.866 8.92281C148.556 13.0194 153.145 32.3498 153.145 32.3498C153.145 32.3498 154.941 23.5133 152.142 17.707C159.275 20.5465 159.902 25.6569 159.902 25.6569C159.902 25.6569 163.363 24.1418 166.162 19.383C169.252 21.8746 165.159 34.6506 165.159 34.6506C165.159 34.6506 168.123 24.5234 169.413 22.5181C171.083 28.0775 175.171 27.3292 175.171 27.3292C175.171 27.3292 177.343 20.2697 173.42 11.8521C178.301 12.533 186.688 23.3561 186.688 23.3561C186.688 23.3561 190.149 11.5902 192.446 11.2236C192.947 31.2874 202.959 36.1134 202.959 36.1134C202.959 36.1134 206.295 26.5099 201.459 19.5888C209.635 22.4994 212.474 30.4643 212.474 30.4643C212.474 30.4643 211.391 17.0935 203.21 9.96659C212.013 11.3433 217.48 18.7508 217.48 18.7508C217.48 18.7508 222.155 13.7152 224.488 15.4025C219.898 18.9042 222.486 28.3693 222.486 28.3693C222.486 28.3693 226.615 25.006 225.742 21.1526C228.245 21.0666 226.454 31.39 232.441 30.0844C230.377 33.5524 224.488 36.525 224.488 36.525C224.488 36.525 225.415 37.8755 228.755 37.161Z" fill="#007C37"/>
<path opacity="0.43" d="M224.493 37.969C224.493 39.7461 218.819 40.4644 218.819 40.4644C218.819 40.4644 220.754 43.2553 226.942 41.6167C226.942 41.6167 219.518 46.7196 213.003 46.9927C140.331 46.9927 67.6677 46.9927 -5 46.9927V21.2723L6.61949 15.1294C6.61949 15.1294 -2.38506 25.0621 -2.01789 28.9491C-1.65072 32.8362 2.91647 24.7254 2.91647 24.7254C2.91647 24.7254 3.90156 31.1564 0.807504 34.1306C4.20156 32.1029 8.5001 29.1212 12.6195 24.9536C16.9225 20.5989 19.5867 16.4201 21.2345 13.2551C21.2748 15.0957 21.3151 16.9326 21.3599 18.7732C21.4226 23.3487 20.845 21.1264 23.5181 20.0677C21.4226 23.2028 24.051 33.345 14.5136 34.1269C23.1912 32.4621 33.5749 5.33506 33.5749 5.33506C33.5749 5.33506 33.4719 26.4538 31.5376 30.8684C31.5376 30.8684 39.4943 27.6547 43.3809 23.9585C44.1824 26.6932 43.5869 28.474 43.3809 28.9491C44.9839 29.4766 47.5765 27.0299 47.5765 27.0299C47.5765 27.0299 44.9839 34.1306 43.1347 35.859C43.1347 35.859 47.8228 34.6581 48.5616 33.5545C53.0661 28.9005 46.3407 14.9348 46.3407 14.9348L58.4303 26.2593C59.9124 26.162 59.6661 21.8447 59.6661 21.8447C63.7766 23.1055 68.0572 30.483 68.0572 30.483C68.8587 20.5503 55.4751 8.79187 55.4751 8.79187C55.4751 8.79187 71.6349 18.343 73.4886 21.8447C80.3349 13.2551 90.0201 13.5918 90.0201 13.5918C91.4395 14.7927 90.0201 13.5918 90.0201 13.5918C84.4678 17.5274 78.4857 21.6053 77.4379 28.5638C77.4379 28.5638 88.6051 26.9813 91.7485 22.8062C91.1932 30.5803 87.0604 34.7068 87.0604 34.7068C87.0604 34.7068 90.0201 33.3637 91.7485 30.8684C93.6828 33.0307 93.4768 34.8976 93.4768 34.8976C93.4768 34.8976 96.6649 32.4658 94.4619 26.0685C101.205 28.3094 104.331 38.736 104.331 38.736C104.331 38.736 96.6828 18.3729 103.095 15.8926C104.125 21.6352 108.522 23.2813 108.522 23.2813C108.522 23.2813 109.713 11.0777 124.068 11.0927C114.199 15.9075 117.898 28.1785 117.898 28.1785C117.898 28.1785 122.134 26.0834 122.586 24.1493C124.928 25.7654 126.038 36.8168 126.038 36.8168C126.038 36.8168 123.858 24.1006 126.038 21.6539C131.013 32.8362 138.374 35.2829 138.374 35.2829C138.374 35.2829 142.57 26.1657 129.983 12.0579C145.444 15.8177 149.971 33.5582 149.971 33.5582C149.971 33.5582 151.74 25.4474 148.986 20.12C156.021 22.7276 156.634 27.4153 156.634 27.4153C156.634 27.4153 160.046 26.0236 162.804 21.6577C165.849 23.9435 161.819 35.672 161.819 35.672C161.819 35.672 164.739 26.379 166.015 24.5383C167.658 29.6413 171.688 28.9529 171.688 28.9529C171.688 28.9529 173.828 22.4732 169.959 14.7478C174.773 15.3725 183.039 25.3053 183.039 25.3053C183.039 25.3053 186.451 14.5083 188.712 14.1716C189.204 32.5818 199.073 37.015 199.073 37.015C199.073 37.015 202.364 28.2009 197.591 21.8522C205.651 24.5234 208.449 31.8336 208.449 31.8336C208.449 31.8336 207.379 19.5626 199.319 13.0231C207.997 14.2876 213.384 21.0853 213.384 21.0853C213.384 21.0853 217.991 16.4612 220.293 18.0138C215.77 21.2274 218.318 29.9144 218.318 29.9144C218.318 29.9144 222.388 26.8279 221.524 23.2925C223.991 23.214 221.031 33.0345 226.933 31.8336C224.896 35.0173 220.293 37.4004 220.293 37.4004C220.293 37.4004 221.202 38.6275 224.493 37.969Z" fill="#75A071"/>
<path opacity="0.3" d="M-2.63086 46.9927C10.0633 32.7651 15.3379 26.7194 15.6335 26.1657C15.6379 26.1545 15.6603 26.1171 15.6737 26.1208C16.0006 26.162 13.2961 41.9571 13.2961 41.9571C13.2961 41.9571 24.8843 35.8815 25.6455 31.9159C25.6723 31.7662 26.6843 39.5628 26.9708 46.9927C17.1021 46.9927 7.23787 46.9927 -2.63086 46.9927Z" fill="#005E2D"/>
<path opacity="0.3" d="M31.7256 40.7861C35.0614 36.4015 38.4018 32.0169 41.7376 27.636C40.6092 30.382 39.4853 33.128 38.357 35.8703C40.3809 34.3364 42.4048 32.8025 44.4287 31.2687C42.7406 33.7865 41.048 36.3042 39.36 38.8258C36.8167 39.4805 34.2734 40.1352 31.7256 40.7861Z" fill="#005E2D"/>
<path opacity="0.33" d="M54.3513 26.9514C60.6872 35.9189 59.9484 35.96 61.3588 39.7236C63.9827 38.0401 64.0767 33.8762 61.3588 26.9514C66.1991 33.6331 71.0395 40.311 75.8798 46.9927C71.8723 46.9927 67.8693 46.9927 63.8618 46.9927C59.0215 46.9927 54.1812 46.9927 49.3408 46.9927C55.7259 42.3611 56.5991 35.3353 54.3513 26.9514Z" fill="#005E2D"/>
<path opacity="0.3" d="M72.1228 28.919L70.3721 22.155L73.3766 26.9549L76.7975 21.7397C75.3781 26.2366 74.7557 30.5614 75.6288 34.5681L72.1228 28.919Z" fill="#005E2D"/>
<path opacity="0.3" d="M89.6487 26.476C85.7621 30.1573 81.9874 33.0679 78.7993 31.8446C81.7053 35.6456 83.1292 39.4877 81.2172 43.4197L111.84 43.906C106.337 40.958 102.213 37.5161 100.158 33.3373C99.7278 36.2441 98.3711 38.0698 95.7338 38.399C94.986 38.6011 93.5711 37.258 92.0621 35.7092C91.5472 37.5797 89.6397 38.4028 86.6397 38.399C84.8979 35.5408 84.1994 32.2561 89.6487 26.476Z" fill="#005E2D"/>
<path opacity="0.3" d="M115.35 43.072C114.101 37.2694 109.569 30.4568 104.5 23.4796C106.811 25.758 109.247 28.3132 110.424 28.1523C111.826 27.0935 113.38 21.624 114.929 16.2293C114.06 24.1268 113.572 31.3996 116.514 32.9634C119.433 32.406 120.763 30.5167 121.52 28.1523C120.875 37.0974 124.377 43.4498 132.374 46.9927L115.35 43.072Z" fill="#005E2D"/>
<path opacity="0.3" d="M131.206 27.8006C134.631 34.6581 136.941 41.28 134.877 46.9927H156.074C151.462 43.0944 147.173 32.5369 142.888 21.7362C144.249 28.287 146.698 35.672 142.637 38.0513C139.516 38.4816 135.316 32.8811 131.206 27.8006Z" fill="#005E2D"/>
<path opacity="0.3" d="M155.654 29.8246C156.585 32.2675 158.515 35.1108 157.405 40.3521C161.152 41.8075 164.045 44.0746 166.248 46.9927H192.617C186.169 44.6545 186.487 35.5822 187.611 25.7093C186.823 29.8994 185.779 33.0831 183.939 33.1692C182.488 33.9062 180.267 29.63 178.015 25.1519C179.193 29.1774 179.085 32.926 176.179 36.0723C173.86 36.9327 171.254 34.0483 168.585 30.382C169.727 33.4647 169.467 36.3791 167 39.0278C164.166 36.6671 162.652 32.4434 161.578 27.5949C161.873 30.9394 161.739 33.5059 160.66 34.3663C158.658 33.5695 157.212 31.6465 155.654 29.8246Z" fill="#005E2D"/>
<path opacity="0.3" d="M201.468 46.9925C205.632 44.4149 205.901 38.7209 205.476 32.4731C206.268 36.4575 207.097 40.2884 208.812 40.4231C213.473 37.6509 214.221 31.5042 214.736 25.1555C214.798 28.0474 214.767 31.1637 215.904 31.362C217.145 30.9879 217.476 28.3242 217.615 25.1555C217.942 28.3803 218.228 31.7249 219.576 32.129C220.364 33.6067 221.833 33.0717 223.413 32.2C221.125 33.5431 219.616 35.496 219.159 38.2644C219.509 38.9565 220.467 39.1286 221.662 39.1024C217.865 39.8282 215.313 40.9693 213.983 42.5181C216.231 43.8238 219.253 43.5956 222.495 42.9371C218.246 44.0595 214.534 45.3202 212.438 47H201.468V46.9925Z" fill="#005E2D"/>
</svg>
