<svg width="237" height="168" viewBox="0 0 237 168" fill="none" xmlns="http://www.w3.org/2000/svg">
<path fill-rule="evenodd" clip-rule="evenodd" d="M31.9935 48.9999C14.3203 48.9999 0 63.3268 0 80.9999C0 81.0028 3.75387e-07 81.0057 1.12611e-06 81.0085C3.75387e-07 81.0114 0 81.0142 0 81.0171C0 98.6996 14.3275 113.034 32.01 113.034H171.5C198.192 116.321 200.601 137.155 201.995 149.208C202.298 151.83 202.553 154.037 203 155.557C208.358 173.784 234.498 146.225 235.182 127.239L236.088 102.084C236.357 94.6211 235.018 87.4837 232.387 80.9987C235.018 74.5142 236.356 67.3773 236.087 59.9146L235.183 34.8186C234.499 15.8337 208.36 -11.7253 203 6.49994C202.553 8.01888 202.298 10.2244 201.995 12.8454C200.601 24.8916 198.192 45.7148 171.5 48.9999H31.9935Z" fill="white"/>
</svg>
